<mxfile host="app.diagrams.net" modified="2023-12-20T13:12:56.973Z" agent="Mozilla/5.0 (Windows NT 10.0; Win64; x64) AppleWebKit/537.36 (KHTML, like Gecko) Chrome/120.0.0.0 Safari/537.36" etag="z60gdI4fe31kmD-h8xOW" version="22.1.11" type="device">
  <diagram name="Pagina-1" id="8a4l-20PddrzZqEYakME">
    <mxGraphModel dx="989" dy="514" grid="1" gridSize="10" guides="1" tooltips="1" connect="1" arrows="1" fold="1" page="1" pageScale="1" pageWidth="827" pageHeight="1169" math="0" shadow="0">
      <root>
        <mxCell id="0" />
        <mxCell id="1" parent="0" />
        <mxCell id="P7uTg_bw5RMgVugZ5w_Q-1" value="" style="rounded=0;whiteSpace=wrap;html=1;fillColor=#f5f5f5;fontColor=#333333;strokeColor=#666666;" parent="1" vertex="1">
          <mxGeometry x="20" y="200" width="80" height="160" as="geometry" />
        </mxCell>
        <mxCell id="P7uTg_bw5RMgVugZ5w_Q-2" value="" style="rounded=0;whiteSpace=wrap;html=1;fillColor=#f5f5f5;fontColor=#333333;strokeColor=#000000;" parent="1" vertex="1">
          <mxGeometry x="160" y="185" width="80" height="160" as="geometry" />
        </mxCell>
        <mxCell id="P7uTg_bw5RMgVugZ5w_Q-3" value="" style="rounded=0;whiteSpace=wrap;html=1;fillColor=#f5f5f5;fontColor=#333333;strokeColor=#000000;" parent="1" vertex="1">
          <mxGeometry x="170" y="195" width="80" height="160" as="geometry" />
        </mxCell>
        <mxCell id="P7uTg_bw5RMgVugZ5w_Q-4" value="" style="rounded=0;whiteSpace=wrap;html=1;fillColor=#f5f5f5;fontColor=#333333;strokeColor=#000000;" parent="1" vertex="1">
          <mxGeometry x="180" y="205" width="80" height="160" as="geometry" />
        </mxCell>
        <mxCell id="P7uTg_bw5RMgVugZ5w_Q-5" value="" style="rounded=0;whiteSpace=wrap;html=1;fillColor=#f5f5f5;fontColor=#333333;strokeColor=#000000;" parent="1" vertex="1">
          <mxGeometry x="190" y="215" width="80" height="160" as="geometry" />
        </mxCell>
        <mxCell id="P7uTg_bw5RMgVugZ5w_Q-26" value="" style="rounded=0;whiteSpace=wrap;html=1;fillColor=#f8cecc;strokeColor=#b85450;" parent="1" vertex="1">
          <mxGeometry x="80" y="240" width="20" height="20" as="geometry" />
        </mxCell>
        <mxCell id="P7uTg_bw5RMgVugZ5w_Q-27" value="" style="rounded=0;whiteSpace=wrap;html=1;fillColor=#f8cecc;strokeColor=#b85450;" parent="1" vertex="1">
          <mxGeometry x="60" y="280" width="40" height="20" as="geometry" />
        </mxCell>
        <mxCell id="P7uTg_bw5RMgVugZ5w_Q-30" value="" style="rounded=0;whiteSpace=wrap;html=1;fillColor=#f8cecc;strokeColor=#b85450;" parent="1" vertex="1">
          <mxGeometry x="60" y="320" width="20" height="20" as="geometry" />
        </mxCell>
        <mxCell id="P7uTg_bw5RMgVugZ5w_Q-32" value="" style="endArrow=none;html=1;rounded=0;exitX=0;exitY=0.25;exitDx=0;exitDy=0;entryX=1;entryY=0.25;entryDx=0;entryDy=0;" parent="1" edge="1">
          <mxGeometry width="50" height="50" relative="1" as="geometry">
            <mxPoint x="20" y="280" as="sourcePoint" />
            <mxPoint x="100" y="280" as="targetPoint" />
          </mxGeometry>
        </mxCell>
        <mxCell id="P7uTg_bw5RMgVugZ5w_Q-33" value="" style="endArrow=none;html=1;rounded=0;exitX=0;exitY=0.25;exitDx=0;exitDy=0;entryX=1;entryY=0.25;entryDx=0;entryDy=0;" parent="1" edge="1">
          <mxGeometry width="50" height="50" relative="1" as="geometry">
            <mxPoint x="20" y="300" as="sourcePoint" />
            <mxPoint x="100" y="300" as="targetPoint" />
          </mxGeometry>
        </mxCell>
        <mxCell id="P7uTg_bw5RMgVugZ5w_Q-35" value="" style="rounded=0;whiteSpace=wrap;html=1;fillColor=#f8cecc;strokeColor=#b85450;" parent="1" vertex="1">
          <mxGeometry x="80" y="200" width="20" height="20" as="geometry" />
        </mxCell>
        <mxCell id="P7uTg_bw5RMgVugZ5w_Q-31" value="" style="endArrow=none;html=1;rounded=0;exitX=0;exitY=0.25;exitDx=0;exitDy=0;entryX=1;entryY=0.25;entryDx=0;entryDy=0;" parent="1" edge="1">
          <mxGeometry width="50" height="50" relative="1" as="geometry">
            <mxPoint x="20" y="220" as="sourcePoint" />
            <mxPoint x="100" y="220" as="targetPoint" />
          </mxGeometry>
        </mxCell>
        <mxCell id="P7uTg_bw5RMgVugZ5w_Q-23" value="" style="endArrow=none;html=1;rounded=0;exitX=0;exitY=0.25;exitDx=0;exitDy=0;entryX=1;entryY=0.25;entryDx=0;entryDy=0;" parent="1" edge="1">
          <mxGeometry width="50" height="50" relative="1" as="geometry">
            <mxPoint x="20" y="260" as="sourcePoint" />
            <mxPoint x="100" y="260" as="targetPoint" />
          </mxGeometry>
        </mxCell>
        <mxCell id="P7uTg_bw5RMgVugZ5w_Q-12" value="" style="endArrow=none;html=1;rounded=0;exitX=0;exitY=0.25;exitDx=0;exitDy=0;entryX=1;entryY=0.25;entryDx=0;entryDy=0;" parent="1" source="P7uTg_bw5RMgVugZ5w_Q-44" target="P7uTg_bw5RMgVugZ5w_Q-1" edge="1">
          <mxGeometry width="50" height="50" relative="1" as="geometry">
            <mxPoint x="370" y="420" as="sourcePoint" />
            <mxPoint x="420" y="370" as="targetPoint" />
          </mxGeometry>
        </mxCell>
        <mxCell id="P7uTg_bw5RMgVugZ5w_Q-18" value="" style="endArrow=none;html=1;rounded=0;exitX=0;exitY=0.25;exitDx=0;exitDy=0;entryX=1;entryY=0.25;entryDx=0;entryDy=0;" parent="1" edge="1">
          <mxGeometry width="50" height="50" relative="1" as="geometry">
            <mxPoint x="20" y="320" as="sourcePoint" />
            <mxPoint x="100" y="320" as="targetPoint" />
          </mxGeometry>
        </mxCell>
        <mxCell id="P7uTg_bw5RMgVugZ5w_Q-19" value="" style="endArrow=none;html=1;rounded=0;exitX=0;exitY=0.25;exitDx=0;exitDy=0;entryX=1;entryY=0.25;entryDx=0;entryDy=0;" parent="1" edge="1">
          <mxGeometry width="50" height="50" relative="1" as="geometry">
            <mxPoint x="20" y="340" as="sourcePoint" />
            <mxPoint x="100" y="340" as="targetPoint" />
          </mxGeometry>
        </mxCell>
        <mxCell id="P7uTg_bw5RMgVugZ5w_Q-45" value="" style="endArrow=none;html=1;rounded=0;exitX=0;exitY=0.25;exitDx=0;exitDy=0;entryX=1;entryY=0.25;entryDx=0;entryDy=0;" parent="1" source="P7uTg_bw5RMgVugZ5w_Q-1" target="P7uTg_bw5RMgVugZ5w_Q-44" edge="1">
          <mxGeometry width="50" height="50" relative="1" as="geometry">
            <mxPoint x="20" y="240" as="sourcePoint" />
            <mxPoint x="100" y="240" as="targetPoint" />
          </mxGeometry>
        </mxCell>
        <mxCell id="P7uTg_bw5RMgVugZ5w_Q-44" value="" style="rounded=0;whiteSpace=wrap;html=1;fillColor=none;fontColor=#333333;strokeColor=#000000;" parent="1" vertex="1">
          <mxGeometry x="20" y="200" width="80" height="160" as="geometry" />
        </mxCell>
        <mxCell id="P7uTg_bw5RMgVugZ5w_Q-36" value="A" style="endArrow=classic;html=1;rounded=0;fontSize=20;fontColor=default;labelBackgroundColor=none;" parent="1" edge="1">
          <mxGeometry y="10" width="50" height="50" relative="1" as="geometry">
            <mxPoint x="110" y="280" as="sourcePoint" />
            <mxPoint x="150" y="280" as="targetPoint" />
            <mxPoint as="offset" />
          </mxGeometry>
        </mxCell>
        <mxCell id="P7uTg_bw5RMgVugZ5w_Q-55" value="B" style="endArrow=classic;html=1;rounded=0;fontSize=20;fontColor=default;labelBackgroundColor=none;" parent="1" edge="1">
          <mxGeometry y="10" width="50" height="50" relative="1" as="geometry">
            <mxPoint x="280" y="280" as="sourcePoint" />
            <mxPoint x="320" y="280" as="targetPoint" />
            <mxPoint as="offset" />
          </mxGeometry>
        </mxCell>
        <mxCell id="P7uTg_bw5RMgVugZ5w_Q-68" value="E" style="endArrow=classic;html=1;rounded=0;fontSize=20;fontColor=default;labelBackgroundColor=none;" parent="1" edge="1">
          <mxGeometry y="10" width="50" height="50" relative="1" as="geometry">
            <mxPoint x="690" y="280" as="sourcePoint" />
            <mxPoint x="730" y="280" as="targetPoint" />
            <mxPoint as="offset" />
          </mxGeometry>
        </mxCell>
        <mxCell id="P7uTg_bw5RMgVugZ5w_Q-69" value="D" style="endArrow=classic;html=1;rounded=0;fontSize=20;fontColor=default;labelBackgroundColor=none;" parent="1" edge="1">
          <mxGeometry y="10" width="50" height="50" relative="1" as="geometry">
            <mxPoint x="580" y="280" as="sourcePoint" />
            <mxPoint x="620" y="280" as="targetPoint" />
            <mxPoint as="offset" />
          </mxGeometry>
        </mxCell>
        <mxCell id="P7uTg_bw5RMgVugZ5w_Q-70" value="C" style="endArrow=classic;html=1;rounded=0;fontSize=20;fontColor=default;labelBackgroundColor=none;" parent="1" edge="1">
          <mxGeometry y="10" width="50" height="50" relative="1" as="geometry">
            <mxPoint x="420" y="280" as="sourcePoint" />
            <mxPoint x="460" y="280" as="targetPoint" />
            <mxPoint as="offset" />
          </mxGeometry>
        </mxCell>
        <mxCell id="8BUV6AUYwXgCQ4tE40Ya-5" value="" style="shape=image;verticalLabelPosition=bottom;labelBackgroundColor=default;verticalAlign=top;aspect=fixed;imageAspect=0;image=data:image/svg+xml,PHN2ZyB4bWxuczp4bGluaz0iaHR0cDovL3d3dy53My5vcmcvMTk5OS94bGluayIgeG1sbnM9Imh0dHA6Ly93d3cudzMub3JnLzIwMDAvc3ZnIiB3aWR0aD0iNDkuMjgycHQiIHZpZXdCb3g9IjI2NS45OTYgMTAzLjk4NSA0OS4yODIgMTQuOTU4OSIgdmVyc2lvbj0iMS4xIiBoZWlnaHQ9IjE0Ljk1ODlwdCI+JiN4YTs8ZGVmcz4mI3hhOzxwYXRoIGlkPSJnMS0xMDAiIGQ9Ik02LjAxMzQ1IC03Ljk5ODAxQzYuMDI1NCAtOC4wNDU4MyA2LjA0OTMyIC04LjExNzU2IDYuMDQ5MzIgLTguMTc3MzNDNi4wNDkzMiAtOC4yOTY4OSA1LjkyOTc2IC04LjI5Njg5IDUuOTA1ODUgLTguMjk2ODlDNS44OTM5IC04LjI5Njg5IDUuMzA4MDkgLTguMjQ5MDcgNS4yNDgzMiAtOC4yMzcxMUM1LjA0NTA4IC04LjIyNTE2IDQuODY1NzUgLTguMjAxMjUgNC42NTA1NiAtOC4xODkyOUM0LjM1MTY4IC04LjE2NTM4IDQuMjY4IC04LjE1MzQyIDQuMjY4IC03LjkzODIzQzQuMjY4IC03LjgxODY4IDQuMzYzNjQgLTcuODE4NjggNC41MzEwMSAtNy44MTg2OEM1LjExNjgxIC03LjgxODY4IDUuMTI4NzcgLTcuNzExMDggNS4xMjg3NyAtNy41OTE1M0M1LjEyODc3IC03LjUxOTggNS4xMDQ4NiAtNy40MjQxNiA1LjA5MjkgLTcuMzg4MjlMNC4zNjM2NCAtNC40ODMxOUM0LjIzMjEzIC00Ljc5NDAyIDMuOTA5MzQgLTUuMjcyMjMgMy4yODc2NyAtNS4yNzIyM0MxLjkzNjc0IC01LjI3MjIzIDAuNDc4MjA3IC0zLjUyNjc3IDAuNDc4MjA3IC0xLjc1NzQxQzAuNDc4MjA3IC0wLjU3Mzg0OCAxLjE3MTYxIDAuMTE5NTUyIDEuOTg0NTYgMC4xMTk1NTJDMi42NDIwOSAwLjExOTU1MiAzLjIwMzk5IC0wLjM5NDUyMSAzLjUzODczIC0wLjc4OTA0MUMzLjY1ODI4IC0wLjA4MzY4NjIgNC4yMjAxNyAwLjExOTU1MiA0LjU3ODgzIDAuMTE5NTUyUzUuMjI0NDEgLTAuMDk1NjQxMyA1LjQzOTYgLTAuNTI2MDI3QzUuNjMwODggLTAuOTMyNTAzIDUuNzk4MjYgLTEuNjYxNzcgNS43OTgyNiAtMS43MDk1OUM1Ljc5ODI2IC0xLjc2OTM2IDUuNzUwNDQgLTEuODE3MTkgNS42Nzg3IC0xLjgxNzE5QzUuNTcxMTEgLTEuODE3MTkgNS41NTkxNSAtMS43NTc0MSA1LjUxMTMzIC0xLjU3ODA4QzUuMzMyIC0wLjg3MjcyNyA1LjEwNDg2IC0wLjExOTU1MiA0LjYxNDY5IC0wLjExOTU1MkM0LjI2OCAtMC4xMTk1NTIgNC4yNDQwOCAtMC40MzAzODYgNC4yNDQwOCAtMC42Njk0ODlDNC4yNDQwOCAtMC43MTczMSA0LjI0NDA4IC0wLjk2ODM2OSA0LjMyNzc3IC0xLjMwMzExTDYuMDEzNDUgLTcuOTk4MDFaTTMuNTk4NTEgLTEuNDIyNjdDMy41Mzg3MyAtMS4yMTk0MyAzLjUzODczIC0xLjE5NTUyIDMuMzcxMzYgLTAuOTY4MzY5QzMuMTA4MzQgLTAuNjMzNjI0IDIuNTgyMzIgLTAuMTE5NTUyIDIuMDIwNDIgLTAuMTE5NTUyQzEuNTMwMjYgLTAuMTE5NTUyIDEuMjU1MjkgLTAuNTYxODkzIDEuMjU1MjkgLTEuMjY3MjVDMS4yNTUyOSAtMS45MjQ3OCAxLjYyNTkgLTMuMjYzNzYgMS44NTMwNSAtMy43NjU4OEMyLjI1OTUzIC00LjYwMjc0IDIuODIxNDIgLTUuMDMzMTMgMy4yODc2NyAtNS4wMzMxM0M0LjA3NjcxIC01LjAzMzEzIDQuMjMyMTMgLTQuMDUyOCA0LjIzMjEzIC0zLjk1NzE2QzQuMjMyMTMgLTMuOTQ1MjEgNC4xOTYyNiAtMy43ODk3OSA0LjE4NDMxIC0zLjc2NTg4TDMuNTk4NTEgLTEuNDIyNjdaIi8+JiN4YTs8cGF0aCBpZD0iZzAtMTciIGQ9Ik03LjAwNTczIC0zLjM0NzQ1QzcuMDY1NSAtMy41NjI2NCA3LjEwMTM3IC0zLjcxODA2IDcuMTAxMzcgLTQuMDE2OTRDNy4xMDEzNyAtNS4xMTY4MSA2LjE4MDgyIC01LjQwMzc0IDUuMzIwMDUgLTUuNDAzNzRDNS4wNjg5OSAtNS40MDM3NCA0LjE5NjI2IC01LjQwMzc0IDMuMzQ3NDUgLTQuNDk1MTRDMy4xODAwNyAtNS4wOTI5IDIuNTIyNTQgLTUuNDAzNzQgMS44NzY5NiAtNS40MDM3NEMxLjQzNDYyIC01LjQwMzc0IDEuMDg3OTIgLTUuMTUyNjggMC44MzY4NjIgLTQuNzIyMjlDMC41Mzc5ODMgLTQuMjQ0MDggMC4zODI1NjUgLTMuNTk4NTEgMC4zODI1NjUgLTMuNTM4NzNDMC4zODI1NjUgLTMuMzcxMzYgMC41NjE4OTMgLTMuMzcxMzYgMC42Njk0ODkgLTMuMzcxMzZDMC44MDA5OTYgLTMuMzcxMzYgMC44NDg4MTcgLTMuMzcxMzYgMC45MDg1OTMgLTMuNDMxMTNDMC45MzI1MDMgLTMuNDU1MDQgMC45MzI1MDMgLTMuNDc4OTUgMS4wMDQyMyAtMy43Nzc4M0MxLjI0MzM0IC00LjczNDI1IDEuNTE4MzEgLTQuOTczMzUgMS44MTcxOSAtNC45NzMzNUMxLjk0ODY5IC00Ljk3MzM1IDIuMDkyMTUgLTQuOTI1NTMgMi4wOTIxNSAtNC41MzEwMUMyLjA5MjE1IC00LjMyNzc3IDIuMDQ0MzMgLTQuMTM2NDkgMS45MjQ3OCAtMy42NTgyOEMxLjg0MTEgLTMuMzIzNTQgMS43MjE1NCAtMi44NDUzMyAxLjY2MTc3IC0yLjU4MjMyTDEuMjMxMzggLTAuOTA4NTkzQzEuMTk1NTIgLTAuNzQxMjIgMS4xMzU3NCAtMC41MTQwNzIgMS4xMzU3NCAtMC40MzAzODZDMS4xMzU3NCAtMC4xNzkzMjggMS4zMjcwMiAwLjA5NTY0MTMgMS42OTc2MyAwLjA5NTY0MTNDMi4zMTkzIDAuMDk1NjQxMyAyLjQ2Mjc2IC0wLjQ1NDI5NiAyLjU0NjQ1IC0wLjgxMjk1MUMyLjY2NiAtMS4yNTUyOSAyLjc2MTY0IC0xLjYzNzg2IDIuODgxMiAtMi4xNTE5M0MyLjkyOTAyIC0yLjMwNzM1IDMuMjI3OSAtMy41Mzg3MyAzLjI1MTgxIC0zLjU3NDZDMy4yNjM3NiAtMy42NDYzMyAzLjU5ODUxIC00LjE4NDMxIDMuOTkzMDMgLTQuNTA3MUM0LjMyNzc3IC00Ljc3MDExIDQuNzIyMjkgLTQuOTczMzUgNS4yMjQ0MSAtNC45NzMzNUM1LjUzNTI0IC00Ljk3MzM1IDUuODIyMTcgLTQuODUzOCA1LjgyMjE3IC00LjI2OEM1LjgyMjE3IC0zLjk2OTEyIDUuNzc0MzUgLTMuODAxNzQgNS43MjY1MyAtMy41ODY1NUw0LjM5OTUgMS42ODU2OEM0LjM1MTY4IDEuODc2OTYgNC4zNTE2OCAxLjk0ODY5IDQuMzUxNjggMS45OTY1MUM0LjM1MTY4IDIuMzc5MDggNC42NjI1MiAyLjUyMjU0IDQuOTEzNTcgMi41MjI1NEM1LjA0NTA4IDIuNTIyNTQgNS41MzUyNCAyLjUxMDU5IDUuNzE0NTcgMS43OTMyOEw3LjAwNTczIC0zLjM0NzQ1WiIvPiYjeGE7PHBhdGggaWQ9ImcwLTEyMCIgZD0iTTYuNDA3OTcgLTQuNzk0MDJDNS45Nzc1OCAtNC42NzQ0NyA1Ljc2MjM5IC00LjI2OCA1Ljc2MjM5IC0zLjk2OTEyQzUuNzYyMzkgLTMuNzA2MSA1Ljk2NTYzIC0zLjQxOTE4IDYuMzYwMTUgLTMuNDE5MThDNi43Nzg1OCAtMy40MTkxOCA3LjIyMDkyIC0zLjc2NTg4IDcuMjIwOTIgLTQuMzUxNjhDNy4yMjA5MiAtNC45ODUzMSA2LjU4NzMgLTUuNDAzNzQgNS44NTgwMyAtNS40MDM3NEM1LjE3NjU5IC01LjQwMzc0IDQuNzM0MjUgLTQuODg5NjYgNC41Nzg4MyAtNC42NzQ0N0M0LjI3OTk1IC01LjE3NjU5IDMuNjEwNDYgLTUuNDAzNzQgMi45MjkwMiAtNS40MDM3NEMxLjQyMjY3IC01LjQwMzc0IDAuNjA5NzE0IC0zLjkzMzI1IDAuNjA5NzE0IC0zLjUzODczQzAuNjA5NzE0IC0zLjM3MTM2IDAuNzg5MDQxIC0zLjM3MTM2IDAuODk2NjM4IC0zLjM3MTM2QzEuMDQwMSAtMy4zNzEzNiAxLjEyMzc5IC0zLjM3MTM2IDEuMTcxNjEgLTMuNTI2NzdDMS41MTgzMSAtNC42MTQ2OSAyLjM3OTA4IC00Ljk3MzM1IDIuODY5MjQgLTQuOTczMzVDMy4zMjM1NCAtNC45NzMzNSAzLjUzODczIC00Ljc1ODE2IDMuNTM4NzMgLTQuMzc1NTlDMy41Mzg3MyAtNC4xNDg0NCAzLjM3MTM2IC0zLjQ5MDkxIDMuMjYzNzYgLTMuMDYwNTJMMi44NTcyOSAtMS40MjI2N0MyLjY3Nzk2IC0wLjY5MzQgMi4yNDc1NyAtMC4zMzQ3NDUgMS44NDExIC0wLjMzNDc0NUMxLjc4MTMyIC0wLjMzNDc0NSAxLjUwNjM1IC0wLjMzNDc0NSAxLjI2NzI1IC0wLjUxNDA3MkMxLjY5NzYzIC0wLjYzMzYyNCAxLjkxMjgzIC0xLjA0MDEgMS45MTI4MyAtMS4zMzg5OEMxLjkxMjgzIC0xLjYwMTk5IDEuNzA5NTkgLTEuODg4OTIgMS4zMTUwNyAtMS44ODg5MkMwLjg5NjYzOCAtMS44ODg5MiAwLjQ1NDI5NiAtMS41NDIyMiAwLjQ1NDI5NiAtMC45NTY0MTNDMC40NTQyOTYgLTAuMzIyNzkgMS4wODc5MiAwLjA5NTY0MTMgMS44MTcxOSAwLjA5NTY0MTNDMi40OTg2MyAwLjA5NTY0MTMgMi45NDA5NyAtMC40MTg0MzEgMy4wOTYzOSAtMC42MzM2MjRDMy4zOTUyNyAtMC4xMzE1MDcgNC4wNjQ3NiAwLjA5NTY0MTMgNC43NDYyIDAuMDk1NjQxM0M2LjI1MjU1IDAuMDk1NjQxMyA3LjA2NTUgLTEuMzc0ODQgNy4wNjU1IC0xLjc2OTM2QzcuMDY1NSAtMS45MzY3NCA2Ljg4NjE4IC0xLjkzNjc0IDYuNzc4NTggLTEuOTM2NzRDNi42MzUxMiAtMS45MzY3NCA2LjU1MTQzIC0xLjkzNjc0IDYuNTAzNjEgLTEuNzgxMzJDNi4xNTY5MSAtMC42OTM0IDUuMjk2MTQgLTAuMzM0NzQ1IDQuODA1OTggLTAuMzM0NzQ1QzQuMzUxNjggLTAuMzM0NzQ1IDQuMTM2NDkgLTAuNTQ5OTM4IDQuMTM2NDkgLTAuOTMyNTAzQzQuMTM2NDkgLTEuMTgzNTYgNC4yOTE5MSAtMS44MTcxOSA0LjM5OTUgLTIuMjU5NTNDNC40ODMxOSAtMi41NzAzNiA0Ljc1ODE2IC0zLjY5NDE1IDQuODE3OTMgLTMuODg1NDNDNC45OTcyNiAtNC42MDI3NCA1LjQxNTY5IC00Ljk3MzM1IDUuODM0MTIgLTQuOTczMzVDNS44OTM5IC00Ljk3MzM1IDYuMTY4ODcgLTQuOTczMzUgNi40MDc5NyAtNC43OTQwMloiLz4mI3hhOzxwYXRoIGlkPSJnMi01MSIgZD0iTTIuMDE2NDQgLTIuNjYyMDJDMi42NDYwOCAtMi42NjIwMiAzLjA0NDU4IC0yLjE5OTc1IDMuMDQ0NTggLTEuMzYyODlDMy4wNDQ1OCAtMC4zNjY2MjUgMi40Nzg3IC0wLjA3MTczMSAyLjA1NjI5IC0wLjA3MTczMUMxLjYxNzkzIC0wLjA3MTczMSAxLjAyMDE3IC0wLjIzMTEzMyAwLjc0MTIyIC0wLjY1MzU0OUMxLjAyODE0IC0wLjY1MzU0OSAxLjIyNzQgLTAuODM2ODYyIDEuMjI3NCAtMS4wOTk4OEMxLjIyNzQgLTEuMzU0OTIgMS4wNDQwOCAtMS41MzgyMyAwLjc4OTA0MSAtMS41MzgyM0MwLjU3Mzg0OCAtMS41MzgyMyAwLjM1MDY4NSAtMS40MDI3NCAwLjM1MDY4NSAtMS4wODM5NEMwLjM1MDY4NSAtMC4zMjY3NzUgMS4xNjM2NCAwLjE2NzM3MiAyLjA3MjIzIDAuMTY3MzcyQzMuMTMyMjUgMC4xNjczNzIgMy44NzM0NyAtMC41NjU4NzggMy44NzM0NyAtMS4zNjI4OUMzLjg3MzQ3IC0yLjAyNDQxIDMuMzQ3NDUgLTIuNjMwMTQgMi41MzQ1IC0yLjgwNTQ4QzMuMTY0MTMgLTMuMDI4NjQgMy42MzQzNyAtMy41NzA2MSAzLjYzNDM3IC00LjIwODIyUzIuOTE3MDYgLTUuMzAwMTIgMi4wODgxNyAtNS4zMDAxMkMxLjIzNTM3IC01LjMwMDEyIDAuNTg5Nzg4IC00LjgzNzg2IDAuNTg5Nzg4IC00LjIzMjEzQzAuNTg5Nzg4IC0zLjkzNzI0IDAuNzg5MDQxIC0zLjgwOTcxIDAuOTk2MjY0IC0zLjgwOTcxQzEuMjQzMzQgLTMuODA5NzEgMS40MDI3NCAtMy45ODUwNiAxLjQwMjc0IC00LjIxNjE5QzEuNDAyNzQgLTQuNTExMDggMS4xNDc3IC00LjYyMjY3IDAuOTcyMzU0IC00LjYzMDY0QzEuMzA3MSAtNS4wNjg5OSAxLjkyMDggLTUuMDkyOSAyLjA2NDI2IC01LjA5MjlDMi4yNzE0OCAtNS4wOTI5IDIuODc3MjEgLTUuMDI5MTQgMi44NzcyMSAtNC4yMDgyMkMyLjg3NzIxIC0zLjY1MDMxIDIuNjQ2MDggLTMuMzE1NTcgMi41MzQ1IC0zLjE4ODA0QzIuMjk1MzkgLTIuOTQwOTcgMi4xMTIwOCAtMi45MjUwMyAxLjYyNTkgLTIuODkzMTVDMS40NzQ0NyAtMi44ODUxOCAxLjQxMDcxIC0yLjg3NzIxIDEuNDEwNzEgLTIuNzczNkMxLjQxMDcxIC0yLjY2MjAyIDEuNDgyNDQgLTIuNjYyMDIgMS42MTc5MyAtMi42NjIwMkgyLjAxNjQ0WiIvPiYjeGE7PHBhdGggaWQ9ImczLTQwIiBkPSJNMy44ODU0MyAyLjkwNTExQzMuODg1NDMgMi44NjkyNCAzLjg4NTQzIDIuODQ1MzMgMy42ODIxOSAyLjY0MjA5QzIuNDg2NjcgMS40MzQ2MiAxLjgxNzE5IC0wLjUzNzk4MyAxLjgxNzE5IC0yLjk3Njg0QzEuODE3MTkgLTUuMjk2MTQgMi4zNzkwOCAtNy4yOTI2NSAzLjc2NTg4IC04LjcwMzM2QzMuODg1NDMgLTguODEwOTYgMy44ODU0MyAtOC44MzQ4NyAzLjg4NTQzIC04Ljg3MDczQzMuODg1NDMgLTguOTQyNDcgMy44MjU2NSAtOC45NjYzOCAzLjc3NzgzIC04Ljk2NjM4QzMuNjIyNDIgLTguOTY2MzggMi42NDIwOSAtOC4xMDU2IDIuMDU2MjkgLTYuOTM0QzEuNDQ2NTggLTUuNzI2NTMgMS4xNzE2MSAtNC40NDczMiAxLjE3MTYxIC0yLjk3Njg0QzEuMTcxNjEgLTEuOTEyODMgMS4zMzg5OCAtMC40OTAxNjIgMS45NjA2NSAwLjc4OTA0MUMyLjY2NiAyLjIyMzY2IDMuNjQ2MzMgMy4wMDA3NSAzLjc3NzgzIDMuMDAwNzVDMy44MjU2NSAzLjAwMDc1IDMuODg1NDMgMi45NzY4NCAzLjg4NTQzIDIuOTA1MTFaIi8+JiN4YTs8cGF0aCBpZD0iZzMtNDEiIGQ9Ik0zLjM3MTM2IC0yLjk3Njg0QzMuMzcxMzYgLTMuODg1NDMgMy4yNTE4MSAtNS4zNjc4NyAyLjU4MjMyIC02Ljc1NDY3QzEuODc2OTYgLTguMTg5MjkgMC44OTY2MzggLTguOTY2MzggMC43NjUxMzEgLTguOTY2MzhDMC43MTczMSAtOC45NjYzOCAwLjY1NzUzNCAtOC45NDI0NyAwLjY1NzUzNCAtOC44NzA3M0MwLjY1NzUzNCAtOC44MzQ4NyAwLjY1NzUzNCAtOC44MTA5NiAwLjg2MDc3MiAtOC42MDc3MkMyLjA1NjI5IC03LjQwMDI1IDIuNzI1NzggLTUuNDI3NjUgMi43MjU3OCAtMi45ODg3OUMyLjcyNTc4IC0wLjY2OTQ4OSAyLjE2Mzg5IDEuMzI3MDIgMC43NzcwODYgMi43Mzc3M0MwLjY1NzUzNCAyLjg0NTMzIDAuNjU3NTM0IDIuODY5MjQgMC42NTc1MzQgMi45MDUxMUMwLjY1NzUzNCAyLjk3Njg0IDAuNzE3MzEgMy4wMDA3NSAwLjc2NTEzMSAzLjAwMDc1QzAuOTIwNTQ4IDMuMDAwNzUgMS45MDA4NyAyLjEzOTk4IDIuNDg2NjcgMC45NjgzNjlDMy4wOTYzOSAtMC4yNTEwNTkgMy4zNzEzNiAtMS41NDIyMiAzLjM3MTM2IC0yLjk3Njg0WiIvPiYjeGE7PHBhdGggaWQ9ImczLTU5IiBkPSJNMi4xOTk3NSAtNC41Nzg4M0MyLjE5OTc1IC00LjkwMTYyIDEuOTI0NzggLTUuMTUyNjggMS42MjU5IC01LjE1MjY4QzEuMjc5MiAtNS4xNTI2OCAxLjA0MDEgLTQuODc3NzEgMS4wNDAxIC00LjU3ODgzQzEuMDQwMSAtNC4yMjAxNyAxLjMzODk4IC0zLjk5MzAzIDEuNjEzOTUgLTMuOTkzMDNDMS45MzY3NCAtMy45OTMwMyAyLjE5OTc1IC00LjI0NDA4IDIuMTk5NzUgLTQuNTc4ODNaTTEuOTk2NTEgLTAuMTE5NTUyQzEuOTk2NTEgMC4yOTg4NzkgMS45OTY1MSAxLjE0NzcgMS4yNjcyNSAyLjA0NDMzQzEuMTk1NTIgMi4xMzk5OCAxLjE5NTUyIDIuMTYzODkgMS4xOTU1MiAyLjE4NzhDMS4xOTU1MiAyLjI0NzU3IDEuMjU1MjkgMi4zMDczNSAxLjMxNTA3IDIuMzA3MzVDMS4zOTg3NSAyLjMwNzM1IDIuMjM1NjIgMS40MjI2NyAyLjIzNTYyIDAuMDIzOTEwM0MyLjIzNTYyIC0wLjQxODQzMSAyLjE5OTc1IC0xLjE1OTY1IDEuNjEzOTUgLTEuMTU5NjVDMS4yNjcyNSAtMS4xNTk2NSAxLjA0MDEgLTAuODk2NjM4IDEuMDQwMSAtMC41ODU4MDNDMS4wNDAxIC0wLjI2MzAxNCAxLjI2NzI1IDAgMS42MjU5IDBDMS44NTMwNSAwIDEuOTM2NzQgLTAuMDcxNzMxIDEuOTk2NTEgLTAuMTE5NTUyWiIvPiYjeGE7PHBhdGggaWQ9ImczLTk0IiBkPSJNMi45MjkwMiAtOC4yOTY4OUwxLjM2Mjg5IC02LjY3MDk4TDEuNTU0MTcgLTYuNDkxNjZMMi45MTcwNiAtNy43MjMwNEw0LjI5MTkxIC02LjQ5MTY2TDQuNDgzMTkgLTYuNjcwOThMMi45MjkwMiAtOC4yOTY4OVoiLz4mI3hhOzwvZGVmcz4mI3hhOzxnIHRyYW5zZm9ybT0ibWF0cml4KDEuMjUgMCAwIDEuMjUgMCAwKSIgaWQ9InBhZ2UxIj4mI3hhOzx1c2UgeT0iOTIuMTU0NCIgeGxpbms6aHJlZj0iI2cxLTEwMCIgeD0iMjEyLjc5NyIvPiYjeGE7PHVzZSB5PSI5Mi4xNTQ0IiB4bGluazpocmVmPSIjZzMtNDAiIHg9IjIxOC44NTciLz4mI3hhOzx1c2UgeT0iOTIuMTU0NCIgeGxpbms6aHJlZj0iI2cwLTEyMCIgeD0iMjIzLjM5MiIvPiYjeGE7PHVzZSB5PSI5Mi4xNTQ0IiB4bGluazpocmVmPSIjZzMtNTkiIHg9IjIzMS4yNzEiLz4mI3hhOzx1c2UgeT0iOTEuOTg4NCIgeGxpbms6aHJlZj0iI2czLTk0IiB4PSIyMzcuMzg0Ii8+JiN4YTs8dXNlIHk9IjkyLjE1NDQiIHhsaW5rOmhyZWY9IiNnMC0xNyIgeD0iMjM2LjUwMyIvPiYjeGE7PHVzZSB5PSI5NC45NzcyIiB4bGluazpocmVmPSIjZzItNTEiIHg9IjI0NC4xMTgiLz4mI3hhOzx1c2UgeT0iOTIuMTU0NCIgeGxpbms6aHJlZj0iI2czLTQxIiB4PSIyNDguODUxIi8+JiN4YTs8L2c+JiN4YTs8L3N2Zz4=;" vertex="1" parent="1">
          <mxGeometry x="330" y="265" width="81.7" height="25" as="geometry" />
        </mxCell>
        <mxCell id="8BUV6AUYwXgCQ4tE40Ya-6" value="" style="shape=image;verticalLabelPosition=bottom;labelBackgroundColor=default;verticalAlign=top;aspect=fixed;imageAspect=0;image=data:image/svg+xml,PHN2ZyB4bWxuczp4bGluaz0iaHR0cDovL3d3dy53My5vcmcvMTk5OS94bGluayIgeG1sbnM9Imh0dHA6Ly93d3cudzMub3JnLzIwMDAvc3ZnIiB3aWR0aD0iNTUuMjE2NHB0IiB2aWV3Qm94PSIyNjMuMDI4IDEwMy45ODUgNTUuMjE2NCAxNC45NTg5IiB2ZXJzaW9uPSIxLjEiIGhlaWdodD0iMTQuOTU4OXB0Ij4mI3hhOzxkZWZzPiYjeGE7PHBhdGggaWQ9ImczLTQwIiBkPSJNMy44ODU0MyAyLjkwNTExQzMuODg1NDMgMi44NjkyNCAzLjg4NTQzIDIuODQ1MzMgMy42ODIxOSAyLjY0MjA5QzIuNDg2NjcgMS40MzQ2MiAxLjgxNzE5IC0wLjUzNzk4MyAxLjgxNzE5IC0yLjk3Njg0QzEuODE3MTkgLTUuMjk2MTQgMi4zNzkwOCAtNy4yOTI2NSAzLjc2NTg4IC04LjcwMzM2QzMuODg1NDMgLTguODEwOTYgMy44ODU0MyAtOC44MzQ4NyAzLjg4NTQzIC04Ljg3MDczQzMuODg1NDMgLTguOTQyNDcgMy44MjU2NSAtOC45NjYzOCAzLjc3NzgzIC04Ljk2NjM4QzMuNjIyNDIgLTguOTY2MzggMi42NDIwOSAtOC4xMDU2IDIuMDU2MjkgLTYuOTM0QzEuNDQ2NTggLTUuNzI2NTMgMS4xNzE2MSAtNC40NDczMiAxLjE3MTYxIC0yLjk3Njg0QzEuMTcxNjEgLTEuOTEyODMgMS4zMzg5OCAtMC40OTAxNjIgMS45NjA2NSAwLjc4OTA0MUMyLjY2NiAyLjIyMzY2IDMuNjQ2MzMgMy4wMDA3NSAzLjc3NzgzIDMuMDAwNzVDMy44MjU2NSAzLjAwMDc1IDMuODg1NDMgMi45NzY4NCAzLjg4NTQzIDIuOTA1MTFaIi8+JiN4YTs8cGF0aCBpZD0iZzMtNDEiIGQ9Ik0zLjM3MTM2IC0yLjk3Njg0QzMuMzcxMzYgLTMuODg1NDMgMy4yNTE4MSAtNS4zNjc4NyAyLjU4MjMyIC02Ljc1NDY3QzEuODc2OTYgLTguMTg5MjkgMC44OTY2MzggLTguOTY2MzggMC43NjUxMzEgLTguOTY2MzhDMC43MTczMSAtOC45NjYzOCAwLjY1NzUzNCAtOC45NDI0NyAwLjY1NzUzNCAtOC44NzA3M0MwLjY1NzUzNCAtOC44MzQ4NyAwLjY1NzUzNCAtOC44MTA5NiAwLjg2MDc3MiAtOC42MDc3MkMyLjA1NjI5IC03LjQwMDI1IDIuNzI1NzggLTUuNDI3NjUgMi43MjU3OCAtMi45ODg3OUMyLjcyNTc4IC0wLjY2OTQ4OSAyLjE2Mzg5IDEuMzI3MDIgMC43NzcwODYgMi43Mzc3M0MwLjY1NzUzNCAyLjg0NTMzIDAuNjU3NTM0IDIuODY5MjQgMC42NTc1MzQgMi45MDUxMUMwLjY1NzUzNCAyLjk3Njg0IDAuNzE3MzEgMy4wMDA3NSAwLjc2NTEzMSAzLjAwMDc1QzAuOTIwNTQ4IDMuMDAwNzUgMS45MDA4NyAyLjEzOTk4IDIuNDg2NjcgMC45NjgzNjlDMy4wOTYzOSAtMC4yNTEwNTkgMy4zNzEzNiAtMS41NDIyMiAzLjM3MTM2IC0yLjk3Njg0WiIvPiYjeGE7PHBhdGggaWQ9ImczLTU5IiBkPSJNMi4xOTk3NSAtNC41Nzg4M0MyLjE5OTc1IC00LjkwMTYyIDEuOTI0NzggLTUuMTUyNjggMS42MjU5IC01LjE1MjY4QzEuMjc5MiAtNS4xNTI2OCAxLjA0MDEgLTQuODc3NzEgMS4wNDAxIC00LjU3ODgzQzEuMDQwMSAtNC4yMjAxNyAxLjMzODk4IC0zLjk5MzAzIDEuNjEzOTUgLTMuOTkzMDNDMS45MzY3NCAtMy45OTMwMyAyLjE5OTc1IC00LjI0NDA4IDIuMTk5NzUgLTQuNTc4ODNaTTEuOTk2NTEgLTAuMTE5NTUyQzEuOTk2NTEgMC4yOTg4NzkgMS45OTY1MSAxLjE0NzcgMS4yNjcyNSAyLjA0NDMzQzEuMTk1NTIgMi4xMzk5OCAxLjE5NTUyIDIuMTYzODkgMS4xOTU1MiAyLjE4NzhDMS4xOTU1MiAyLjI0NzU3IDEuMjU1MjkgMi4zMDczNSAxLjMxNTA3IDIuMzA3MzVDMS4zOTg3NSAyLjMwNzM1IDIuMjM1NjIgMS40MjI2NyAyLjIzNTYyIDAuMDIzOTEwM0MyLjIzNTYyIC0wLjQxODQzMSAyLjE5OTc1IC0xLjE1OTY1IDEuNjEzOTUgLTEuMTU5NjVDMS4yNjcyNSAtMS4xNTk2NSAxLjA0MDEgLTAuODk2NjM4IDEuMDQwMSAtMC41ODU4MDNDMS4wNDAxIC0wLjI2MzAxNCAxLjI2NzI1IDAgMS42MjU5IDBDMS44NTMwNSAwIDEuOTM2NzQgLTAuMDcxNzMxIDEuOTk2NTEgLTAuMTE5NTUyWiIvPiYjeGE7PHBhdGggaWQ9ImczLTk0IiBkPSJNMi45MjkwMiAtOC4yOTY4OUwxLjM2Mjg5IC02LjY3MDk4TDEuNTU0MTcgLTYuNDkxNjZMMi45MTcwNiAtNy43MjMwNEw0LjI5MTkxIC02LjQ5MTY2TDQuNDgzMTkgLTYuNjcwOThMMi45MjkwMiAtOC4yOTY4OVoiLz4mI3hhOzxwYXRoIGlkPSJnMC0xNyIgZD0iTTcuMDA1NzMgLTMuMzQ3NDVDNy4wNjU1IC0zLjU2MjY0IDcuMTAxMzcgLTMuNzE4MDYgNy4xMDEzNyAtNC4wMTY5NEM3LjEwMTM3IC01LjExNjgxIDYuMTgwODIgLTUuNDAzNzQgNS4zMjAwNSAtNS40MDM3NEM1LjA2ODk5IC01LjQwMzc0IDQuMTk2MjYgLTUuNDAzNzQgMy4zNDc0NSAtNC40OTUxNEMzLjE4MDA3IC01LjA5MjkgMi41MjI1NCAtNS40MDM3NCAxLjg3Njk2IC01LjQwMzc0QzEuNDM0NjIgLTUuNDAzNzQgMS4wODc5MiAtNS4xNTI2OCAwLjgzNjg2MiAtNC43MjIyOUMwLjUzNzk4MyAtNC4yNDQwOCAwLjM4MjU2NSAtMy41OTg1MSAwLjM4MjU2NSAtMy41Mzg3M0MwLjM4MjU2NSAtMy4zNzEzNiAwLjU2MTg5MyAtMy4zNzEzNiAwLjY2OTQ4OSAtMy4zNzEzNkMwLjgwMDk5NiAtMy4zNzEzNiAwLjg0ODgxNyAtMy4zNzEzNiAwLjkwODU5MyAtMy40MzExM0MwLjkzMjUwMyAtMy40NTUwNCAwLjkzMjUwMyAtMy40Nzg5NSAxLjAwNDIzIC0zLjc3NzgzQzEuMjQzMzQgLTQuNzM0MjUgMS41MTgzMSAtNC45NzMzNSAxLjgxNzE5IC00Ljk3MzM1QzEuOTQ4NjkgLTQuOTczMzUgMi4wOTIxNSAtNC45MjU1MyAyLjA5MjE1IC00LjUzMTAxQzIuMDkyMTUgLTQuMzI3NzcgMi4wNDQzMyAtNC4xMzY0OSAxLjkyNDc4IC0zLjY1ODI4QzEuODQxMSAtMy4zMjM1NCAxLjcyMTU0IC0yLjg0NTMzIDEuNjYxNzcgLTIuNTgyMzJMMS4yMzEzOCAtMC45MDg1OTNDMS4xOTU1MiAtMC43NDEyMiAxLjEzNTc0IC0wLjUxNDA3MiAxLjEzNTc0IC0wLjQzMDM4NkMxLjEzNTc0IC0wLjE3OTMyOCAxLjMyNzAyIDAuMDk1NjQxMyAxLjY5NzYzIDAuMDk1NjQxM0MyLjMxOTMgMC4wOTU2NDEzIDIuNDYyNzYgLTAuNDU0Mjk2IDIuNTQ2NDUgLTAuODEyOTUxQzIuNjY2IC0xLjI1NTI5IDIuNzYxNjQgLTEuNjM3ODYgMi44ODEyIC0yLjE1MTkzQzIuOTI5MDIgLTIuMzA3MzUgMy4yMjc5IC0zLjUzODczIDMuMjUxODEgLTMuNTc0NkMzLjI2Mzc2IC0zLjY0NjMzIDMuNTk4NTEgLTQuMTg0MzEgMy45OTMwMyAtNC41MDcxQzQuMzI3NzcgLTQuNzcwMTEgNC43MjIyOSAtNC45NzMzNSA1LjIyNDQxIC00Ljk3MzM1QzUuNTM1MjQgLTQuOTczMzUgNS44MjIxNyAtNC44NTM4IDUuODIyMTcgLTQuMjY4QzUuODIyMTcgLTMuOTY5MTIgNS43NzQzNSAtMy44MDE3NCA1LjcyNjUzIC0zLjU4NjU1TDQuMzk5NSAxLjY4NTY4QzQuMzUxNjggMS44NzY5NiA0LjM1MTY4IDEuOTQ4NjkgNC4zNTE2OCAxLjk5NjUxQzQuMzUxNjggMi4zNzkwOCA0LjY2MjUyIDIuNTIyNTQgNC45MTM1NyAyLjUyMjU0QzUuMDQ1MDggMi41MjI1NCA1LjUzNTI0IDIuNTEwNTkgNS43MTQ1NyAxLjc5MzI4TDcuMDA1NzMgLTMuMzQ3NDVaIi8+JiN4YTs8cGF0aCBpZD0iZzAtMTIwIiBkPSJNNi40MDc5NyAtNC43OTQwMkM1Ljk3NzU4IC00LjY3NDQ3IDUuNzYyMzkgLTQuMjY4IDUuNzYyMzkgLTMuOTY5MTJDNS43NjIzOSAtMy43MDYxIDUuOTY1NjMgLTMuNDE5MTggNi4zNjAxNSAtMy40MTkxOEM2Ljc3ODU4IC0zLjQxOTE4IDcuMjIwOTIgLTMuNzY1ODggNy4yMjA5MiAtNC4zNTE2OEM3LjIyMDkyIC00Ljk4NTMxIDYuNTg3MyAtNS40MDM3NCA1Ljg1ODAzIC01LjQwMzc0QzUuMTc2NTkgLTUuNDAzNzQgNC43MzQyNSAtNC44ODk2NiA0LjU3ODgzIC00LjY3NDQ3QzQuMjc5OTUgLTUuMTc2NTkgMy42MTA0NiAtNS40MDM3NCAyLjkyOTAyIC01LjQwMzc0QzEuNDIyNjcgLTUuNDAzNzQgMC42MDk3MTQgLTMuOTMzMjUgMC42MDk3MTQgLTMuNTM4NzNDMC42MDk3MTQgLTMuMzcxMzYgMC43ODkwNDEgLTMuMzcxMzYgMC44OTY2MzggLTMuMzcxMzZDMS4wNDAxIC0zLjM3MTM2IDEuMTIzNzkgLTMuMzcxMzYgMS4xNzE2MSAtMy41MjY3N0MxLjUxODMxIC00LjYxNDY5IDIuMzc5MDggLTQuOTczMzUgMi44NjkyNCAtNC45NzMzNUMzLjMyMzU0IC00Ljk3MzM1IDMuNTM4NzMgLTQuNzU4MTYgMy41Mzg3MyAtNC4zNzU1OUMzLjUzODczIC00LjE0ODQ0IDMuMzcxMzYgLTMuNDkwOTEgMy4yNjM3NiAtMy4wNjA1MkwyLjg1NzI5IC0xLjQyMjY3QzIuNjc3OTYgLTAuNjkzNCAyLjI0NzU3IC0wLjMzNDc0NSAxLjg0MTEgLTAuMzM0NzQ1QzEuNzgxMzIgLTAuMzM0NzQ1IDEuNTA2MzUgLTAuMzM0NzQ1IDEuMjY3MjUgLTAuNTE0MDcyQzEuNjk3NjMgLTAuNjMzNjI0IDEuOTEyODMgLTEuMDQwMSAxLjkxMjgzIC0xLjMzODk4QzEuOTEyODMgLTEuNjAxOTkgMS43MDk1OSAtMS44ODg5MiAxLjMxNTA3IC0xLjg4ODkyQzAuODk2NjM4IC0xLjg4ODkyIDAuNDU0Mjk2IC0xLjU0MjIyIDAuNDU0Mjk2IC0wLjk1NjQxM0MwLjQ1NDI5NiAtMC4zMjI3OSAxLjA4NzkyIDAuMDk1NjQxMyAxLjgxNzE5IDAuMDk1NjQxM0MyLjQ5ODYzIDAuMDk1NjQxMyAyLjk0MDk3IC0wLjQxODQzMSAzLjA5NjM5IC0wLjYzMzYyNEMzLjM5NTI3IC0wLjEzMTUwNyA0LjA2NDc2IDAuMDk1NjQxMyA0Ljc0NjIgMC4wOTU2NDEzQzYuMjUyNTUgMC4wOTU2NDEzIDcuMDY1NSAtMS4zNzQ4NCA3LjA2NTUgLTEuNzY5MzZDNy4wNjU1IC0xLjkzNjc0IDYuODg2MTggLTEuOTM2NzQgNi43Nzg1OCAtMS45MzY3NEM2LjYzNTEyIC0xLjkzNjc0IDYuNTUxNDMgLTEuOTM2NzQgNi41MDM2MSAtMS43ODEzMkM2LjE1NjkxIC0wLjY5MzQgNS4yOTYxNCAtMC4zMzQ3NDUgNC44MDU5OCAtMC4zMzQ3NDVDNC4zNTE2OCAtMC4zMzQ3NDUgNC4xMzY0OSAtMC41NDk5MzggNC4xMzY0OSAtMC45MzI1MDNDNC4xMzY0OSAtMS4xODM1NiA0LjI5MTkxIC0xLjgxNzE5IDQuMzk5NSAtMi4yNTk1M0M0LjQ4MzE5IC0yLjU3MDM2IDQuNzU4MTYgLTMuNjk0MTUgNC44MTc5MyAtMy44ODU0M0M0Ljk5NzI2IC00LjYwMjc0IDUuNDE1NjkgLTQuOTczMzUgNS44MzQxMiAtNC45NzMzNUM1Ljg5MzkgLTQuOTczMzUgNi4xNjg4NyAtNC45NzMzNSA2LjQwNzk3IC00Ljc5NDAyWiIvPiYjeGE7PHBhdGggaWQ9ImcxLTc3IiBkPSJNNy43Mzg5OCAtNC43OTgwMUM3LjgxODY4IC01LjEwODg0IDcuODM0NjIgLTUuMTgwNTcgOC4zOTI1MyAtNS4xODA1N0M4LjU3NTg0IC01LjE4MDU3IDguNjcxNDggLTUuMTgwNTcgOC42NzE0OCAtNS4zMzJDOC42NzE0OCAtNS40NDM1OSA4LjU2Nzg3IC01LjQ0MzU5IDguNDI0NDEgLTUuNDQzNTlINy4zOTYyNkM3LjE4MTA3IC01LjQ0MzU5IDcuMTU3MTYgLTUuNDQzNTkgNy4wNTM1NSAtNS4yODQxOEw0LjA0ODgyIC0wLjczMzI1TDMuMzM5NDggLTUuMjI4MzlDMy4zMDc2IC01LjQyNzY1IDMuMjk5NjMgLTUuNDQzNTkgMy4wNjA1MiAtNS40NDM1OUgxLjk4NDU2QzEuODQxMSAtNS40NDM1OSAxLjczNzQ4IC01LjQ0MzU5IDEuNzM3NDggLTUuMjkyMTVDMS43Mzc0OCAtNS4xODA1NyAxLjg0MTEgLTUuMTgwNTcgMS45Njg2MiAtNS4xODA1N0MyLjIzMTYzIC01LjE4MDU3IDIuNDYyNzYgLTUuMTgwNTcgMi40NjI3NiAtNS4wNTMwNUMyLjQ2Mjc2IC01LjAyMTE3IDIuNDU0NzkgLTUuMDEzMiAyLjQzMDg4IC00LjkwOTU5TDEuNDE4NjggLTAuODUyODAyQzEuMzIzMDQgLTAuNDU0Mjk2IDEuMTE1ODIgLTAuMjc4OTU0IDAuNTgxODE4IC0wLjI2MzAxNEMwLjUzMzk5OCAtMC4yNjMwMTQgMC40MzgzNTYgLTAuMjU1MDQ0IDAuNDM4MzU2IC0wLjExMTU4MkMwLjQzODM1NiAtMC4wNjM3NjA5IDAuNDc4MjA3IDAgMC41NTc5MDggMEMwLjU4OTc4OCAwIDAuNzczMTAxIC0wLjAyMzkxMDMgMS4zNDY5NSAtMC4wMjM5MTAzQzEuOTc2NTkgLTAuMDIzOTEwMyAyLjA5NjE0IDAgMi4xNjc4NyAwQzIuMTk5NzUgMCAyLjMxOTMgMCAyLjMxOTMgLTAuMTUxNDMyQzIuMzE5MyAtMC4yNDcwNzMgMi4yMzE2MyAtMC4yNjMwMTQgMi4xNzU4NCAtMC4yNjMwMTRDMS44ODg5MiAtMC4yNzA5ODQgMS42NDk4MSAtMC4zMTg4MDQgMS42NDk4MSAtMC41OTc3NThDMS42NDk4MSAtMC42Mzc2MDkgMS42NzM3MiAtMC43NDkxOTEgMS42NzM3MiAtMC43NTcxNjFMMi43NTc2NiAtNS4wODQ5M0gyLjc2NTYzTDMuNTM4NzMgLTAuMjE1MTkzQzMuNTYyNjQgLTAuMDg3NjcxMiAzLjU3MDYxIDAgMy42ODIxOSAwUzMuODQ5NTYgLTAuMDg3NjcxMiAzLjg5NzM4IC0wLjE1OTQwMkw3LjE3MzEgLTUuMTQ4NjlMNy4xODEwNyAtNS4xNDA3Mkw2LjA1NzI5IC0wLjYyOTYzOUM1Ljk4NTU1IC0wLjMyNjc3NSA1Ljk2OTYxIC0wLjI2MzAxNCA1LjM3OTgzIC0wLjI2MzAxNEM1LjIyODM5IC0wLjI2MzAxNCA1LjEzMjc1IC0wLjI2MzAxNCA1LjEzMjc1IC0wLjExMTU4MkM1LjEzMjc1IC0wLjA3OTcwMTEgNS4xNTY2NiAwIDUuMjYwMjcgMFM1LjYwMjk5IC0wLjAxNTk0MDIgNS43MTQ1NyAtMC4wMjM5MTAzSDYuMjI0NjZDNi45NjU4OCAtMC4wMjM5MTAzIDcuMTU3MTYgMCA3LjIxMjk1IDBDNy4yNjA3NyAwIDcuMzcyMzUgMCA3LjM3MjM1IC0wLjE1MTQzMkM3LjM3MjM1IC0wLjI2MzAxNCA3LjI2ODc0IC0wLjI2MzAxNCA3LjEzMzI1IC0wLjI2MzAxNEM3LjEwOTM0IC0wLjI2MzAxNCA2Ljk2NTg4IC0wLjI2MzAxNCA2LjgzMDM5IC0wLjI3ODk1NEM2LjY2MzAxIC0wLjI5NDg5NCA2LjY0NzA3IC0wLjMxODgwNCA2LjY0NzA3IC0wLjM5MDUzNUM2LjY0NzA3IC0wLjQzMDM4NiA2LjY2MzAxIC0wLjQ3ODIwNyA2LjY3MDk4IC0wLjUxODA1N0w3LjczODk4IC00Ljc5ODAxWiIvPiYjeGE7PHBhdGggaWQ9ImcyLTEwMCIgZD0iTTYuMDEzNDUgLTcuOTk4MDFDNi4wMjU0IC04LjA0NTgzIDYuMDQ5MzIgLTguMTE3NTYgNi4wNDkzMiAtOC4xNzczM0M2LjA0OTMyIC04LjI5Njg5IDUuOTI5NzYgLTguMjk2ODkgNS45MDU4NSAtOC4yOTY4OUM1Ljg5MzkgLTguMjk2ODkgNS4zMDgwOSAtOC4yNDkwNyA1LjI0ODMyIC04LjIzNzExQzUuMDQ1MDggLTguMjI1MTYgNC44NjU3NSAtOC4yMDEyNSA0LjY1MDU2IC04LjE4OTI5QzQuMzUxNjggLTguMTY1MzggNC4yNjggLTguMTUzNDIgNC4yNjggLTcuOTM4MjNDNC4yNjggLTcuODE4NjggNC4zNjM2NCAtNy44MTg2OCA0LjUzMTAxIC03LjgxODY4QzUuMTE2ODEgLTcuODE4NjggNS4xMjg3NyAtNy43MTEwOCA1LjEyODc3IC03LjU5MTUzQzUuMTI4NzcgLTcuNTE5OCA1LjEwNDg2IC03LjQyNDE2IDUuMDkyOSAtNy4zODgyOUw0LjM2MzY0IC00LjQ4MzE5QzQuMjMyMTMgLTQuNzk0MDIgMy45MDkzNCAtNS4yNzIyMyAzLjI4NzY3IC01LjI3MjIzQzEuOTM2NzQgLTUuMjcyMjMgMC40NzgyMDcgLTMuNTI2NzcgMC40NzgyMDcgLTEuNzU3NDFDMC40NzgyMDcgLTAuNTczODQ4IDEuMTcxNjEgMC4xMTk1NTIgMS45ODQ1NiAwLjExOTU1MkMyLjY0MjA5IDAuMTE5NTUyIDMuMjAzOTkgLTAuMzk0NTIxIDMuNTM4NzMgLTAuNzg5MDQxQzMuNjU4MjggLTAuMDgzNjg2MiA0LjIyMDE3IDAuMTE5NTUyIDQuNTc4ODMgMC4xMTk1NTJTNS4yMjQ0MSAtMC4wOTU2NDEzIDUuNDM5NiAtMC41MjYwMjdDNS42MzA4OCAtMC45MzI1MDMgNS43OTgyNiAtMS42NjE3NyA1Ljc5ODI2IC0xLjcwOTU5QzUuNzk4MjYgLTEuNzY5MzYgNS43NTA0NCAtMS44MTcxOSA1LjY3ODcgLTEuODE3MTlDNS41NzExMSAtMS44MTcxOSA1LjU1OTE1IC0xLjc1NzQxIDUuNTExMzMgLTEuNTc4MDhDNS4zMzIgLTAuODcyNzI3IDUuMTA0ODYgLTAuMTE5NTUyIDQuNjE0NjkgLTAuMTE5NTUyQzQuMjY4IC0wLjExOTU1MiA0LjI0NDA4IC0wLjQzMDM4NiA0LjI0NDA4IC0wLjY2OTQ4OUM0LjI0NDA4IC0wLjcxNzMxIDQuMjQ0MDggLTAuOTY4MzY5IDQuMzI3NzcgLTEuMzAzMTFMNi4wMTM0NSAtNy45OTgwMVpNMy41OTg1MSAtMS40MjI2N0MzLjUzODczIC0xLjIxOTQzIDMuNTM4NzMgLTEuMTk1NTIgMy4zNzEzNiAtMC45NjgzNjlDMy4xMDgzNCAtMC42MzM2MjQgMi41ODIzMiAtMC4xMTk1NTIgMi4wMjA0MiAtMC4xMTk1NTJDMS41MzAyNiAtMC4xMTk1NTIgMS4yNTUyOSAtMC41NjE4OTMgMS4yNTUyOSAtMS4yNjcyNUMxLjI1NTI5IC0xLjkyNDc4IDEuNjI1OSAtMy4yNjM3NiAxLjg1MzA1IC0zLjc2NTg4QzIuMjU5NTMgLTQuNjAyNzQgMi44MjE0MiAtNS4wMzMxMyAzLjI4NzY3IC01LjAzMzEzQzQuMDc2NzEgLTUuMDMzMTMgNC4yMzIxMyAtNC4wNTI4IDQuMjMyMTMgLTMuOTU3MTZDNC4yMzIxMyAtMy45NDUyMSA0LjE5NjI2IC0zLjc4OTc5IDQuMTg0MzEgLTMuNzY1ODhMMy41OTg1MSAtMS40MjI2N1oiLz4mI3hhOzwvZGVmcz4mI3hhOzxnIHRyYW5zZm9ybT0ibWF0cml4KDEuMjUgMCAwIDEuMjUgMCAwKSIgaWQ9InBhZ2UxIj4mI3hhOzx1c2UgeT0iOTIuMTU0NCIgeGxpbms6aHJlZj0iI2cyLTEwMCIgeD0iMjEwLjQyMyIvPiYjeGE7PHVzZSB5PSI5Mi4xNTQ0IiB4bGluazpocmVmPSIjZzMtNDAiIHg9IjIxNi40ODMiLz4mI3hhOzx1c2UgeT0iOTIuMTU0NCIgeGxpbms6aHJlZj0iI2cwLTEyMCIgeD0iMjIxLjAxOCIvPiYjeGE7PHVzZSB5PSI5Mi4xNTQ0IiB4bGluazpocmVmPSIjZzMtNTkiIHg9IjIyOC44OTciLz4mI3hhOzx1c2UgeT0iOTEuOTg4NCIgeGxpbms6aHJlZj0iI2czLTk0IiB4PSIyMzUuMDEiLz4mI3hhOzx1c2UgeT0iOTIuMTU0NCIgeGxpbms6aHJlZj0iI2cwLTE3IiB4PSIyMzQuMTI5Ii8+JiN4YTs8dXNlIHk9Ijk0Ljk3NzIiIHhsaW5rOmhyZWY9IiNnMS03NyIgeD0iMjQxLjc0NSIvPiYjeGE7PHVzZSB5PSI5Mi4xNTQ0IiB4bGluazpocmVmPSIjZzMtNDEiIHg9IjI1MS4yMjUiLz4mI3hhOzwvZz4mI3hhOzwvc3ZnPg==;" vertex="1" parent="1">
          <mxGeometry x="350" y="315" width="91.7" height="25" as="geometry" />
        </mxCell>
        <mxCell id="8BUV6AUYwXgCQ4tE40Ya-7" value="" style="shape=image;verticalLabelPosition=bottom;labelBackgroundColor=default;verticalAlign=top;aspect=fixed;imageAspect=0;image=data:image/svg+xml,PHN2ZyB4bWxuczp4bGluaz0iaHR0cDovL3d3dy53My5vcmcvMTk5OS94bGluayIgeG1sbnM9Imh0dHA6Ly93d3cudzMub3JnLzIwMDAvc3ZnIiB3aWR0aD0iNDkuMjgycHQiIHZpZXdCb3g9IjI2NS45OTYgMTAzLjk4NSA0OS4yODIgMTQuOTU4OSIgdmVyc2lvbj0iMS4xIiBoZWlnaHQ9IjE0Ljk1ODlwdCI+JiN4YTs8ZGVmcz4mI3hhOzxwYXRoIGlkPSJnMS0xMDAiIGQ9Ik02LjAxMzQ1IC03Ljk5ODAxQzYuMDI1NCAtOC4wNDU4MyA2LjA0OTMyIC04LjExNzU2IDYuMDQ5MzIgLTguMTc3MzNDNi4wNDkzMiAtOC4yOTY4OSA1LjkyOTc2IC04LjI5Njg5IDUuOTA1ODUgLTguMjk2ODlDNS44OTM5IC04LjI5Njg5IDUuMzA4MDkgLTguMjQ5MDcgNS4yNDgzMiAtOC4yMzcxMUM1LjA0NTA4IC04LjIyNTE2IDQuODY1NzUgLTguMjAxMjUgNC42NTA1NiAtOC4xODkyOUM0LjM1MTY4IC04LjE2NTM4IDQuMjY4IC04LjE1MzQyIDQuMjY4IC03LjkzODIzQzQuMjY4IC03LjgxODY4IDQuMzYzNjQgLTcuODE4NjggNC41MzEwMSAtNy44MTg2OEM1LjExNjgxIC03LjgxODY4IDUuMTI4NzcgLTcuNzExMDggNS4xMjg3NyAtNy41OTE1M0M1LjEyODc3IC03LjUxOTggNS4xMDQ4NiAtNy40MjQxNiA1LjA5MjkgLTcuMzg4MjlMNC4zNjM2NCAtNC40ODMxOUM0LjIzMjEzIC00Ljc5NDAyIDMuOTA5MzQgLTUuMjcyMjMgMy4yODc2NyAtNS4yNzIyM0MxLjkzNjc0IC01LjI3MjIzIDAuNDc4MjA3IC0zLjUyNjc3IDAuNDc4MjA3IC0xLjc1NzQxQzAuNDc4MjA3IC0wLjU3Mzg0OCAxLjE3MTYxIDAuMTE5NTUyIDEuOTg0NTYgMC4xMTk1NTJDMi42NDIwOSAwLjExOTU1MiAzLjIwMzk5IC0wLjM5NDUyMSAzLjUzODczIC0wLjc4OTA0MUMzLjY1ODI4IC0wLjA4MzY4NjIgNC4yMjAxNyAwLjExOTU1MiA0LjU3ODgzIDAuMTE5NTUyUzUuMjI0NDEgLTAuMDk1NjQxMyA1LjQzOTYgLTAuNTI2MDI3QzUuNjMwODggLTAuOTMyNTAzIDUuNzk4MjYgLTEuNjYxNzcgNS43OTgyNiAtMS43MDk1OUM1Ljc5ODI2IC0xLjc2OTM2IDUuNzUwNDQgLTEuODE3MTkgNS42Nzg3IC0xLjgxNzE5QzUuNTcxMTEgLTEuODE3MTkgNS41NTkxNSAtMS43NTc0MSA1LjUxMTMzIC0xLjU3ODA4QzUuMzMyIC0wLjg3MjcyNyA1LjEwNDg2IC0wLjExOTU1MiA0LjYxNDY5IC0wLjExOTU1MkM0LjI2OCAtMC4xMTk1NTIgNC4yNDQwOCAtMC40MzAzODYgNC4yNDQwOCAtMC42Njk0ODlDNC4yNDQwOCAtMC43MTczMSA0LjI0NDA4IC0wLjk2ODM2OSA0LjMyNzc3IC0xLjMwMzExTDYuMDEzNDUgLTcuOTk4MDFaTTMuNTk4NTEgLTEuNDIyNjdDMy41Mzg3MyAtMS4yMTk0MyAzLjUzODczIC0xLjE5NTUyIDMuMzcxMzYgLTAuOTY4MzY5QzMuMTA4MzQgLTAuNjMzNjI0IDIuNTgyMzIgLTAuMTE5NTUyIDIuMDIwNDIgLTAuMTE5NTUyQzEuNTMwMjYgLTAuMTE5NTUyIDEuMjU1MjkgLTAuNTYxODkzIDEuMjU1MjkgLTEuMjY3MjVDMS4yNTUyOSAtMS45MjQ3OCAxLjYyNTkgLTMuMjYzNzYgMS44NTMwNSAtMy43NjU4OEMyLjI1OTUzIC00LjYwMjc0IDIuODIxNDIgLTUuMDMzMTMgMy4yODc2NyAtNS4wMzMxM0M0LjA3NjcxIC01LjAzMzEzIDQuMjMyMTMgLTQuMDUyOCA0LjIzMjEzIC0zLjk1NzE2QzQuMjMyMTMgLTMuOTQ1MjEgNC4xOTYyNiAtMy43ODk3OSA0LjE4NDMxIC0zLjc2NTg4TDMuNTk4NTEgLTEuNDIyNjdaIi8+JiN4YTs8cGF0aCBpZD0iZzAtMTciIGQ9Ik03LjAwNTczIC0zLjM0NzQ1QzcuMDY1NSAtMy41NjI2NCA3LjEwMTM3IC0zLjcxODA2IDcuMTAxMzcgLTQuMDE2OTRDNy4xMDEzNyAtNS4xMTY4MSA2LjE4MDgyIC01LjQwMzc0IDUuMzIwMDUgLTUuNDAzNzRDNS4wNjg5OSAtNS40MDM3NCA0LjE5NjI2IC01LjQwMzc0IDMuMzQ3NDUgLTQuNDk1MTRDMy4xODAwNyAtNS4wOTI5IDIuNTIyNTQgLTUuNDAzNzQgMS44NzY5NiAtNS40MDM3NEMxLjQzNDYyIC01LjQwMzc0IDEuMDg3OTIgLTUuMTUyNjggMC44MzY4NjIgLTQuNzIyMjlDMC41Mzc5ODMgLTQuMjQ0MDggMC4zODI1NjUgLTMuNTk4NTEgMC4zODI1NjUgLTMuNTM4NzNDMC4zODI1NjUgLTMuMzcxMzYgMC41NjE4OTMgLTMuMzcxMzYgMC42Njk0ODkgLTMuMzcxMzZDMC44MDA5OTYgLTMuMzcxMzYgMC44NDg4MTcgLTMuMzcxMzYgMC45MDg1OTMgLTMuNDMxMTNDMC45MzI1MDMgLTMuNDU1MDQgMC45MzI1MDMgLTMuNDc4OTUgMS4wMDQyMyAtMy43Nzc4M0MxLjI0MzM0IC00LjczNDI1IDEuNTE4MzEgLTQuOTczMzUgMS44MTcxOSAtNC45NzMzNUMxLjk0ODY5IC00Ljk3MzM1IDIuMDkyMTUgLTQuOTI1NTMgMi4wOTIxNSAtNC41MzEwMUMyLjA5MjE1IC00LjMyNzc3IDIuMDQ0MzMgLTQuMTM2NDkgMS45MjQ3OCAtMy42NTgyOEMxLjg0MTEgLTMuMzIzNTQgMS43MjE1NCAtMi44NDUzMyAxLjY2MTc3IC0yLjU4MjMyTDEuMjMxMzggLTAuOTA4NTkzQzEuMTk1NTIgLTAuNzQxMjIgMS4xMzU3NCAtMC41MTQwNzIgMS4xMzU3NCAtMC40MzAzODZDMS4xMzU3NCAtMC4xNzkzMjggMS4zMjcwMiAwLjA5NTY0MTMgMS42OTc2MyAwLjA5NTY0MTNDMi4zMTkzIDAuMDk1NjQxMyAyLjQ2Mjc2IC0wLjQ1NDI5NiAyLjU0NjQ1IC0wLjgxMjk1MUMyLjY2NiAtMS4yNTUyOSAyLjc2MTY0IC0xLjYzNzg2IDIuODgxMiAtMi4xNTE5M0MyLjkyOTAyIC0yLjMwNzM1IDMuMjI3OSAtMy41Mzg3MyAzLjI1MTgxIC0zLjU3NDZDMy4yNjM3NiAtMy42NDYzMyAzLjU5ODUxIC00LjE4NDMxIDMuOTkzMDMgLTQuNTA3MUM0LjMyNzc3IC00Ljc3MDExIDQuNzIyMjkgLTQuOTczMzUgNS4yMjQ0MSAtNC45NzMzNUM1LjUzNTI0IC00Ljk3MzM1IDUuODIyMTcgLTQuODUzOCA1LjgyMjE3IC00LjI2OEM1LjgyMjE3IC0zLjk2OTEyIDUuNzc0MzUgLTMuODAxNzQgNS43MjY1MyAtMy41ODY1NUw0LjM5OTUgMS42ODU2OEM0LjM1MTY4IDEuODc2OTYgNC4zNTE2OCAxLjk0ODY5IDQuMzUxNjggMS45OTY1MUM0LjM1MTY4IDIuMzc5MDggNC42NjI1MiAyLjUyMjU0IDQuOTEzNTcgMi41MjI1NEM1LjA0NTA4IDIuNTIyNTQgNS41MzUyNCAyLjUxMDU5IDUuNzE0NTcgMS43OTMyOEw3LjAwNTczIC0zLjM0NzQ1WiIvPiYjeGE7PHBhdGggaWQ9ImcwLTEyMCIgZD0iTTYuNDA3OTcgLTQuNzk0MDJDNS45Nzc1OCAtNC42NzQ0NyA1Ljc2MjM5IC00LjI2OCA1Ljc2MjM5IC0zLjk2OTEyQzUuNzYyMzkgLTMuNzA2MSA1Ljk2NTYzIC0zLjQxOTE4IDYuMzYwMTUgLTMuNDE5MThDNi43Nzg1OCAtMy40MTkxOCA3LjIyMDkyIC0zLjc2NTg4IDcuMjIwOTIgLTQuMzUxNjhDNy4yMjA5MiAtNC45ODUzMSA2LjU4NzMgLTUuNDAzNzQgNS44NTgwMyAtNS40MDM3NEM1LjE3NjU5IC01LjQwMzc0IDQuNzM0MjUgLTQuODg5NjYgNC41Nzg4MyAtNC42NzQ0N0M0LjI3OTk1IC01LjE3NjU5IDMuNjEwNDYgLTUuNDAzNzQgMi45MjkwMiAtNS40MDM3NEMxLjQyMjY3IC01LjQwMzc0IDAuNjA5NzE0IC0zLjkzMzI1IDAuNjA5NzE0IC0zLjUzODczQzAuNjA5NzE0IC0zLjM3MTM2IDAuNzg5MDQxIC0zLjM3MTM2IDAuODk2NjM4IC0zLjM3MTM2QzEuMDQwMSAtMy4zNzEzNiAxLjEyMzc5IC0zLjM3MTM2IDEuMTcxNjEgLTMuNTI2NzdDMS41MTgzMSAtNC42MTQ2OSAyLjM3OTA4IC00Ljk3MzM1IDIuODY5MjQgLTQuOTczMzVDMy4zMjM1NCAtNC45NzMzNSAzLjUzODczIC00Ljc1ODE2IDMuNTM4NzMgLTQuMzc1NTlDMy41Mzg3MyAtNC4xNDg0NCAzLjM3MTM2IC0zLjQ5MDkxIDMuMjYzNzYgLTMuMDYwNTJMMi44NTcyOSAtMS40MjI2N0MyLjY3Nzk2IC0wLjY5MzQgMi4yNDc1NyAtMC4zMzQ3NDUgMS44NDExIC0wLjMzNDc0NUMxLjc4MTMyIC0wLjMzNDc0NSAxLjUwNjM1IC0wLjMzNDc0NSAxLjI2NzI1IC0wLjUxNDA3MkMxLjY5NzYzIC0wLjYzMzYyNCAxLjkxMjgzIC0xLjA0MDEgMS45MTI4MyAtMS4zMzg5OEMxLjkxMjgzIC0xLjYwMTk5IDEuNzA5NTkgLTEuODg4OTIgMS4zMTUwNyAtMS44ODg5MkMwLjg5NjYzOCAtMS44ODg5MiAwLjQ1NDI5NiAtMS41NDIyMiAwLjQ1NDI5NiAtMC45NTY0MTNDMC40NTQyOTYgLTAuMzIyNzkgMS4wODc5MiAwLjA5NTY0MTMgMS44MTcxOSAwLjA5NTY0MTNDMi40OTg2MyAwLjA5NTY0MTMgMi45NDA5NyAtMC40MTg0MzEgMy4wOTYzOSAtMC42MzM2MjRDMy4zOTUyNyAtMC4xMzE1MDcgNC4wNjQ3NiAwLjA5NTY0MTMgNC43NDYyIDAuMDk1NjQxM0M2LjI1MjU1IDAuMDk1NjQxMyA3LjA2NTUgLTEuMzc0ODQgNy4wNjU1IC0xLjc2OTM2QzcuMDY1NSAtMS45MzY3NCA2Ljg4NjE4IC0xLjkzNjc0IDYuNzc4NTggLTEuOTM2NzRDNi42MzUxMiAtMS45MzY3NCA2LjU1MTQzIC0xLjkzNjc0IDYuNTAzNjEgLTEuNzgxMzJDNi4xNTY5MSAtMC42OTM0IDUuMjk2MTQgLTAuMzM0NzQ1IDQuODA1OTggLTAuMzM0NzQ1QzQuMzUxNjggLTAuMzM0NzQ1IDQuMTM2NDkgLTAuNTQ5OTM4IDQuMTM2NDkgLTAuOTMyNTAzQzQuMTM2NDkgLTEuMTgzNTYgNC4yOTE5MSAtMS44MTcxOSA0LjM5OTUgLTIuMjU5NTNDNC40ODMxOSAtMi41NzAzNiA0Ljc1ODE2IC0zLjY5NDE1IDQuODE3OTMgLTMuODg1NDNDNC45OTcyNiAtNC42MDI3NCA1LjQxNTY5IC00Ljk3MzM1IDUuODM0MTIgLTQuOTczMzVDNS44OTM5IC00Ljk3MzM1IDYuMTY4ODcgLTQuOTczMzUgNi40MDc5NyAtNC43OTQwMloiLz4mI3hhOzxwYXRoIGlkPSJnMi00OSIgZD0iTTIuNTAyNjIgLTUuMDc2OTZDMi41MDI2MiAtNS4yOTIxNSAyLjQ4NjY3IC01LjMwMDEyIDIuMjcxNDggLTUuMzAwMTJDMS45NDQ3MSAtNC45ODEzMiAxLjUyMjI5IC00Ljc5MDA0IDAuNzY1MTMxIC00Ljc5MDA0Vi00LjUyNzAyQzAuOTgwMzI0IC00LjUyNzAyIDEuNDEwNzEgLTQuNTI3MDIgMS44NzI5OCAtNC43NDIyMlYtMC42NTM1NDlDMS44NzI5OCAtMC4zNTg2NTUgMS44NDkwNyAtMC4yNjMwMTQgMS4wOTE5MSAtMC4yNjMwMTRIMC44MTI5NTFWMEMxLjEzOTczIC0wLjAyMzkxMDMgMS44MjUxNiAtMC4wMjM5MTAzIDIuMTgzODEgLTAuMDIzOTEwM1MzLjIzNTg3IC0wLjAyMzkxMDMgMy41NjI2NCAwVi0wLjI2MzAxNEgzLjI4MzY5QzIuNTI2NTMgLTAuMjYzMDE0IDIuNTAyNjIgLTAuMzU4NjU1IDIuNTAyNjIgLTAuNjUzNTQ5Vi01LjA3Njk2WiIvPiYjeGE7PHBhdGggaWQ9ImczLTQwIiBkPSJNMy44ODU0MyAyLjkwNTExQzMuODg1NDMgMi44NjkyNCAzLjg4NTQzIDIuODQ1MzMgMy42ODIxOSAyLjY0MjA5QzIuNDg2NjcgMS40MzQ2MiAxLjgxNzE5IC0wLjUzNzk4MyAxLjgxNzE5IC0yLjk3Njg0QzEuODE3MTkgLTUuMjk2MTQgMi4zNzkwOCAtNy4yOTI2NSAzLjc2NTg4IC04LjcwMzM2QzMuODg1NDMgLTguODEwOTYgMy44ODU0MyAtOC44MzQ4NyAzLjg4NTQzIC04Ljg3MDczQzMuODg1NDMgLTguOTQyNDcgMy44MjU2NSAtOC45NjYzOCAzLjc3NzgzIC04Ljk2NjM4QzMuNjIyNDIgLTguOTY2MzggMi42NDIwOSAtOC4xMDU2IDIuMDU2MjkgLTYuOTM0QzEuNDQ2NTggLTUuNzI2NTMgMS4xNzE2MSAtNC40NDczMiAxLjE3MTYxIC0yLjk3Njg0QzEuMTcxNjEgLTEuOTEyODMgMS4zMzg5OCAtMC40OTAxNjIgMS45NjA2NSAwLjc4OTA0MUMyLjY2NiAyLjIyMzY2IDMuNjQ2MzMgMy4wMDA3NSAzLjc3NzgzIDMuMDAwNzVDMy44MjU2NSAzLjAwMDc1IDMuODg1NDMgMi45NzY4NCAzLjg4NTQzIDIuOTA1MTFaIi8+JiN4YTs8cGF0aCBpZD0iZzMtNDEiIGQ9Ik0zLjM3MTM2IC0yLjk3Njg0QzMuMzcxMzYgLTMuODg1NDMgMy4yNTE4MSAtNS4zNjc4NyAyLjU4MjMyIC02Ljc1NDY3QzEuODc2OTYgLTguMTg5MjkgMC44OTY2MzggLTguOTY2MzggMC43NjUxMzEgLTguOTY2MzhDMC43MTczMSAtOC45NjYzOCAwLjY1NzUzNCAtOC45NDI0NyAwLjY1NzUzNCAtOC44NzA3M0MwLjY1NzUzNCAtOC44MzQ4NyAwLjY1NzUzNCAtOC44MTA5NiAwLjg2MDc3MiAtOC42MDc3MkMyLjA1NjI5IC03LjQwMDI1IDIuNzI1NzggLTUuNDI3NjUgMi43MjU3OCAtMi45ODg3OUMyLjcyNTc4IC0wLjY2OTQ4OSAyLjE2Mzg5IDEuMzI3MDIgMC43NzcwODYgMi43Mzc3M0MwLjY1NzUzNCAyLjg0NTMzIDAuNjU3NTM0IDIuODY5MjQgMC42NTc1MzQgMi45MDUxMUMwLjY1NzUzNCAyLjk3Njg0IDAuNzE3MzEgMy4wMDA3NSAwLjc2NTEzMSAzLjAwMDc1QzAuOTIwNTQ4IDMuMDAwNzUgMS45MDA4NyAyLjEzOTk4IDIuNDg2NjcgMC45NjgzNjlDMy4wOTYzOSAtMC4yNTEwNTkgMy4zNzEzNiAtMS41NDIyMiAzLjM3MTM2IC0yLjk3Njg0WiIvPiYjeGE7PHBhdGggaWQ9ImczLTU5IiBkPSJNMi4xOTk3NSAtNC41Nzg4M0MyLjE5OTc1IC00LjkwMTYyIDEuOTI0NzggLTUuMTUyNjggMS42MjU5IC01LjE1MjY4QzEuMjc5MiAtNS4xNTI2OCAxLjA0MDEgLTQuODc3NzEgMS4wNDAxIC00LjU3ODgzQzEuMDQwMSAtNC4yMjAxNyAxLjMzODk4IC0zLjk5MzAzIDEuNjEzOTUgLTMuOTkzMDNDMS45MzY3NCAtMy45OTMwMyAyLjE5OTc1IC00LjI0NDA4IDIuMTk5NzUgLTQuNTc4ODNaTTEuOTk2NTEgLTAuMTE5NTUyQzEuOTk2NTEgMC4yOTg4NzkgMS45OTY1MSAxLjE0NzcgMS4yNjcyNSAyLjA0NDMzQzEuMTk1NTIgMi4xMzk5OCAxLjE5NTUyIDIuMTYzODkgMS4xOTU1MiAyLjE4NzhDMS4xOTU1MiAyLjI0NzU3IDEuMjU1MjkgMi4zMDczNSAxLjMxNTA3IDIuMzA3MzVDMS4zOTg3NSAyLjMwNzM1IDIuMjM1NjIgMS40MjI2NyAyLjIzNTYyIDAuMDIzOTEwM0MyLjIzNTYyIC0wLjQxODQzMSAyLjE5OTc1IC0xLjE1OTY1IDEuNjEzOTUgLTEuMTU5NjVDMS4yNjcyNSAtMS4xNTk2NSAxLjA0MDEgLTAuODk2NjM4IDEuMDQwMSAtMC41ODU4MDNDMS4wNDAxIC0wLjI2MzAxNCAxLjI2NzI1IDAgMS42MjU5IDBDMS44NTMwNSAwIDEuOTM2NzQgLTAuMDcxNzMxIDEuOTk2NTEgLTAuMTE5NTUyWiIvPiYjeGE7PHBhdGggaWQ9ImczLTk0IiBkPSJNMi45MjkwMiAtOC4yOTY4OUwxLjM2Mjg5IC02LjY3MDk4TDEuNTU0MTcgLTYuNDkxNjZMMi45MTcwNiAtNy43MjMwNEw0LjI5MTkxIC02LjQ5MTY2TDQuNDgzMTkgLTYuNjcwOThMMi45MjkwMiAtOC4yOTY4OVoiLz4mI3hhOzwvZGVmcz4mI3hhOzxnIHRyYW5zZm9ybT0ibWF0cml4KDEuMjUgMCAwIDEuMjUgMCAwKSIgaWQ9InBhZ2UxIj4mI3hhOzx1c2UgeT0iOTIuMTU0NCIgeGxpbms6aHJlZj0iI2cxLTEwMCIgeD0iMjEyLjc5NyIvPiYjeGE7PHVzZSB5PSI5Mi4xNTQ0IiB4bGluazpocmVmPSIjZzMtNDAiIHg9IjIxOC44NTciLz4mI3hhOzx1c2UgeT0iOTIuMTU0NCIgeGxpbms6aHJlZj0iI2cwLTEyMCIgeD0iMjIzLjM5MiIvPiYjeGE7PHVzZSB5PSI5Mi4xNTQ0IiB4bGluazpocmVmPSIjZzMtNTkiIHg9IjIzMS4yNzEiLz4mI3hhOzx1c2UgeT0iOTEuOTg4NCIgeGxpbms6aHJlZj0iI2czLTk0IiB4PSIyMzcuMzg0Ii8+JiN4YTs8dXNlIHk9IjkyLjE1NDQiIHhsaW5rOmhyZWY9IiNnMC0xNyIgeD0iMjM2LjUwMyIvPiYjeGE7PHVzZSB5PSI5NC45NzcyIiB4bGluazpocmVmPSIjZzItNDkiIHg9IjI0NC4xMTgiLz4mI3hhOzx1c2UgeT0iOTIuMTU0NCIgeGxpbms6aHJlZj0iI2czLTQxIiB4PSIyNDguODUxIi8+JiN4YTs8L2c+JiN4YTs8L3N2Zz4=;" vertex="1" parent="1">
          <mxGeometry x="310" y="215" width="81.66" height="25" as="geometry" />
        </mxCell>
        <mxCell id="8BUV6AUYwXgCQ4tE40Ya-8" value="" style="shape=image;verticalLabelPosition=bottom;labelBackgroundColor=default;verticalAlign=top;aspect=fixed;imageAspect=0;image=data:image/svg+xml,PHN2ZyB4bWxuczp4bGluaz0iaHR0cDovL3d3dy53My5vcmcvMTk5OS94bGluayIgeG1sbnM9Imh0dHA6Ly93d3cudzMub3JnLzIwMDAvc3ZnIiB3aWR0aD0iNDkuMjgycHQiIHZpZXdCb3g9IjI2NS45OTYgMTAzLjk4NSA0OS4yODIgMTQuOTU4OSIgdmVyc2lvbj0iMS4xIiBoZWlnaHQ9IjE0Ljk1ODlwdCI+JiN4YTs8ZGVmcz4mI3hhOzxwYXRoIGlkPSJnMS0xMDAiIGQ9Ik02LjAxMzQ1IC03Ljk5ODAxQzYuMDI1NCAtOC4wNDU4MyA2LjA0OTMyIC04LjExNzU2IDYuMDQ5MzIgLTguMTc3MzNDNi4wNDkzMiAtOC4yOTY4OSA1LjkyOTc2IC04LjI5Njg5IDUuOTA1ODUgLTguMjk2ODlDNS44OTM5IC04LjI5Njg5IDUuMzA4MDkgLTguMjQ5MDcgNS4yNDgzMiAtOC4yMzcxMUM1LjA0NTA4IC04LjIyNTE2IDQuODY1NzUgLTguMjAxMjUgNC42NTA1NiAtOC4xODkyOUM0LjM1MTY4IC04LjE2NTM4IDQuMjY4IC04LjE1MzQyIDQuMjY4IC03LjkzODIzQzQuMjY4IC03LjgxODY4IDQuMzYzNjQgLTcuODE4NjggNC41MzEwMSAtNy44MTg2OEM1LjExNjgxIC03LjgxODY4IDUuMTI4NzcgLTcuNzExMDggNS4xMjg3NyAtNy41OTE1M0M1LjEyODc3IC03LjUxOTggNS4xMDQ4NiAtNy40MjQxNiA1LjA5MjkgLTcuMzg4MjlMNC4zNjM2NCAtNC40ODMxOUM0LjIzMjEzIC00Ljc5NDAyIDMuOTA5MzQgLTUuMjcyMjMgMy4yODc2NyAtNS4yNzIyM0MxLjkzNjc0IC01LjI3MjIzIDAuNDc4MjA3IC0zLjUyNjc3IDAuNDc4MjA3IC0xLjc1NzQxQzAuNDc4MjA3IC0wLjU3Mzg0OCAxLjE3MTYxIDAuMTE5NTUyIDEuOTg0NTYgMC4xMTk1NTJDMi42NDIwOSAwLjExOTU1MiAzLjIwMzk5IC0wLjM5NDUyMSAzLjUzODczIC0wLjc4OTA0MUMzLjY1ODI4IC0wLjA4MzY4NjIgNC4yMjAxNyAwLjExOTU1MiA0LjU3ODgzIDAuMTE5NTUyUzUuMjI0NDEgLTAuMDk1NjQxMyA1LjQzOTYgLTAuNTI2MDI3QzUuNjMwODggLTAuOTMyNTAzIDUuNzk4MjYgLTEuNjYxNzcgNS43OTgyNiAtMS43MDk1OUM1Ljc5ODI2IC0xLjc2OTM2IDUuNzUwNDQgLTEuODE3MTkgNS42Nzg3IC0xLjgxNzE5QzUuNTcxMTEgLTEuODE3MTkgNS41NTkxNSAtMS43NTc0MSA1LjUxMTMzIC0xLjU3ODA4QzUuMzMyIC0wLjg3MjcyNyA1LjEwNDg2IC0wLjExOTU1MiA0LjYxNDY5IC0wLjExOTU1MkM0LjI2OCAtMC4xMTk1NTIgNC4yNDQwOCAtMC40MzAzODYgNC4yNDQwOCAtMC42Njk0ODlDNC4yNDQwOCAtMC43MTczMSA0LjI0NDA4IC0wLjk2ODM2OSA0LjMyNzc3IC0xLjMwMzExTDYuMDEzNDUgLTcuOTk4MDFaTTMuNTk4NTEgLTEuNDIyNjdDMy41Mzg3MyAtMS4yMTk0MyAzLjUzODczIC0xLjE5NTUyIDMuMzcxMzYgLTAuOTY4MzY5QzMuMTA4MzQgLTAuNjMzNjI0IDIuNTgyMzIgLTAuMTE5NTUyIDIuMDIwNDIgLTAuMTE5NTUyQzEuNTMwMjYgLTAuMTE5NTUyIDEuMjU1MjkgLTAuNTYxODkzIDEuMjU1MjkgLTEuMjY3MjVDMS4yNTUyOSAtMS45MjQ3OCAxLjYyNTkgLTMuMjYzNzYgMS44NTMwNSAtMy43NjU4OEMyLjI1OTUzIC00LjYwMjc0IDIuODIxNDIgLTUuMDMzMTMgMy4yODc2NyAtNS4wMzMxM0M0LjA3NjcxIC01LjAzMzEzIDQuMjMyMTMgLTQuMDUyOCA0LjIzMjEzIC0zLjk1NzE2QzQuMjMyMTMgLTMuOTQ1MjEgNC4xOTYyNiAtMy43ODk3OSA0LjE4NDMxIC0zLjc2NTg4TDMuNTk4NTEgLTEuNDIyNjdaIi8+JiN4YTs8cGF0aCBpZD0iZzAtMTciIGQ9Ik03LjAwNTczIC0zLjM0NzQ1QzcuMDY1NSAtMy41NjI2NCA3LjEwMTM3IC0zLjcxODA2IDcuMTAxMzcgLTQuMDE2OTRDNy4xMDEzNyAtNS4xMTY4MSA2LjE4MDgyIC01LjQwMzc0IDUuMzIwMDUgLTUuNDAzNzRDNS4wNjg5OSAtNS40MDM3NCA0LjE5NjI2IC01LjQwMzc0IDMuMzQ3NDUgLTQuNDk1MTRDMy4xODAwNyAtNS4wOTI5IDIuNTIyNTQgLTUuNDAzNzQgMS44NzY5NiAtNS40MDM3NEMxLjQzNDYyIC01LjQwMzc0IDEuMDg3OTIgLTUuMTUyNjggMC44MzY4NjIgLTQuNzIyMjlDMC41Mzc5ODMgLTQuMjQ0MDggMC4zODI1NjUgLTMuNTk4NTEgMC4zODI1NjUgLTMuNTM4NzNDMC4zODI1NjUgLTMuMzcxMzYgMC41NjE4OTMgLTMuMzcxMzYgMC42Njk0ODkgLTMuMzcxMzZDMC44MDA5OTYgLTMuMzcxMzYgMC44NDg4MTcgLTMuMzcxMzYgMC45MDg1OTMgLTMuNDMxMTNDMC45MzI1MDMgLTMuNDU1MDQgMC45MzI1MDMgLTMuNDc4OTUgMS4wMDQyMyAtMy43Nzc4M0MxLjI0MzM0IC00LjczNDI1IDEuNTE4MzEgLTQuOTczMzUgMS44MTcxOSAtNC45NzMzNUMxLjk0ODY5IC00Ljk3MzM1IDIuMDkyMTUgLTQuOTI1NTMgMi4wOTIxNSAtNC41MzEwMUMyLjA5MjE1IC00LjMyNzc3IDIuMDQ0MzMgLTQuMTM2NDkgMS45MjQ3OCAtMy42NTgyOEMxLjg0MTEgLTMuMzIzNTQgMS43MjE1NCAtMi44NDUzMyAxLjY2MTc3IC0yLjU4MjMyTDEuMjMxMzggLTAuOTA4NTkzQzEuMTk1NTIgLTAuNzQxMjIgMS4xMzU3NCAtMC41MTQwNzIgMS4xMzU3NCAtMC40MzAzODZDMS4xMzU3NCAtMC4xNzkzMjggMS4zMjcwMiAwLjA5NTY0MTMgMS42OTc2MyAwLjA5NTY0MTNDMi4zMTkzIDAuMDk1NjQxMyAyLjQ2Mjc2IC0wLjQ1NDI5NiAyLjU0NjQ1IC0wLjgxMjk1MUMyLjY2NiAtMS4yNTUyOSAyLjc2MTY0IC0xLjYzNzg2IDIuODgxMiAtMi4xNTE5M0MyLjkyOTAyIC0yLjMwNzM1IDMuMjI3OSAtMy41Mzg3MyAzLjI1MTgxIC0zLjU3NDZDMy4yNjM3NiAtMy42NDYzMyAzLjU5ODUxIC00LjE4NDMxIDMuOTkzMDMgLTQuNTA3MUM0LjMyNzc3IC00Ljc3MDExIDQuNzIyMjkgLTQuOTczMzUgNS4yMjQ0MSAtNC45NzMzNUM1LjUzNTI0IC00Ljk3MzM1IDUuODIyMTcgLTQuODUzOCA1LjgyMjE3IC00LjI2OEM1LjgyMjE3IC0zLjk2OTEyIDUuNzc0MzUgLTMuODAxNzQgNS43MjY1MyAtMy41ODY1NUw0LjM5OTUgMS42ODU2OEM0LjM1MTY4IDEuODc2OTYgNC4zNTE2OCAxLjk0ODY5IDQuMzUxNjggMS45OTY1MUM0LjM1MTY4IDIuMzc5MDggNC42NjI1MiAyLjUyMjU0IDQuOTEzNTcgMi41MjI1NEM1LjA0NTA4IDIuNTIyNTQgNS41MzUyNCAyLjUxMDU5IDUuNzE0NTcgMS43OTMyOEw3LjAwNTczIC0zLjM0NzQ1WiIvPiYjeGE7PHBhdGggaWQ9ImcwLTEyMCIgZD0iTTYuNDA3OTcgLTQuNzk0MDJDNS45Nzc1OCAtNC42NzQ0NyA1Ljc2MjM5IC00LjI2OCA1Ljc2MjM5IC0zLjk2OTEyQzUuNzYyMzkgLTMuNzA2MSA1Ljk2NTYzIC0zLjQxOTE4IDYuMzYwMTUgLTMuNDE5MThDNi43Nzg1OCAtMy40MTkxOCA3LjIyMDkyIC0zLjc2NTg4IDcuMjIwOTIgLTQuMzUxNjhDNy4yMjA5MiAtNC45ODUzMSA2LjU4NzMgLTUuNDAzNzQgNS44NTgwMyAtNS40MDM3NEM1LjE3NjU5IC01LjQwMzc0IDQuNzM0MjUgLTQuODg5NjYgNC41Nzg4MyAtNC42NzQ0N0M0LjI3OTk1IC01LjE3NjU5IDMuNjEwNDYgLTUuNDAzNzQgMi45MjkwMiAtNS40MDM3NEMxLjQyMjY3IC01LjQwMzc0IDAuNjA5NzE0IC0zLjkzMzI1IDAuNjA5NzE0IC0zLjUzODczQzAuNjA5NzE0IC0zLjM3MTM2IDAuNzg5MDQxIC0zLjM3MTM2IDAuODk2NjM4IC0zLjM3MTM2QzEuMDQwMSAtMy4zNzEzNiAxLjEyMzc5IC0zLjM3MTM2IDEuMTcxNjEgLTMuNTI2NzdDMS41MTgzMSAtNC42MTQ2OSAyLjM3OTA4IC00Ljk3MzM1IDIuODY5MjQgLTQuOTczMzVDMy4zMjM1NCAtNC45NzMzNSAzLjUzODczIC00Ljc1ODE2IDMuNTM4NzMgLTQuMzc1NTlDMy41Mzg3MyAtNC4xNDg0NCAzLjM3MTM2IC0zLjQ5MDkxIDMuMjYzNzYgLTMuMDYwNTJMMi44NTcyOSAtMS40MjI2N0MyLjY3Nzk2IC0wLjY5MzQgMi4yNDc1NyAtMC4zMzQ3NDUgMS44NDExIC0wLjMzNDc0NUMxLjc4MTMyIC0wLjMzNDc0NSAxLjUwNjM1IC0wLjMzNDc0NSAxLjI2NzI1IC0wLjUxNDA3MkMxLjY5NzYzIC0wLjYzMzYyNCAxLjkxMjgzIC0xLjA0MDEgMS45MTI4MyAtMS4zMzg5OEMxLjkxMjgzIC0xLjYwMTk5IDEuNzA5NTkgLTEuODg4OTIgMS4zMTUwNyAtMS44ODg5MkMwLjg5NjYzOCAtMS44ODg5MiAwLjQ1NDI5NiAtMS41NDIyMiAwLjQ1NDI5NiAtMC45NTY0MTNDMC40NTQyOTYgLTAuMzIyNzkgMS4wODc5MiAwLjA5NTY0MTMgMS44MTcxOSAwLjA5NTY0MTNDMi40OTg2MyAwLjA5NTY0MTMgMi45NDA5NyAtMC40MTg0MzEgMy4wOTYzOSAtMC42MzM2MjRDMy4zOTUyNyAtMC4xMzE1MDcgNC4wNjQ3NiAwLjA5NTY0MTMgNC43NDYyIDAuMDk1NjQxM0M2LjI1MjU1IDAuMDk1NjQxMyA3LjA2NTUgLTEuMzc0ODQgNy4wNjU1IC0xLjc2OTM2QzcuMDY1NSAtMS45MzY3NCA2Ljg4NjE4IC0xLjkzNjc0IDYuNzc4NTggLTEuOTM2NzRDNi42MzUxMiAtMS45MzY3NCA2LjU1MTQzIC0xLjkzNjc0IDYuNTAzNjEgLTEuNzgxMzJDNi4xNTY5MSAtMC42OTM0IDUuMjk2MTQgLTAuMzM0NzQ1IDQuODA1OTggLTAuMzM0NzQ1QzQuMzUxNjggLTAuMzM0NzQ1IDQuMTM2NDkgLTAuNTQ5OTM4IDQuMTM2NDkgLTAuOTMyNTAzQzQuMTM2NDkgLTEuMTgzNTYgNC4yOTE5MSAtMS44MTcxOSA0LjM5OTUgLTIuMjU5NTNDNC40ODMxOSAtMi41NzAzNiA0Ljc1ODE2IC0zLjY5NDE1IDQuODE3OTMgLTMuODg1NDNDNC45OTcyNiAtNC42MDI3NCA1LjQxNTY5IC00Ljk3MzM1IDUuODM0MTIgLTQuOTczMzVDNS44OTM5IC00Ljk3MzM1IDYuMTY4ODcgLTQuOTczMzUgNi40MDc5NyAtNC43OTQwMloiLz4mI3hhOzxwYXRoIGlkPSJnMi01MCIgZD0iTTIuMjQ3NTcgLTEuNjI1OUMyLjM3NTA5IC0xLjc0NTQ1IDIuNzA5ODQgLTIuMDA4NDcgMi44MzczNiAtMi4xMjAwNUMzLjMzMTUxIC0yLjU3NDM1IDMuODAxNzQgLTMuMDEyNyAzLjgwMTc0IC0zLjczNzk4QzMuODAxNzQgLTQuNjg2NDMgMy4wMDQ3MyAtNS4zMDAxMiAyLjAwODQ3IC01LjMwMDEyQzEuMDUyMDUgLTUuMzAwMTIgMC40MjI0MTYgLTQuNTc0ODQgMC40MjI0MTYgLTMuODY1NUMwLjQyMjQxNiAtMy40NzQ5NyAwLjczMzI1IC0zLjQxOTE4IDAuODQ0ODMyIC0zLjQxOTE4QzEuMDEyMiAtMy40MTkxOCAxLjI1OTI4IC0zLjUzODczIDEuMjU5MjggLTMuODQxNTlDMS4yNTkyOCAtNC4yNTYwNCAwLjg2MDc3MiAtNC4yNTYwNCAwLjc2NTEzMSAtNC4yNTYwNEMwLjk5NjI2NCAtNC44Mzc4NiAxLjUzMDI2IC01LjAzNzExIDEuOTIwOCAtNS4wMzcxMUMyLjY2MjAyIC01LjAzNzExIDMuMDQ0NTggLTQuNDA3NDcgMy4wNDQ1OCAtMy43Mzc5OEMzLjA0NDU4IC0yLjkwOTA5IDIuNDYyNzYgLTIuMzAzMzYgMS41MjIyOSAtMS4zMzg5OEwwLjUxODA1NyAtMC4zMDI4NjRDMC40MjI0MTYgLTAuMjE1MTkzIDAuNDIyNDE2IC0wLjE5OTI1MyAwLjQyMjQxNiAwSDMuNTcwNjFMMy44MDE3NCAtMS40MjY2NUgzLjU1NDY3QzMuNTMwNzYgLTEuMjY3MjUgMy40NjcgLTAuODY4NzQyIDMuMzcxMzYgLTAuNzE3MzFDMy4zMjM1NCAtMC42NTM1NDkgMi43MTc4MSAtMC42NTM1NDkgMi41OTAyOSAtMC42NTM1NDlIMS4xNzE2MUwyLjI0NzU3IC0xLjYyNTlaIi8+JiN4YTs8cGF0aCBpZD0iZzMtNDAiIGQ9Ik0zLjg4NTQzIDIuOTA1MTFDMy44ODU0MyAyLjg2OTI0IDMuODg1NDMgMi44NDUzMyAzLjY4MjE5IDIuNjQyMDlDMi40ODY2NyAxLjQzNDYyIDEuODE3MTkgLTAuNTM3OTgzIDEuODE3MTkgLTIuOTc2ODRDMS44MTcxOSAtNS4yOTYxNCAyLjM3OTA4IC03LjI5MjY1IDMuNzY1ODggLTguNzAzMzZDMy44ODU0MyAtOC44MTA5NiAzLjg4NTQzIC04LjgzNDg3IDMuODg1NDMgLTguODcwNzNDMy44ODU0MyAtOC45NDI0NyAzLjgyNTY1IC04Ljk2NjM4IDMuNzc3ODMgLTguOTY2MzhDMy42MjI0MiAtOC45NjYzOCAyLjY0MjA5IC04LjEwNTYgMi4wNTYyOSAtNi45MzRDMS40NDY1OCAtNS43MjY1MyAxLjE3MTYxIC00LjQ0NzMyIDEuMTcxNjEgLTIuOTc2ODRDMS4xNzE2MSAtMS45MTI4MyAxLjMzODk4IC0wLjQ5MDE2MiAxLjk2MDY1IDAuNzg5MDQxQzIuNjY2IDIuMjIzNjYgMy42NDYzMyAzLjAwMDc1IDMuNzc3ODMgMy4wMDA3NUMzLjgyNTY1IDMuMDAwNzUgMy44ODU0MyAyLjk3Njg0IDMuODg1NDMgMi45MDUxMVoiLz4mI3hhOzxwYXRoIGlkPSJnMy00MSIgZD0iTTMuMzcxMzYgLTIuOTc2ODRDMy4zNzEzNiAtMy44ODU0MyAzLjI1MTgxIC01LjM2Nzg3IDIuNTgyMzIgLTYuNzU0NjdDMS44NzY5NiAtOC4xODkyOSAwLjg5NjYzOCAtOC45NjYzOCAwLjc2NTEzMSAtOC45NjYzOEMwLjcxNzMxIC04Ljk2NjM4IDAuNjU3NTM0IC04Ljk0MjQ3IDAuNjU3NTM0IC04Ljg3MDczQzAuNjU3NTM0IC04LjgzNDg3IDAuNjU3NTM0IC04LjgxMDk2IDAuODYwNzcyIC04LjYwNzcyQzIuMDU2MjkgLTcuNDAwMjUgMi43MjU3OCAtNS40Mjc2NSAyLjcyNTc4IC0yLjk4ODc5QzIuNzI1NzggLTAuNjY5NDg5IDIuMTYzODkgMS4zMjcwMiAwLjc3NzA4NiAyLjczNzczQzAuNjU3NTM0IDIuODQ1MzMgMC42NTc1MzQgMi44NjkyNCAwLjY1NzUzNCAyLjkwNTExQzAuNjU3NTM0IDIuOTc2ODQgMC43MTczMSAzLjAwMDc1IDAuNzY1MTMxIDMuMDAwNzVDMC45MjA1NDggMy4wMDA3NSAxLjkwMDg3IDIuMTM5OTggMi40ODY2NyAwLjk2ODM2OUMzLjA5NjM5IC0wLjI1MTA1OSAzLjM3MTM2IC0xLjU0MjIyIDMuMzcxMzYgLTIuOTc2ODRaIi8+JiN4YTs8cGF0aCBpZD0iZzMtNTkiIGQ9Ik0yLjE5OTc1IC00LjU3ODgzQzIuMTk5NzUgLTQuOTAxNjIgMS45MjQ3OCAtNS4xNTI2OCAxLjYyNTkgLTUuMTUyNjhDMS4yNzkyIC01LjE1MjY4IDEuMDQwMSAtNC44Nzc3MSAxLjA0MDEgLTQuNTc4ODNDMS4wNDAxIC00LjIyMDE3IDEuMzM4OTggLTMuOTkzMDMgMS42MTM5NSAtMy45OTMwM0MxLjkzNjc0IC0zLjk5MzAzIDIuMTk5NzUgLTQuMjQ0MDggMi4xOTk3NSAtNC41Nzg4M1pNMS45OTY1MSAtMC4xMTk1NTJDMS45OTY1MSAwLjI5ODg3OSAxLjk5NjUxIDEuMTQ3NyAxLjI2NzI1IDIuMDQ0MzNDMS4xOTU1MiAyLjEzOTk4IDEuMTk1NTIgMi4xNjM4OSAxLjE5NTUyIDIuMTg3OEMxLjE5NTUyIDIuMjQ3NTcgMS4yNTUyOSAyLjMwNzM1IDEuMzE1MDcgMi4zMDczNUMxLjM5ODc1IDIuMzA3MzUgMi4yMzU2MiAxLjQyMjY3IDIuMjM1NjIgMC4wMjM5MTAzQzIuMjM1NjIgLTAuNDE4NDMxIDIuMTk5NzUgLTEuMTU5NjUgMS42MTM5NSAtMS4xNTk2NUMxLjI2NzI1IC0xLjE1OTY1IDEuMDQwMSAtMC44OTY2MzggMS4wNDAxIC0wLjU4NTgwM0MxLjA0MDEgLTAuMjYzMDE0IDEuMjY3MjUgMCAxLjYyNTkgMEMxLjg1MzA1IDAgMS45MzY3NCAtMC4wNzE3MzEgMS45OTY1MSAtMC4xMTk1NTJaIi8+JiN4YTs8cGF0aCBpZD0iZzMtOTQiIGQ9Ik0yLjkyOTAyIC04LjI5Njg5TDEuMzYyODkgLTYuNjcwOThMMS41NTQxNyAtNi40OTE2NkwyLjkxNzA2IC03LjcyMzA0TDQuMjkxOTEgLTYuNDkxNjZMNC40ODMxOSAtNi42NzA5OEwyLjkyOTAyIC04LjI5Njg5WiIvPiYjeGE7PC9kZWZzPiYjeGE7PGcgdHJhbnNmb3JtPSJtYXRyaXgoMS4yNSAwIDAgMS4yNSAwIDApIiBpZD0icGFnZTEiPiYjeGE7PHVzZSB5PSI5Mi4xNTQ0IiB4bGluazpocmVmPSIjZzEtMTAwIiB4PSIyMTIuNzk3Ii8+JiN4YTs8dXNlIHk9IjkyLjE1NDQiIHhsaW5rOmhyZWY9IiNnMy00MCIgeD0iMjE4Ljg1NyIvPiYjeGE7PHVzZSB5PSI5Mi4xNTQ0IiB4bGluazpocmVmPSIjZzAtMTIwIiB4PSIyMjMuMzkyIi8+JiN4YTs8dXNlIHk9IjkyLjE1NDQiIHhsaW5rOmhyZWY9IiNnMy01OSIgeD0iMjMxLjI3MSIvPiYjeGE7PHVzZSB5PSI5MS45ODg0IiB4bGluazpocmVmPSIjZzMtOTQiIHg9IjIzNy4zODQiLz4mI3hhOzx1c2UgeT0iOTIuMTU0NCIgeGxpbms6aHJlZj0iI2cwLTE3IiB4PSIyMzYuNTAzIi8+JiN4YTs8dXNlIHk9Ijk0Ljk3NzIiIHhsaW5rOmhyZWY9IiNnMi01MCIgeD0iMjQ0LjExOCIvPiYjeGE7PHVzZSB5PSI5Mi4xNTQ0IiB4bGluazpocmVmPSIjZzMtNDEiIHg9IjI0OC44NTEiLz4mI3hhOzwvZz4mI3hhOzwvc3ZnPg==;" vertex="1" parent="1">
          <mxGeometry x="320" y="240" width="81.67" height="25" as="geometry" />
        </mxCell>
        <mxCell id="8BUV6AUYwXgCQ4tE40Ya-9" value="" style="shape=image;verticalLabelPosition=bottom;labelBackgroundColor=default;verticalAlign=top;aspect=fixed;imageAspect=0;image=data:image/svg+xml,PHN2ZyB4bWxuczp4bGluaz0iaHR0cDovL3d3dy53My5vcmcvMTk5OS94bGluayIgeG1sbnM9Imh0dHA6Ly93d3cudzMub3JnLzIwMDAvc3ZnIiB3aWR0aD0iMTUuODI5N3B0IiB2aWV3Qm94PSIyODIuODIgMTEzLjc0MyAxNS44Mjk3IDEuNDQ5NTYiIHZlcnNpb249IjEuMSIgaGVpZ2h0PSIxLjQ0OTU2cHQiPiYjeGE7PGRlZnM+JiN4YTs8cGF0aCBpZD0iZzAtNTgiIGQ9Ik0yLjE5OTc1IC0wLjU3Mzg0OEMyLjE5OTc1IC0wLjkyMDU0OCAxLjkxMjgzIC0xLjE1OTY1IDEuNjI1OSAtMS4xNTk2NUMxLjI3OTIgLTEuMTU5NjUgMS4wNDAxIC0wLjg3MjcyNyAxLjA0MDEgLTAuNTg1ODAzQzEuMDQwMSAtMC4yMzkxMDMgMS4zMjcwMiAwIDEuNjEzOTUgMEMxLjk2MDY1IDAgMi4xOTk3NSAtMC4yODY5MjQgMi4xOTk3NSAtMC41NzM4NDhaIi8+JiN4YTs8L2RlZnM+JiN4YTs8ZyB0cmFuc2Zvcm09Im1hdHJpeCgxLjI1IDAgMCAxLjI1IDAgMCkiIGlkPSJwYWdlMSI+JiN4YTs8dXNlIHk9IjkyLjE1NDQiIHhsaW5rOmhyZWY9IiNnMC01OCIgeD0iMjI2LjI1NiIvPiYjeGE7PHVzZSB5PSI5Mi4xNTQ0IiB4bGluazpocmVmPSIjZzAtNTgiIHg9IjIzMS40ODgiLz4mI3hhOzx1c2UgeT0iOTIuMTU0NCIgeGxpbms6aHJlZj0iI2cwLTU4IiB4PSIyMzYuNzIiLz4mI3hhOzwvZz4mI3hhOzwvc3ZnPg==;" vertex="1" parent="1">
          <mxGeometry x="359.66" y="303.5" width="32" height="2" as="geometry" />
        </mxCell>
        <mxCell id="8BUV6AUYwXgCQ4tE40Ya-18" value="" style="shape=image;verticalLabelPosition=bottom;labelBackgroundColor=default;verticalAlign=top;aspect=fixed;imageAspect=0;image=data:image/svg+xml,PHN2ZyB4bWxuczp4bGluaz0iaHR0cDovL3d3dy53My5vcmcvMTk5OS94bGluayIgeG1sbnM9Imh0dHA6Ly93d3cudzMub3JnLzIwMDAvc3ZnIiB3aWR0aD0iMzAuNjMxOXB0IiB2aWV3Qm94PSIyNzUuMzQzIDEwMS4zMjcgMzAuNjMxOSAxNy42MTcyIiB2ZXJzaW9uPSIxLjEiIGhlaWdodD0iMTcuNjE3MnB0Ij4mI3hhOzxkZWZzPiYjeGE7PHBhdGggaWQ9ImcyLTQwIiBkPSJNMy44ODU0MyAyLjkwNTExQzMuODg1NDMgMi44NjkyNCAzLjg4NTQzIDIuODQ1MzMgMy42ODIxOSAyLjY0MjA5QzIuNDg2NjcgMS40MzQ2MiAxLjgxNzE5IC0wLjUzNzk4MyAxLjgxNzE5IC0yLjk3Njg0QzEuODE3MTkgLTUuMjk2MTQgMi4zNzkwOCAtNy4yOTI2NSAzLjc2NTg4IC04LjcwMzM2QzMuODg1NDMgLTguODEwOTYgMy44ODU0MyAtOC44MzQ4NyAzLjg4NTQzIC04Ljg3MDczQzMuODg1NDMgLTguOTQyNDcgMy44MjU2NSAtOC45NjYzOCAzLjc3NzgzIC04Ljk2NjM4QzMuNjIyNDIgLTguOTY2MzggMi42NDIwOSAtOC4xMDU2IDIuMDU2MjkgLTYuOTM0QzEuNDQ2NTggLTUuNzI2NTMgMS4xNzE2MSAtNC40NDczMiAxLjE3MTYxIC0yLjk3Njg0QzEuMTcxNjEgLTEuOTEyODMgMS4zMzg5OCAtMC40OTAxNjIgMS45NjA2NSAwLjc4OTA0MUMyLjY2NiAyLjIyMzY2IDMuNjQ2MzMgMy4wMDA3NSAzLjc3NzgzIDMuMDAwNzVDMy44MjU2NSAzLjAwMDc1IDMuODg1NDMgMi45NzY4NCAzLjg4NTQzIDIuOTA1MTFaIi8+JiN4YTs8cGF0aCBpZD0iZzItNDEiIGQ9Ik0zLjM3MTM2IC0yLjk3Njg0QzMuMzcxMzYgLTMuODg1NDMgMy4yNTE4MSAtNS4zNjc4NyAyLjU4MjMyIC02Ljc1NDY3QzEuODc2OTYgLTguMTg5MjkgMC44OTY2MzggLTguOTY2MzggMC43NjUxMzEgLTguOTY2MzhDMC43MTczMSAtOC45NjYzOCAwLjY1NzUzNCAtOC45NDI0NyAwLjY1NzUzNCAtOC44NzA3M0MwLjY1NzUzNCAtOC44MzQ4NyAwLjY1NzUzNCAtOC44MTA5NiAwLjg2MDc3MiAtOC42MDc3MkMyLjA1NjI5IC03LjQwMDI1IDIuNzI1NzggLTUuNDI3NjUgMi43MjU3OCAtMi45ODg3OUMyLjcyNTc4IC0wLjY2OTQ4OSAyLjE2Mzg5IDEuMzI3MDIgMC43NzcwODYgMi43Mzc3M0MwLjY1NzUzNCAyLjg0NTMzIDAuNjU3NTM0IDIuODY5MjQgMC42NTc1MzQgMi45MDUxMUMwLjY1NzUzNCAyLjk3Njg0IDAuNzE3MzEgMy4wMDA3NSAwLjc2NTEzMSAzLjAwMDc1QzAuOTIwNTQ4IDMuMDAwNzUgMS45MDA4NyAyLjEzOTk4IDIuNDg2NjcgMC45NjgzNjlDMy4wOTYzOSAtMC4yNTEwNTkgMy4zNzEzNiAtMS41NDIyMiAzLjM3MTM2IC0yLjk3Njg0WiIvPiYjeGE7PHBhdGggaWQ9ImcyLTk0IiBkPSJNMi45MjkwMiAtOC4yOTY4OUwxLjM2Mjg5IC02LjY3MDk4TDEuNTU0MTcgLTYuNDkxNjZMMi45MTcwNiAtNy43MjMwNEw0LjI5MTkxIC02LjQ5MTY2TDQuNDgzMTkgLTYuNjcwOThMMi45MjkwMiAtOC4yOTY4OVoiLz4mI3hhOzxwYXRoIGlkPSJnMi0xMjYiIGQ9Ik00LjY5ODM4IC03LjkzODIzQzQuMzUxNjggLTcuNTkxNTMgNC4xMDA2MiAtNy4zNTI0MyAzLjcxODA2IC03LjM1MjQzQzMuNTM4NzMgLTcuMzUyNDMgMy4zNzEzNiAtNy4zODgyOSAzLjAwMDc1IC03LjYzOTM1QzIuNzYxNjQgLTcuNzgyODEgMi41MjI1NCAtNy45MzgyMyAyLjI0NzU3IC03LjkzODIzQzEuODA1MjMgLTcuOTM4MjMgMS41NDIyMiAtNy42MzkzNSAwLjk4MDMyNCAtNy4wMTc2OEwxLjE0NzcgLTYuODUwMzFDMS40OTQ0IC03LjE5NzAxIDEuNzQ1NDUgLTcuNDM2MTEgMi4xMjgwMiAtNy40MzYxMUMyLjMwNzM1IC03LjQzNjExIDIuNDc0NzIgLTcuNDAwMjUgMi44NDUzMyAtNy4xNDkxOUMzLjA4NDQzIC03LjAwNTczIDMuMzIzNTQgLTYuODUwMzEgMy41OTg1MSAtNi44NTAzMUM0LjA0MDg1IC02Ljg1MDMxIDQuMzAzODYgLTcuMTQ5MTkgNC44NjU3NSAtNy43NzA4Nkw0LjY5ODM4IC03LjkzODIzWiIvPiYjeGE7PHBhdGggaWQ9ImcwLTIzIiBkPSJNMi42MzAxNCAtNS4xNTI2OEMyLjYzMDE0IC01LjIwMDUgMi41OTQyNyAtNS4yNzIyMyAyLjQ5ODYzIC01LjI3MjIzQzIuNDE0OTQgLTUuMjcyMjMgMS4yOTExNiAtNS4xNjQ2MyAxLjExMTgzIC01LjE1MjY4QzAuOTgwMzI0IC01LjE0MDcyIDAuODYwNzcyIC01LjEyODc3IDAuODYwNzcyIC00LjkxMzU3QzAuODYwNzcyIC00Ljc5NDAyIDAuOTU2NDEzIC00Ljc5NDAyIDEuMTIzNzkgLTQuNzk0MDJDMS42ODU2OCAtNC43OTQwMiAxLjcyMTU0IC00LjcxMDM0IDEuNzIxNTQgLTQuNTc4ODNDMS43MjE1NCAtNC41MzEwMSAxLjY5NzYzIC00LjM4NzU1IDEuNjg1NjggLTQuMzM5NzNMMC42MzM2MjQgLTAuMTE5NTUyQzAuNjMzNjI0IC0wLjA3MTczMSAwLjY2OTQ4OSAwIDAuNzUzMTc2IDBIMS4wMDQyM0MxLjE3MTYxIDAgMi45ODg3OSAtMC40MzAzODYgNC4zODc1NSAtMS44NjUwMUM1LjkyOTc2IC0zLjQ1NTA0IDYuMTQ0OTYgLTQuOTI1NTMgNi4xNDQ5NiAtNC45NzMzNUM2LjE0NDk2IC01LjE2NDYzIDUuOTg5NTQgLTUuMjcyMjMgNS44MzQxMiAtNS4yNzIyM0M1LjQ4NzQyIC01LjI3MjIzIDUuNDAzNzQgLTQuOTQ5NDQgNS4zNzk4MyAtNC44NjU3NUM0LjY3NDQ3IC0yLjM2NzEyIDMuMDM2NjEgLTAuODg0NjgyIDEuNDQ2NTggLTAuMzU4NjU1TDIuNjMwMTQgLTUuMTUyNjhaIi8+JiN4YTs8cGF0aCBpZD0iZzAtMTAwIiBkPSJNNi4wMTM0NSAtNy45OTgwMUM2LjAyNTQgLTguMDQ1ODMgNi4wNDkzMiAtOC4xMTc1NiA2LjA0OTMyIC04LjE3NzMzQzYuMDQ5MzIgLTguMjk2ODkgNS45Mjk3NiAtOC4yOTY4OSA1LjkwNTg1IC04LjI5Njg5QzUuODkzOSAtOC4yOTY4OSA1LjMwODA5IC04LjI0OTA3IDUuMjQ4MzIgLTguMjM3MTFDNS4wNDUwOCAtOC4yMjUxNiA0Ljg2NTc1IC04LjIwMTI1IDQuNjUwNTYgLTguMTg5MjlDNC4zNTE2OCAtOC4xNjUzOCA0LjI2OCAtOC4xNTM0MiA0LjI2OCAtNy45MzgyM0M0LjI2OCAtNy44MTg2OCA0LjM2MzY0IC03LjgxODY4IDQuNTMxMDEgLTcuODE4NjhDNS4xMTY4MSAtNy44MTg2OCA1LjEyODc3IC03LjcxMTA4IDUuMTI4NzcgLTcuNTkxNTNDNS4xMjg3NyAtNy41MTk4IDUuMTA0ODYgLTcuNDI0MTYgNS4wOTI5IC03LjM4ODI5TDQuMzYzNjQgLTQuNDgzMTlDNC4yMzIxMyAtNC43OTQwMiAzLjkwOTM0IC01LjI3MjIzIDMuMjg3NjcgLTUuMjcyMjNDMS45MzY3NCAtNS4yNzIyMyAwLjQ3ODIwNyAtMy41MjY3NyAwLjQ3ODIwNyAtMS43NTc0MUMwLjQ3ODIwNyAtMC41NzM4NDggMS4xNzE2MSAwLjExOTU1MiAxLjk4NDU2IDAuMTE5NTUyQzIuNjQyMDkgMC4xMTk1NTIgMy4yMDM5OSAtMC4zOTQ1MjEgMy41Mzg3MyAtMC43ODkwNDFDMy42NTgyOCAtMC4wODM2ODYyIDQuMjIwMTcgMC4xMTk1NTIgNC41Nzg4MyAwLjExOTU1MlM1LjIyNDQxIC0wLjA5NTY0MTMgNS40Mzk2IC0wLjUyNjAyN0M1LjYzMDg4IC0wLjkzMjUwMyA1Ljc5ODI2IC0xLjY2MTc3IDUuNzk4MjYgLTEuNzA5NTlDNS43OTgyNiAtMS43NjkzNiA1Ljc1MDQ0IC0xLjgxNzE5IDUuNjc4NyAtMS44MTcxOUM1LjU3MTExIC0xLjgxNzE5IDUuNTU5MTUgLTEuNzU3NDEgNS41MTEzMyAtMS41NzgwOEM1LjMzMiAtMC44NzI3MjcgNS4xMDQ4NiAtMC4xMTk1NTIgNC42MTQ2OSAtMC4xMTk1NTJDNC4yNjggLTAuMTE5NTUyIDQuMjQ0MDggLTAuNDMwMzg2IDQuMjQ0MDggLTAuNjY5NDg5QzQuMjQ0MDggLTAuNzE3MzEgNC4yNDQwOCAtMC45NjgzNjkgNC4zMjc3NyAtMS4zMDMxMUw2LjAxMzQ1IC03Ljk5ODAxWk0zLjU5ODUxIC0xLjQyMjY3QzMuNTM4NzMgLTEuMjE5NDMgMy41Mzg3MyAtMS4xOTU1MiAzLjM3MTM2IC0wLjk2ODM2OUMzLjEwODM0IC0wLjYzMzYyNCAyLjU4MjMyIC0wLjExOTU1MiAyLjAyMDQyIC0wLjExOTU1MkMxLjUzMDI2IC0wLjExOTU1MiAxLjI1NTI5IC0wLjU2MTg5MyAxLjI1NTI5IC0xLjI2NzI1QzEuMjU1MjkgLTEuOTI0NzggMS42MjU5IC0zLjI2Mzc2IDEuODUzMDUgLTMuNzY1ODhDMi4yNTk1MyAtNC42MDI3NCAyLjgyMTQyIC01LjAzMzEzIDMuMjg3NjcgLTUuMDMzMTNDNC4wNzY3MSAtNS4wMzMxMyA0LjIzMjEzIC00LjA1MjggNC4yMzIxMyAtMy45NTcxNkM0LjIzMjEzIC0zLjk0NTIxIDQuMTk2MjYgLTMuNzg5NzkgNC4xODQzMSAtMy43NjU4OEwzLjU5ODUxIC0xLjQyMjY3WiIvPiYjeGE7PHBhdGggaWQ9ImcxLTUxIiBkPSJNMi4wMTY0NCAtMi42NjIwMkMyLjY0NjA4IC0yLjY2MjAyIDMuMDQ0NTggLTIuMTk5NzUgMy4wNDQ1OCAtMS4zNjI4OUMzLjA0NDU4IC0wLjM2NjYyNSAyLjQ3ODcgLTAuMDcxNzMxIDIuMDU2MjkgLTAuMDcxNzMxQzEuNjE3OTMgLTAuMDcxNzMxIDEuMDIwMTcgLTAuMjMxMTMzIDAuNzQxMjIgLTAuNjUzNTQ5QzEuMDI4MTQgLTAuNjUzNTQ5IDEuMjI3NCAtMC44MzY4NjIgMS4yMjc0IC0xLjA5OTg4QzEuMjI3NCAtMS4zNTQ5MiAxLjA0NDA4IC0xLjUzODIzIDAuNzg5MDQxIC0xLjUzODIzQzAuNTczODQ4IC0xLjUzODIzIDAuMzUwNjg1IC0xLjQwMjc0IDAuMzUwNjg1IC0xLjA4Mzk0QzAuMzUwNjg1IC0wLjMyNjc3NSAxLjE2MzY0IDAuMTY3MzcyIDIuMDcyMjMgMC4xNjczNzJDMy4xMzIyNSAwLjE2NzM3MiAzLjg3MzQ3IC0wLjU2NTg3OCAzLjg3MzQ3IC0xLjM2Mjg5QzMuODczNDcgLTIuMDI0NDEgMy4zNDc0NSAtMi42MzAxNCAyLjUzNDUgLTIuODA1NDhDMy4xNjQxMyAtMy4wMjg2NCAzLjYzNDM3IC0zLjU3MDYxIDMuNjM0MzcgLTQuMjA4MjJTMi45MTcwNiAtNS4zMDAxMiAyLjA4ODE3IC01LjMwMDEyQzEuMjM1MzcgLTUuMzAwMTIgMC41ODk3ODggLTQuODM3ODYgMC41ODk3ODggLTQuMjMyMTNDMC41ODk3ODggLTMuOTM3MjQgMC43ODkwNDEgLTMuODA5NzEgMC45OTYyNjQgLTMuODA5NzFDMS4yNDMzNCAtMy44MDk3MSAxLjQwMjc0IC0zLjk4NTA2IDEuNDAyNzQgLTQuMjE2MTlDMS40MDI3NCAtNC41MTEwOCAxLjE0NzcgLTQuNjIyNjcgMC45NzIzNTQgLTQuNjMwNjRDMS4zMDcxIC01LjA2ODk5IDEuOTIwOCAtNS4wOTI5IDIuMDY0MjYgLTUuMDkyOUMyLjI3MTQ4IC01LjA5MjkgMi44NzcyMSAtNS4wMjkxNCAyLjg3NzIxIC00LjIwODIyQzIuODc3MjEgLTMuNjUwMzEgMi42NDYwOCAtMy4zMTU1NyAyLjUzNDUgLTMuMTg4MDRDMi4yOTUzOSAtMi45NDA5NyAyLjExMjA4IC0yLjkyNTAzIDEuNjI1OSAtMi44OTMxNUMxLjQ3NDQ3IC0yLjg4NTE4IDEuNDEwNzEgLTIuODc3MjEgMS40MTA3MSAtMi43NzM2QzEuNDEwNzEgLTIuNjYyMDIgMS40ODI0NCAtMi42NjIwMiAxLjYxNzkzIC0yLjY2MjAySDIuMDE2NDRaIi8+JiN4YTs8L2RlZnM+JiN4YTs8ZyB0cmFuc2Zvcm09Im1hdHJpeCgxLjI1IDAgMCAxLjI1IDAgMCkiIGlkPSJwYWdlMSI+JiN4YTs8dXNlIHk9IjkyLjE1NDQiIHhsaW5rOmhyZWY9IiNnMi05NCIgeD0iMjIwLjk0MiIvPiYjeGE7PHVzZSB5PSI5Mi4xNTQ0IiB4bGluazpocmVmPSIjZzAtMjMiIHg9IjIyMC4yNzQiLz4mI3hhOzx1c2UgeT0iOTMuOTQ3NyIgeGxpbms6aHJlZj0iI2cxLTUxIiB4PSIyMjYuMDM2Ii8+JiN4YTs8dXNlIHk9IjkyLjE1NDQiIHhsaW5rOmhyZWY9IiNnMi00MCIgeD0iMjMwLjc5Ii8+JiN4YTs8dXNlIHk9Ijg4Ljk5OTYiIHhsaW5rOmhyZWY9IiNnMi0xMjYiIHg9IjIzNy4zOTEiLz4mI3hhOzx1c2UgeT0iOTIuMTU0NCIgeGxpbms6aHJlZj0iI2cwLTEwMCIgeD0iMjM1LjMyNSIvPiYjeGE7PHVzZSB5PSI5Mi4xNTQ0IiB4bGluazpocmVmPSIjZzItNDEiIHg9IjI0MS40MDgiLz4mI3hhOzwvZz4mI3hhOzwvc3ZnPg==;" vertex="1" parent="1">
          <mxGeometry x="630" y="265" width="43.04" height="25" as="geometry" />
        </mxCell>
        <mxCell id="8BUV6AUYwXgCQ4tE40Ya-19" value="" style="shape=image;verticalLabelPosition=bottom;labelBackgroundColor=default;verticalAlign=top;aspect=fixed;imageAspect=0;image=data:image/svg+xml,PHN2ZyB4bWxuczp4bGluaz0iaHR0cDovL3d3dy53My5vcmcvMTk5OS94bGluayIgeG1sbnM9Imh0dHA6Ly93d3cudzMub3JnLzIwMDAvc3ZnIiB3aWR0aD0iMzYuNTY2M3B0IiB2aWV3Qm94PSIyNzIuMzc1IDEwMS4zMjcgMzYuNTY2MyAxNy42MTcyIiB2ZXJzaW9uPSIxLjEiIGhlaWdodD0iMTcuNjE3MnB0Ij4mI3hhOzxkZWZzPiYjeGE7PHBhdGggaWQ9ImcxLTIzIiBkPSJNMi42MzAxNCAtNS4xNTI2OEMyLjYzMDE0IC01LjIwMDUgMi41OTQyNyAtNS4yNzIyMyAyLjQ5ODYzIC01LjI3MjIzQzIuNDE0OTQgLTUuMjcyMjMgMS4yOTExNiAtNS4xNjQ2MyAxLjExMTgzIC01LjE1MjY4QzAuOTgwMzI0IC01LjE0MDcyIDAuODYwNzcyIC01LjEyODc3IDAuODYwNzcyIC00LjkxMzU3QzAuODYwNzcyIC00Ljc5NDAyIDAuOTU2NDEzIC00Ljc5NDAyIDEuMTIzNzkgLTQuNzk0MDJDMS42ODU2OCAtNC43OTQwMiAxLjcyMTU0IC00LjcxMDM0IDEuNzIxNTQgLTQuNTc4ODNDMS43MjE1NCAtNC41MzEwMSAxLjY5NzYzIC00LjM4NzU1IDEuNjg1NjggLTQuMzM5NzNMMC42MzM2MjQgLTAuMTE5NTUyQzAuNjMzNjI0IC0wLjA3MTczMSAwLjY2OTQ4OSAwIDAuNzUzMTc2IDBIMS4wMDQyM0MxLjE3MTYxIDAgMi45ODg3OSAtMC40MzAzODYgNC4zODc1NSAtMS44NjUwMUM1LjkyOTc2IC0zLjQ1NTA0IDYuMTQ0OTYgLTQuOTI1NTMgNi4xNDQ5NiAtNC45NzMzNUM2LjE0NDk2IC01LjE2NDYzIDUuOTg5NTQgLTUuMjcyMjMgNS44MzQxMiAtNS4yNzIyM0M1LjQ4NzQyIC01LjI3MjIzIDUuNDAzNzQgLTQuOTQ5NDQgNS4zNzk4MyAtNC44NjU3NUM0LjY3NDQ3IC0yLjM2NzEyIDMuMDM2NjEgLTAuODg0NjgyIDEuNDQ2NTggLTAuMzU4NjU1TDIuNjMwMTQgLTUuMTUyNjhaIi8+JiN4YTs8cGF0aCBpZD0iZzEtMTAwIiBkPSJNNi4wMTM0NSAtNy45OTgwMUM2LjAyNTQgLTguMDQ1ODMgNi4wNDkzMiAtOC4xMTc1NiA2LjA0OTMyIC04LjE3NzMzQzYuMDQ5MzIgLTguMjk2ODkgNS45Mjk3NiAtOC4yOTY4OSA1LjkwNTg1IC04LjI5Njg5QzUuODkzOSAtOC4yOTY4OSA1LjMwODA5IC04LjI0OTA3IDUuMjQ4MzIgLTguMjM3MTFDNS4wNDUwOCAtOC4yMjUxNiA0Ljg2NTc1IC04LjIwMTI1IDQuNjUwNTYgLTguMTg5MjlDNC4zNTE2OCAtOC4xNjUzOCA0LjI2OCAtOC4xNTM0MiA0LjI2OCAtNy45MzgyM0M0LjI2OCAtNy44MTg2OCA0LjM2MzY0IC03LjgxODY4IDQuNTMxMDEgLTcuODE4NjhDNS4xMTY4MSAtNy44MTg2OCA1LjEyODc3IC03LjcxMTA4IDUuMTI4NzcgLTcuNTkxNTNDNS4xMjg3NyAtNy41MTk4IDUuMTA0ODYgLTcuNDI0MTYgNS4wOTI5IC03LjM4ODI5TDQuMzYzNjQgLTQuNDgzMTlDNC4yMzIxMyAtNC43OTQwMiAzLjkwOTM0IC01LjI3MjIzIDMuMjg3NjcgLTUuMjcyMjNDMS45MzY3NCAtNS4yNzIyMyAwLjQ3ODIwNyAtMy41MjY3NyAwLjQ3ODIwNyAtMS43NTc0MUMwLjQ3ODIwNyAtMC41NzM4NDggMS4xNzE2MSAwLjExOTU1MiAxLjk4NDU2IDAuMTE5NTUyQzIuNjQyMDkgMC4xMTk1NTIgMy4yMDM5OSAtMC4zOTQ1MjEgMy41Mzg3MyAtMC43ODkwNDFDMy42NTgyOCAtMC4wODM2ODYyIDQuMjIwMTcgMC4xMTk1NTIgNC41Nzg4MyAwLjExOTU1MlM1LjIyNDQxIC0wLjA5NTY0MTMgNS40Mzk2IC0wLjUyNjAyN0M1LjYzMDg4IC0wLjkzMjUwMyA1Ljc5ODI2IC0xLjY2MTc3IDUuNzk4MjYgLTEuNzA5NTlDNS43OTgyNiAtMS43NjkzNiA1Ljc1MDQ0IC0xLjgxNzE5IDUuNjc4NyAtMS44MTcxOUM1LjU3MTExIC0xLjgxNzE5IDUuNTU5MTUgLTEuNzU3NDEgNS41MTEzMyAtMS41NzgwOEM1LjMzMiAtMC44NzI3MjcgNS4xMDQ4NiAtMC4xMTk1NTIgNC42MTQ2OSAtMC4xMTk1NTJDNC4yNjggLTAuMTE5NTUyIDQuMjQ0MDggLTAuNDMwMzg2IDQuMjQ0MDggLTAuNjY5NDg5QzQuMjQ0MDggLTAuNzE3MzEgNC4yNDQwOCAtMC45NjgzNjkgNC4zMjc3NyAtMS4zMDMxMUw2LjAxMzQ1IC03Ljk5ODAxWk0zLjU5ODUxIC0xLjQyMjY3QzMuNTM4NzMgLTEuMjE5NDMgMy41Mzg3MyAtMS4xOTU1MiAzLjM3MTM2IC0wLjk2ODM2OUMzLjEwODM0IC0wLjYzMzYyNCAyLjU4MjMyIC0wLjExOTU1MiAyLjAyMDQyIC0wLjExOTU1MkMxLjUzMDI2IC0wLjExOTU1MiAxLjI1NTI5IC0wLjU2MTg5MyAxLjI1NTI5IC0xLjI2NzI1QzEuMjU1MjkgLTEuOTI0NzggMS42MjU5IC0zLjI2Mzc2IDEuODUzMDUgLTMuNzY1ODhDMi4yNTk1MyAtNC42MDI3NCAyLjgyMTQyIC01LjAzMzEzIDMuMjg3NjcgLTUuMDMzMTNDNC4wNzY3MSAtNS4wMzMxMyA0LjIzMjEzIC00LjA1MjggNC4yMzIxMyAtMy45NTcxNkM0LjIzMjEzIC0zLjk0NTIxIDQuMTk2MjYgLTMuNzg5NzkgNC4xODQzMSAtMy43NjU4OEwzLjU5ODUxIC0xLjQyMjY3WiIvPiYjeGE7PHBhdGggaWQ9ImcyLTQwIiBkPSJNMy44ODU0MyAyLjkwNTExQzMuODg1NDMgMi44NjkyNCAzLjg4NTQzIDIuODQ1MzMgMy42ODIxOSAyLjY0MjA5QzIuNDg2NjcgMS40MzQ2MiAxLjgxNzE5IC0wLjUzNzk4MyAxLjgxNzE5IC0yLjk3Njg0QzEuODE3MTkgLTUuMjk2MTQgMi4zNzkwOCAtNy4yOTI2NSAzLjc2NTg4IC04LjcwMzM2QzMuODg1NDMgLTguODEwOTYgMy44ODU0MyAtOC44MzQ4NyAzLjg4NTQzIC04Ljg3MDczQzMuODg1NDMgLTguOTQyNDcgMy44MjU2NSAtOC45NjYzOCAzLjc3NzgzIC04Ljk2NjM4QzMuNjIyNDIgLTguOTY2MzggMi42NDIwOSAtOC4xMDU2IDIuMDU2MjkgLTYuOTM0QzEuNDQ2NTggLTUuNzI2NTMgMS4xNzE2MSAtNC40NDczMiAxLjE3MTYxIC0yLjk3Njg0QzEuMTcxNjEgLTEuOTEyODMgMS4zMzg5OCAtMC40OTAxNjIgMS45NjA2NSAwLjc4OTA0MUMyLjY2NiAyLjIyMzY2IDMuNjQ2MzMgMy4wMDA3NSAzLjc3NzgzIDMuMDAwNzVDMy44MjU2NSAzLjAwMDc1IDMuODg1NDMgMi45NzY4NCAzLjg4NTQzIDIuOTA1MTFaIi8+JiN4YTs8cGF0aCBpZD0iZzItNDEiIGQ9Ik0zLjM3MTM2IC0yLjk3Njg0QzMuMzcxMzYgLTMuODg1NDMgMy4yNTE4MSAtNS4zNjc4NyAyLjU4MjMyIC02Ljc1NDY3QzEuODc2OTYgLTguMTg5MjkgMC44OTY2MzggLTguOTY2MzggMC43NjUxMzEgLTguOTY2MzhDMC43MTczMSAtOC45NjYzOCAwLjY1NzUzNCAtOC45NDI0NyAwLjY1NzUzNCAtOC44NzA3M0MwLjY1NzUzNCAtOC44MzQ4NyAwLjY1NzUzNCAtOC44MTA5NiAwLjg2MDc3MiAtOC42MDc3MkMyLjA1NjI5IC03LjQwMDI1IDIuNzI1NzggLTUuNDI3NjUgMi43MjU3OCAtMi45ODg3OUMyLjcyNTc4IC0wLjY2OTQ4OSAyLjE2Mzg5IDEuMzI3MDIgMC43NzcwODYgMi43Mzc3M0MwLjY1NzUzNCAyLjg0NTMzIDAuNjU3NTM0IDIuODY5MjQgMC42NTc1MzQgMi45MDUxMUMwLjY1NzUzNCAyLjk3Njg0IDAuNzE3MzEgMy4wMDA3NSAwLjc2NTEzMSAzLjAwMDc1QzAuOTIwNTQ4IDMuMDAwNzUgMS45MDA4NyAyLjEzOTk4IDIuNDg2NjcgMC45NjgzNjlDMy4wOTYzOSAtMC4yNTEwNTkgMy4zNzEzNiAtMS41NDIyMiAzLjM3MTM2IC0yLjk3Njg0WiIvPiYjeGE7PHBhdGggaWQ9ImcyLTk0IiBkPSJNMi45MjkwMiAtOC4yOTY4OUwxLjM2Mjg5IC02LjY3MDk4TDEuNTU0MTcgLTYuNDkxNjZMMi45MTcwNiAtNy43MjMwNEw0LjI5MTkxIC02LjQ5MTY2TDQuNDgzMTkgLTYuNjcwOThMMi45MjkwMiAtOC4yOTY4OVoiLz4mI3hhOzxwYXRoIGlkPSJnMi0xMjYiIGQ9Ik00LjY5ODM4IC03LjkzODIzQzQuMzUxNjggLTcuNTkxNTMgNC4xMDA2MiAtNy4zNTI0MyAzLjcxODA2IC03LjM1MjQzQzMuNTM4NzMgLTcuMzUyNDMgMy4zNzEzNiAtNy4zODgyOSAzLjAwMDc1IC03LjYzOTM1QzIuNzYxNjQgLTcuNzgyODEgMi41MjI1NCAtNy45MzgyMyAyLjI0NzU3IC03LjkzODIzQzEuODA1MjMgLTcuOTM4MjMgMS41NDIyMiAtNy42MzkzNSAwLjk4MDMyNCAtNy4wMTc2OEwxLjE0NzcgLTYuODUwMzFDMS40OTQ0IC03LjE5NzAxIDEuNzQ1NDUgLTcuNDM2MTEgMi4xMjgwMiAtNy40MzYxMUMyLjMwNzM1IC03LjQzNjExIDIuNDc0NzIgLTcuNDAwMjUgMi44NDUzMyAtNy4xNDkxOUMzLjA4NDQzIC03LjAwNTczIDMuMzIzNTQgLTYuODUwMzEgMy41OTg1MSAtNi44NTAzMUM0LjA0MDg1IC02Ljg1MDMxIDQuMzAzODYgLTcuMTQ5MTkgNC44NjU3NSAtNy43NzA4Nkw0LjY5ODM4IC03LjkzODIzWiIvPiYjeGE7PHBhdGggaWQ9ImcwLTc3IiBkPSJNNy43Mzg5OCAtNC43OTgwMUM3LjgxODY4IC01LjEwODg0IDcuODM0NjIgLTUuMTgwNTcgOC4zOTI1MyAtNS4xODA1N0M4LjU3NTg0IC01LjE4MDU3IDguNjcxNDggLTUuMTgwNTcgOC42NzE0OCAtNS4zMzJDOC42NzE0OCAtNS40NDM1OSA4LjU2Nzg3IC01LjQ0MzU5IDguNDI0NDEgLTUuNDQzNTlINy4zOTYyNkM3LjE4MTA3IC01LjQ0MzU5IDcuMTU3MTYgLTUuNDQzNTkgNy4wNTM1NSAtNS4yODQxOEw0LjA0ODgyIC0wLjczMzI1TDMuMzM5NDggLTUuMjI4MzlDMy4zMDc2IC01LjQyNzY1IDMuMjk5NjMgLTUuNDQzNTkgMy4wNjA1MiAtNS40NDM1OUgxLjk4NDU2QzEuODQxMSAtNS40NDM1OSAxLjczNzQ4IC01LjQ0MzU5IDEuNzM3NDggLTUuMjkyMTVDMS43Mzc0OCAtNS4xODA1NyAxLjg0MTEgLTUuMTgwNTcgMS45Njg2MiAtNS4xODA1N0MyLjIzMTYzIC01LjE4MDU3IDIuNDYyNzYgLTUuMTgwNTcgMi40NjI3NiAtNS4wNTMwNUMyLjQ2Mjc2IC01LjAyMTE3IDIuNDU0NzkgLTUuMDEzMiAyLjQzMDg4IC00LjkwOTU5TDEuNDE4NjggLTAuODUyODAyQzEuMzIzMDQgLTAuNDU0Mjk2IDEuMTE1ODIgLTAuMjc4OTU0IDAuNTgxODE4IC0wLjI2MzAxNEMwLjUzMzk5OCAtMC4yNjMwMTQgMC40MzgzNTYgLTAuMjU1MDQ0IDAuNDM4MzU2IC0wLjExMTU4MkMwLjQzODM1NiAtMC4wNjM3NjA5IDAuNDc4MjA3IDAgMC41NTc5MDggMEMwLjU4OTc4OCAwIDAuNzczMTAxIC0wLjAyMzkxMDMgMS4zNDY5NSAtMC4wMjM5MTAzQzEuOTc2NTkgLTAuMDIzOTEwMyAyLjA5NjE0IDAgMi4xNjc4NyAwQzIuMTk5NzUgMCAyLjMxOTMgMCAyLjMxOTMgLTAuMTUxNDMyQzIuMzE5MyAtMC4yNDcwNzMgMi4yMzE2MyAtMC4yNjMwMTQgMi4xNzU4NCAtMC4yNjMwMTRDMS44ODg5MiAtMC4yNzA5ODQgMS42NDk4MSAtMC4zMTg4MDQgMS42NDk4MSAtMC41OTc3NThDMS42NDk4MSAtMC42Mzc2MDkgMS42NzM3MiAtMC43NDkxOTEgMS42NzM3MiAtMC43NTcxNjFMMi43NTc2NiAtNS4wODQ5M0gyLjc2NTYzTDMuNTM4NzMgLTAuMjE1MTkzQzMuNTYyNjQgLTAuMDg3NjcxMiAzLjU3MDYxIDAgMy42ODIxOSAwUzMuODQ5NTYgLTAuMDg3NjcxMiAzLjg5NzM4IC0wLjE1OTQwMkw3LjE3MzEgLTUuMTQ4NjlMNy4xODEwNyAtNS4xNDA3Mkw2LjA1NzI5IC0wLjYyOTYzOUM1Ljk4NTU1IC0wLjMyNjc3NSA1Ljk2OTYxIC0wLjI2MzAxNCA1LjM3OTgzIC0wLjI2MzAxNEM1LjIyODM5IC0wLjI2MzAxNCA1LjEzMjc1IC0wLjI2MzAxNCA1LjEzMjc1IC0wLjExMTU4MkM1LjEzMjc1IC0wLjA3OTcwMTEgNS4xNTY2NiAwIDUuMjYwMjcgMFM1LjYwMjk5IC0wLjAxNTk0MDIgNS43MTQ1NyAtMC4wMjM5MTAzSDYuMjI0NjZDNi45NjU4OCAtMC4wMjM5MTAzIDcuMTU3MTYgMCA3LjIxMjk1IDBDNy4yNjA3NyAwIDcuMzcyMzUgMCA3LjM3MjM1IC0wLjE1MTQzMkM3LjM3MjM1IC0wLjI2MzAxNCA3LjI2ODc0IC0wLjI2MzAxNCA3LjEzMzI1IC0wLjI2MzAxNEM3LjEwOTM0IC0wLjI2MzAxNCA2Ljk2NTg4IC0wLjI2MzAxNCA2LjgzMDM5IC0wLjI3ODk1NEM2LjY2MzAxIC0wLjI5NDg5NCA2LjY0NzA3IC0wLjMxODgwNCA2LjY0NzA3IC0wLjM5MDUzNUM2LjY0NzA3IC0wLjQzMDM4NiA2LjY2MzAxIC0wLjQ3ODIwNyA2LjY3MDk4IC0wLjUxODA1N0w3LjczODk4IC00Ljc5ODAxWiIvPiYjeGE7PC9kZWZzPiYjeGE7PGcgdHJhbnNmb3JtPSJtYXRyaXgoMS4yNSAwIDAgMS4yNSAwIDApIiBpZD0icGFnZTEiPiYjeGE7PHVzZSB5PSI5Mi4xNTQ0IiB4bGluazpocmVmPSIjZzItOTQiIHg9IjIxOC41NjgiLz4mI3hhOzx1c2UgeT0iOTIuMTU0NCIgeGxpbms6aHJlZj0iI2cxLTIzIiB4PSIyMTcuOSIvPiYjeGE7PHVzZSB5PSI5My45NDc3IiB4bGluazpocmVmPSIjZzAtNzciIHg9IjIyMy42NjIiLz4mI3hhOzx1c2UgeT0iOTIuMTU0NCIgeGxpbms6aHJlZj0iI2cyLTQwIiB4PSIyMzMuMTY0Ii8+JiN4YTs8dXNlIHk9Ijg4Ljk5OTYiIHhsaW5rOmhyZWY9IiNnMi0xMjYiIHg9IjIzOS43NjUiLz4mI3hhOzx1c2UgeT0iOTIuMTU0NCIgeGxpbms6aHJlZj0iI2cxLTEwMCIgeD0iMjM3LjY5OSIvPiYjeGE7PHVzZSB5PSI5Mi4xNTQ0IiB4bGluazpocmVmPSIjZzItNDEiIHg9IjI0My43ODIiLz4mI3hhOzwvZz4mI3hhOzwvc3ZnPg==;" vertex="1" parent="1">
          <mxGeometry x="650" y="315" width="51.42" height="25" as="geometry" />
        </mxCell>
        <mxCell id="8BUV6AUYwXgCQ4tE40Ya-20" value="" style="shape=image;verticalLabelPosition=bottom;labelBackgroundColor=default;verticalAlign=top;aspect=fixed;imageAspect=0;image=data:image/svg+xml,PHN2ZyB4bWxuczp4bGluaz0iaHR0cDovL3d3dy53My5vcmcvMTk5OS94bGluayIgeG1sbnM9Imh0dHA6Ly93d3cudzMub3JnLzIwMDAvc3ZnIiB3aWR0aD0iMzAuNjMxOXB0IiB2aWV3Qm94PSIyNzUuMzQzIDEwMS4zMjcgMzAuNjMxOSAxNy42MTcyIiB2ZXJzaW9uPSIxLjEiIGhlaWdodD0iMTcuNjE3MnB0Ij4mI3hhOzxkZWZzPiYjeGE7PHBhdGggaWQ9ImcyLTQwIiBkPSJNMy44ODU0MyAyLjkwNTExQzMuODg1NDMgMi44NjkyNCAzLjg4NTQzIDIuODQ1MzMgMy42ODIxOSAyLjY0MjA5QzIuNDg2NjcgMS40MzQ2MiAxLjgxNzE5IC0wLjUzNzk4MyAxLjgxNzE5IC0yLjk3Njg0QzEuODE3MTkgLTUuMjk2MTQgMi4zNzkwOCAtNy4yOTI2NSAzLjc2NTg4IC04LjcwMzM2QzMuODg1NDMgLTguODEwOTYgMy44ODU0MyAtOC44MzQ4NyAzLjg4NTQzIC04Ljg3MDczQzMuODg1NDMgLTguOTQyNDcgMy44MjU2NSAtOC45NjYzOCAzLjc3NzgzIC04Ljk2NjM4QzMuNjIyNDIgLTguOTY2MzggMi42NDIwOSAtOC4xMDU2IDIuMDU2MjkgLTYuOTM0QzEuNDQ2NTggLTUuNzI2NTMgMS4xNzE2MSAtNC40NDczMiAxLjE3MTYxIC0yLjk3Njg0QzEuMTcxNjEgLTEuOTEyODMgMS4zMzg5OCAtMC40OTAxNjIgMS45NjA2NSAwLjc4OTA0MUMyLjY2NiAyLjIyMzY2IDMuNjQ2MzMgMy4wMDA3NSAzLjc3NzgzIDMuMDAwNzVDMy44MjU2NSAzLjAwMDc1IDMuODg1NDMgMi45NzY4NCAzLjg4NTQzIDIuOTA1MTFaIi8+JiN4YTs8cGF0aCBpZD0iZzItNDEiIGQ9Ik0zLjM3MTM2IC0yLjk3Njg0QzMuMzcxMzYgLTMuODg1NDMgMy4yNTE4MSAtNS4zNjc4NyAyLjU4MjMyIC02Ljc1NDY3QzEuODc2OTYgLTguMTg5MjkgMC44OTY2MzggLTguOTY2MzggMC43NjUxMzEgLTguOTY2MzhDMC43MTczMSAtOC45NjYzOCAwLjY1NzUzNCAtOC45NDI0NyAwLjY1NzUzNCAtOC44NzA3M0MwLjY1NzUzNCAtOC44MzQ4NyAwLjY1NzUzNCAtOC44MTA5NiAwLjg2MDc3MiAtOC42MDc3MkMyLjA1NjI5IC03LjQwMDI1IDIuNzI1NzggLTUuNDI3NjUgMi43MjU3OCAtMi45ODg3OUMyLjcyNTc4IC0wLjY2OTQ4OSAyLjE2Mzg5IDEuMzI3MDIgMC43NzcwODYgMi43Mzc3M0MwLjY1NzUzNCAyLjg0NTMzIDAuNjU3NTM0IDIuODY5MjQgMC42NTc1MzQgMi45MDUxMUMwLjY1NzUzNCAyLjk3Njg0IDAuNzE3MzEgMy4wMDA3NSAwLjc2NTEzMSAzLjAwMDc1QzAuOTIwNTQ4IDMuMDAwNzUgMS45MDA4NyAyLjEzOTk4IDIuNDg2NjcgMC45NjgzNjlDMy4wOTYzOSAtMC4yNTEwNTkgMy4zNzEzNiAtMS41NDIyMiAzLjM3MTM2IC0yLjk3Njg0WiIvPiYjeGE7PHBhdGggaWQ9ImcyLTk0IiBkPSJNMi45MjkwMiAtOC4yOTY4OUwxLjM2Mjg5IC02LjY3MDk4TDEuNTU0MTcgLTYuNDkxNjZMMi45MTcwNiAtNy43MjMwNEw0LjI5MTkxIC02LjQ5MTY2TDQuNDgzMTkgLTYuNjcwOThMMi45MjkwMiAtOC4yOTY4OVoiLz4mI3hhOzxwYXRoIGlkPSJnMi0xMjYiIGQ9Ik00LjY5ODM4IC03LjkzODIzQzQuMzUxNjggLTcuNTkxNTMgNC4xMDA2MiAtNy4zNTI0MyAzLjcxODA2IC03LjM1MjQzQzMuNTM4NzMgLTcuMzUyNDMgMy4zNzEzNiAtNy4zODgyOSAzLjAwMDc1IC03LjYzOTM1QzIuNzYxNjQgLTcuNzgyODEgMi41MjI1NCAtNy45MzgyMyAyLjI0NzU3IC03LjkzODIzQzEuODA1MjMgLTcuOTM4MjMgMS41NDIyMiAtNy42MzkzNSAwLjk4MDMyNCAtNy4wMTc2OEwxLjE0NzcgLTYuODUwMzFDMS40OTQ0IC03LjE5NzAxIDEuNzQ1NDUgLTcuNDM2MTEgMi4xMjgwMiAtNy40MzYxMUMyLjMwNzM1IC03LjQzNjExIDIuNDc0NzIgLTcuNDAwMjUgMi44NDUzMyAtNy4xNDkxOUMzLjA4NDQzIC03LjAwNTczIDMuMzIzNTQgLTYuODUwMzEgMy41OTg1MSAtNi44NTAzMUM0LjA0MDg1IC02Ljg1MDMxIDQuMzAzODYgLTcuMTQ5MTkgNC44NjU3NSAtNy43NzA4Nkw0LjY5ODM4IC03LjkzODIzWiIvPiYjeGE7PHBhdGggaWQ9ImcwLTIzIiBkPSJNMi42MzAxNCAtNS4xNTI2OEMyLjYzMDE0IC01LjIwMDUgMi41OTQyNyAtNS4yNzIyMyAyLjQ5ODYzIC01LjI3MjIzQzIuNDE0OTQgLTUuMjcyMjMgMS4yOTExNiAtNS4xNjQ2MyAxLjExMTgzIC01LjE1MjY4QzAuOTgwMzI0IC01LjE0MDcyIDAuODYwNzcyIC01LjEyODc3IDAuODYwNzcyIC00LjkxMzU3QzAuODYwNzcyIC00Ljc5NDAyIDAuOTU2NDEzIC00Ljc5NDAyIDEuMTIzNzkgLTQuNzk0MDJDMS42ODU2OCAtNC43OTQwMiAxLjcyMTU0IC00LjcxMDM0IDEuNzIxNTQgLTQuNTc4ODNDMS43MjE1NCAtNC41MzEwMSAxLjY5NzYzIC00LjM4NzU1IDEuNjg1NjggLTQuMzM5NzNMMC42MzM2MjQgLTAuMTE5NTUyQzAuNjMzNjI0IC0wLjA3MTczMSAwLjY2OTQ4OSAwIDAuNzUzMTc2IDBIMS4wMDQyM0MxLjE3MTYxIDAgMi45ODg3OSAtMC40MzAzODYgNC4zODc1NSAtMS44NjUwMUM1LjkyOTc2IC0zLjQ1NTA0IDYuMTQ0OTYgLTQuOTI1NTMgNi4xNDQ5NiAtNC45NzMzNUM2LjE0NDk2IC01LjE2NDYzIDUuOTg5NTQgLTUuMjcyMjMgNS44MzQxMiAtNS4yNzIyM0M1LjQ4NzQyIC01LjI3MjIzIDUuNDAzNzQgLTQuOTQ5NDQgNS4zNzk4MyAtNC44NjU3NUM0LjY3NDQ3IC0yLjM2NzEyIDMuMDM2NjEgLTAuODg0NjgyIDEuNDQ2NTggLTAuMzU4NjU1TDIuNjMwMTQgLTUuMTUyNjhaIi8+JiN4YTs8cGF0aCBpZD0iZzAtMTAwIiBkPSJNNi4wMTM0NSAtNy45OTgwMUM2LjAyNTQgLTguMDQ1ODMgNi4wNDkzMiAtOC4xMTc1NiA2LjA0OTMyIC04LjE3NzMzQzYuMDQ5MzIgLTguMjk2ODkgNS45Mjk3NiAtOC4yOTY4OSA1LjkwNTg1IC04LjI5Njg5QzUuODkzOSAtOC4yOTY4OSA1LjMwODA5IC04LjI0OTA3IDUuMjQ4MzIgLTguMjM3MTFDNS4wNDUwOCAtOC4yMjUxNiA0Ljg2NTc1IC04LjIwMTI1IDQuNjUwNTYgLTguMTg5MjlDNC4zNTE2OCAtOC4xNjUzOCA0LjI2OCAtOC4xNTM0MiA0LjI2OCAtNy45MzgyM0M0LjI2OCAtNy44MTg2OCA0LjM2MzY0IC03LjgxODY4IDQuNTMxMDEgLTcuODE4NjhDNS4xMTY4MSAtNy44MTg2OCA1LjEyODc3IC03LjcxMTA4IDUuMTI4NzcgLTcuNTkxNTNDNS4xMjg3NyAtNy41MTk4IDUuMTA0ODYgLTcuNDI0MTYgNS4wOTI5IC03LjM4ODI5TDQuMzYzNjQgLTQuNDgzMTlDNC4yMzIxMyAtNC43OTQwMiAzLjkwOTM0IC01LjI3MjIzIDMuMjg3NjcgLTUuMjcyMjNDMS45MzY3NCAtNS4yNzIyMyAwLjQ3ODIwNyAtMy41MjY3NyAwLjQ3ODIwNyAtMS43NTc0MUMwLjQ3ODIwNyAtMC41NzM4NDggMS4xNzE2MSAwLjExOTU1MiAxLjk4NDU2IDAuMTE5NTUyQzIuNjQyMDkgMC4xMTk1NTIgMy4yMDM5OSAtMC4zOTQ1MjEgMy41Mzg3MyAtMC43ODkwNDFDMy42NTgyOCAtMC4wODM2ODYyIDQuMjIwMTcgMC4xMTk1NTIgNC41Nzg4MyAwLjExOTU1MlM1LjIyNDQxIC0wLjA5NTY0MTMgNS40Mzk2IC0wLjUyNjAyN0M1LjYzMDg4IC0wLjkzMjUwMyA1Ljc5ODI2IC0xLjY2MTc3IDUuNzk4MjYgLTEuNzA5NTlDNS43OTgyNiAtMS43NjkzNiA1Ljc1MDQ0IC0xLjgxNzE5IDUuNjc4NyAtMS44MTcxOUM1LjU3MTExIC0xLjgxNzE5IDUuNTU5MTUgLTEuNzU3NDEgNS41MTEzMyAtMS41NzgwOEM1LjMzMiAtMC44NzI3MjcgNS4xMDQ4NiAtMC4xMTk1NTIgNC42MTQ2OSAtMC4xMTk1NTJDNC4yNjggLTAuMTE5NTUyIDQuMjQ0MDggLTAuNDMwMzg2IDQuMjQ0MDggLTAuNjY5NDg5QzQuMjQ0MDggLTAuNzE3MzEgNC4yNDQwOCAtMC45NjgzNjkgNC4zMjc3NyAtMS4zMDMxMUw2LjAxMzQ1IC03Ljk5ODAxWk0zLjU5ODUxIC0xLjQyMjY3QzMuNTM4NzMgLTEuMjE5NDMgMy41Mzg3MyAtMS4xOTU1MiAzLjM3MTM2IC0wLjk2ODM2OUMzLjEwODM0IC0wLjYzMzYyNCAyLjU4MjMyIC0wLjExOTU1MiAyLjAyMDQyIC0wLjExOTU1MkMxLjUzMDI2IC0wLjExOTU1MiAxLjI1NTI5IC0wLjU2MTg5MyAxLjI1NTI5IC0xLjI2NzI1QzEuMjU1MjkgLTEuOTI0NzggMS42MjU5IC0zLjI2Mzc2IDEuODUzMDUgLTMuNzY1ODhDMi4yNTk1MyAtNC42MDI3NCAyLjgyMTQyIC01LjAzMzEzIDMuMjg3NjcgLTUuMDMzMTNDNC4wNzY3MSAtNS4wMzMxMyA0LjIzMjEzIC00LjA1MjggNC4yMzIxMyAtMy45NTcxNkM0LjIzMjEzIC0zLjk0NTIxIDQuMTk2MjYgLTMuNzg5NzkgNC4xODQzMSAtMy43NjU4OEwzLjU5ODUxIC0xLjQyMjY3WiIvPiYjeGE7PHBhdGggaWQ9ImcxLTQ5IiBkPSJNMi41MDI2MiAtNS4wNzY5NkMyLjUwMjYyIC01LjI5MjE1IDIuNDg2NjcgLTUuMzAwMTIgMi4yNzE0OCAtNS4zMDAxMkMxLjk0NDcxIC00Ljk4MTMyIDEuNTIyMjkgLTQuNzkwMDQgMC43NjUxMzEgLTQuNzkwMDRWLTQuNTI3MDJDMC45ODAzMjQgLTQuNTI3MDIgMS40MTA3MSAtNC41MjcwMiAxLjg3Mjk4IC00Ljc0MjIyVi0wLjY1MzU0OUMxLjg3Mjk4IC0wLjM1ODY1NSAxLjg0OTA3IC0wLjI2MzAxNCAxLjA5MTkxIC0wLjI2MzAxNEgwLjgxMjk1MVYwQzEuMTM5NzMgLTAuMDIzOTEwMyAxLjgyNTE2IC0wLjAyMzkxMDMgMi4xODM4MSAtMC4wMjM5MTAzUzMuMjM1ODcgLTAuMDIzOTEwMyAzLjU2MjY0IDBWLTAuMjYzMDE0SDMuMjgzNjlDMi41MjY1MyAtMC4yNjMwMTQgMi41MDI2MiAtMC4zNTg2NTUgMi41MDI2MiAtMC42NTM1NDlWLTUuMDc2OTZaIi8+JiN4YTs8L2RlZnM+JiN4YTs8ZyB0cmFuc2Zvcm09Im1hdHJpeCgxLjI1IDAgMCAxLjI1IDAgMCkiIGlkPSJwYWdlMSI+JiN4YTs8dXNlIHk9IjkyLjE1NDQiIHhsaW5rOmhyZWY9IiNnMi05NCIgeD0iMjIwLjk0MiIvPiYjeGE7PHVzZSB5PSI5Mi4xNTQ0IiB4bGluazpocmVmPSIjZzAtMjMiIHg9IjIyMC4yNzQiLz4mI3hhOzx1c2UgeT0iOTMuOTQ3NyIgeGxpbms6aHJlZj0iI2cxLTQ5IiB4PSIyMjYuMDM2Ii8+JiN4YTs8dXNlIHk9IjkyLjE1NDQiIHhsaW5rOmhyZWY9IiNnMi00MCIgeD0iMjMwLjc5Ii8+JiN4YTs8dXNlIHk9Ijg4Ljk5OTYiIHhsaW5rOmhyZWY9IiNnMi0xMjYiIHg9IjIzNy4zOTEiLz4mI3hhOzx1c2UgeT0iOTIuMTU0NCIgeGxpbms6aHJlZj0iI2cwLTEwMCIgeD0iMjM1LjMyNSIvPiYjeGE7PHVzZSB5PSI5Mi4xNTQ0IiB4bGluazpocmVmPSIjZzItNDEiIHg9IjI0MS40MDgiLz4mI3hhOzwvZz4mI3hhOzwvc3ZnPg==;" vertex="1" parent="1">
          <mxGeometry x="610" y="215" width="43.04" height="25" as="geometry" />
        </mxCell>
        <mxCell id="8BUV6AUYwXgCQ4tE40Ya-21" value="" style="shape=image;verticalLabelPosition=bottom;labelBackgroundColor=default;verticalAlign=top;aspect=fixed;imageAspect=0;image=data:image/svg+xml,PHN2ZyB4bWxuczp4bGluaz0iaHR0cDovL3d3dy53My5vcmcvMTk5OS94bGluayIgeG1sbnM9Imh0dHA6Ly93d3cudzMub3JnLzIwMDAvc3ZnIiB3aWR0aD0iMzAuNjMxOXB0IiB2aWV3Qm94PSIyNzUuMzQzIDEwMS4zMjcgMzAuNjMxOSAxNy42MTcyIiB2ZXJzaW9uPSIxLjEiIGhlaWdodD0iMTcuNjE3MnB0Ij4mI3hhOzxkZWZzPiYjeGE7PHBhdGggaWQ9ImcyLTQwIiBkPSJNMy44ODU0MyAyLjkwNTExQzMuODg1NDMgMi44NjkyNCAzLjg4NTQzIDIuODQ1MzMgMy42ODIxOSAyLjY0MjA5QzIuNDg2NjcgMS40MzQ2MiAxLjgxNzE5IC0wLjUzNzk4MyAxLjgxNzE5IC0yLjk3Njg0QzEuODE3MTkgLTUuMjk2MTQgMi4zNzkwOCAtNy4yOTI2NSAzLjc2NTg4IC04LjcwMzM2QzMuODg1NDMgLTguODEwOTYgMy44ODU0MyAtOC44MzQ4NyAzLjg4NTQzIC04Ljg3MDczQzMuODg1NDMgLTguOTQyNDcgMy44MjU2NSAtOC45NjYzOCAzLjc3NzgzIC04Ljk2NjM4QzMuNjIyNDIgLTguOTY2MzggMi42NDIwOSAtOC4xMDU2IDIuMDU2MjkgLTYuOTM0QzEuNDQ2NTggLTUuNzI2NTMgMS4xNzE2MSAtNC40NDczMiAxLjE3MTYxIC0yLjk3Njg0QzEuMTcxNjEgLTEuOTEyODMgMS4zMzg5OCAtMC40OTAxNjIgMS45NjA2NSAwLjc4OTA0MUMyLjY2NiAyLjIyMzY2IDMuNjQ2MzMgMy4wMDA3NSAzLjc3NzgzIDMuMDAwNzVDMy44MjU2NSAzLjAwMDc1IDMuODg1NDMgMi45NzY4NCAzLjg4NTQzIDIuOTA1MTFaIi8+JiN4YTs8cGF0aCBpZD0iZzItNDEiIGQ9Ik0zLjM3MTM2IC0yLjk3Njg0QzMuMzcxMzYgLTMuODg1NDMgMy4yNTE4MSAtNS4zNjc4NyAyLjU4MjMyIC02Ljc1NDY3QzEuODc2OTYgLTguMTg5MjkgMC44OTY2MzggLTguOTY2MzggMC43NjUxMzEgLTguOTY2MzhDMC43MTczMSAtOC45NjYzOCAwLjY1NzUzNCAtOC45NDI0NyAwLjY1NzUzNCAtOC44NzA3M0MwLjY1NzUzNCAtOC44MzQ4NyAwLjY1NzUzNCAtOC44MTA5NiAwLjg2MDc3MiAtOC42MDc3MkMyLjA1NjI5IC03LjQwMDI1IDIuNzI1NzggLTUuNDI3NjUgMi43MjU3OCAtMi45ODg3OUMyLjcyNTc4IC0wLjY2OTQ4OSAyLjE2Mzg5IDEuMzI3MDIgMC43NzcwODYgMi43Mzc3M0MwLjY1NzUzNCAyLjg0NTMzIDAuNjU3NTM0IDIuODY5MjQgMC42NTc1MzQgMi45MDUxMUMwLjY1NzUzNCAyLjk3Njg0IDAuNzE3MzEgMy4wMDA3NSAwLjc2NTEzMSAzLjAwMDc1QzAuOTIwNTQ4IDMuMDAwNzUgMS45MDA4NyAyLjEzOTk4IDIuNDg2NjcgMC45NjgzNjlDMy4wOTYzOSAtMC4yNTEwNTkgMy4zNzEzNiAtMS41NDIyMiAzLjM3MTM2IC0yLjk3Njg0WiIvPiYjeGE7PHBhdGggaWQ9ImcyLTk0IiBkPSJNMi45MjkwMiAtOC4yOTY4OUwxLjM2Mjg5IC02LjY3MDk4TDEuNTU0MTcgLTYuNDkxNjZMMi45MTcwNiAtNy43MjMwNEw0LjI5MTkxIC02LjQ5MTY2TDQuNDgzMTkgLTYuNjcwOThMMi45MjkwMiAtOC4yOTY4OVoiLz4mI3hhOzxwYXRoIGlkPSJnMi0xMjYiIGQ9Ik00LjY5ODM4IC03LjkzODIzQzQuMzUxNjggLTcuNTkxNTMgNC4xMDA2MiAtNy4zNTI0MyAzLjcxODA2IC03LjM1MjQzQzMuNTM4NzMgLTcuMzUyNDMgMy4zNzEzNiAtNy4zODgyOSAzLjAwMDc1IC03LjYzOTM1QzIuNzYxNjQgLTcuNzgyODEgMi41MjI1NCAtNy45MzgyMyAyLjI0NzU3IC03LjkzODIzQzEuODA1MjMgLTcuOTM4MjMgMS41NDIyMiAtNy42MzkzNSAwLjk4MDMyNCAtNy4wMTc2OEwxLjE0NzcgLTYuODUwMzFDMS40OTQ0IC03LjE5NzAxIDEuNzQ1NDUgLTcuNDM2MTEgMi4xMjgwMiAtNy40MzYxMUMyLjMwNzM1IC03LjQzNjExIDIuNDc0NzIgLTcuNDAwMjUgMi44NDUzMyAtNy4xNDkxOUMzLjA4NDQzIC03LjAwNTczIDMuMzIzNTQgLTYuODUwMzEgMy41OTg1MSAtNi44NTAzMUM0LjA0MDg1IC02Ljg1MDMxIDQuMzAzODYgLTcuMTQ5MTkgNC44NjU3NSAtNy43NzA4Nkw0LjY5ODM4IC03LjkzODIzWiIvPiYjeGE7PHBhdGggaWQ9ImcwLTIzIiBkPSJNMi42MzAxNCAtNS4xNTI2OEMyLjYzMDE0IC01LjIwMDUgMi41OTQyNyAtNS4yNzIyMyAyLjQ5ODYzIC01LjI3MjIzQzIuNDE0OTQgLTUuMjcyMjMgMS4yOTExNiAtNS4xNjQ2MyAxLjExMTgzIC01LjE1MjY4QzAuOTgwMzI0IC01LjE0MDcyIDAuODYwNzcyIC01LjEyODc3IDAuODYwNzcyIC00LjkxMzU3QzAuODYwNzcyIC00Ljc5NDAyIDAuOTU2NDEzIC00Ljc5NDAyIDEuMTIzNzkgLTQuNzk0MDJDMS42ODU2OCAtNC43OTQwMiAxLjcyMTU0IC00LjcxMDM0IDEuNzIxNTQgLTQuNTc4ODNDMS43MjE1NCAtNC41MzEwMSAxLjY5NzYzIC00LjM4NzU1IDEuNjg1NjggLTQuMzM5NzNMMC42MzM2MjQgLTAuMTE5NTUyQzAuNjMzNjI0IC0wLjA3MTczMSAwLjY2OTQ4OSAwIDAuNzUzMTc2IDBIMS4wMDQyM0MxLjE3MTYxIDAgMi45ODg3OSAtMC40MzAzODYgNC4zODc1NSAtMS44NjUwMUM1LjkyOTc2IC0zLjQ1NTA0IDYuMTQ0OTYgLTQuOTI1NTMgNi4xNDQ5NiAtNC45NzMzNUM2LjE0NDk2IC01LjE2NDYzIDUuOTg5NTQgLTUuMjcyMjMgNS44MzQxMiAtNS4yNzIyM0M1LjQ4NzQyIC01LjI3MjIzIDUuNDAzNzQgLTQuOTQ5NDQgNS4zNzk4MyAtNC44NjU3NUM0LjY3NDQ3IC0yLjM2NzEyIDMuMDM2NjEgLTAuODg0NjgyIDEuNDQ2NTggLTAuMzU4NjU1TDIuNjMwMTQgLTUuMTUyNjhaIi8+JiN4YTs8cGF0aCBpZD0iZzAtMTAwIiBkPSJNNi4wMTM0NSAtNy45OTgwMUM2LjAyNTQgLTguMDQ1ODMgNi4wNDkzMiAtOC4xMTc1NiA2LjA0OTMyIC04LjE3NzMzQzYuMDQ5MzIgLTguMjk2ODkgNS45Mjk3NiAtOC4yOTY4OSA1LjkwNTg1IC04LjI5Njg5QzUuODkzOSAtOC4yOTY4OSA1LjMwODA5IC04LjI0OTA3IDUuMjQ4MzIgLTguMjM3MTFDNS4wNDUwOCAtOC4yMjUxNiA0Ljg2NTc1IC04LjIwMTI1IDQuNjUwNTYgLTguMTg5MjlDNC4zNTE2OCAtOC4xNjUzOCA0LjI2OCAtOC4xNTM0MiA0LjI2OCAtNy45MzgyM0M0LjI2OCAtNy44MTg2OCA0LjM2MzY0IC03LjgxODY4IDQuNTMxMDEgLTcuODE4NjhDNS4xMTY4MSAtNy44MTg2OCA1LjEyODc3IC03LjcxMTA4IDUuMTI4NzcgLTcuNTkxNTNDNS4xMjg3NyAtNy41MTk4IDUuMTA0ODYgLTcuNDI0MTYgNS4wOTI5IC03LjM4ODI5TDQuMzYzNjQgLTQuNDgzMTlDNC4yMzIxMyAtNC43OTQwMiAzLjkwOTM0IC01LjI3MjIzIDMuMjg3NjcgLTUuMjcyMjNDMS45MzY3NCAtNS4yNzIyMyAwLjQ3ODIwNyAtMy41MjY3NyAwLjQ3ODIwNyAtMS43NTc0MUMwLjQ3ODIwNyAtMC41NzM4NDggMS4xNzE2MSAwLjExOTU1MiAxLjk4NDU2IDAuMTE5NTUyQzIuNjQyMDkgMC4xMTk1NTIgMy4yMDM5OSAtMC4zOTQ1MjEgMy41Mzg3MyAtMC43ODkwNDFDMy42NTgyOCAtMC4wODM2ODYyIDQuMjIwMTcgMC4xMTk1NTIgNC41Nzg4MyAwLjExOTU1MlM1LjIyNDQxIC0wLjA5NTY0MTMgNS40Mzk2IC0wLjUyNjAyN0M1LjYzMDg4IC0wLjkzMjUwMyA1Ljc5ODI2IC0xLjY2MTc3IDUuNzk4MjYgLTEuNzA5NTlDNS43OTgyNiAtMS43NjkzNiA1Ljc1MDQ0IC0xLjgxNzE5IDUuNjc4NyAtMS44MTcxOUM1LjU3MTExIC0xLjgxNzE5IDUuNTU5MTUgLTEuNzU3NDEgNS41MTEzMyAtMS41NzgwOEM1LjMzMiAtMC44NzI3MjcgNS4xMDQ4NiAtMC4xMTk1NTIgNC42MTQ2OSAtMC4xMTk1NTJDNC4yNjggLTAuMTE5NTUyIDQuMjQ0MDggLTAuNDMwMzg2IDQuMjQ0MDggLTAuNjY5NDg5QzQuMjQ0MDggLTAuNzE3MzEgNC4yNDQwOCAtMC45NjgzNjkgNC4zMjc3NyAtMS4zMDMxMUw2LjAxMzQ1IC03Ljk5ODAxWk0zLjU5ODUxIC0xLjQyMjY3QzMuNTM4NzMgLTEuMjE5NDMgMy41Mzg3MyAtMS4xOTU1MiAzLjM3MTM2IC0wLjk2ODM2OUMzLjEwODM0IC0wLjYzMzYyNCAyLjU4MjMyIC0wLjExOTU1MiAyLjAyMDQyIC0wLjExOTU1MkMxLjUzMDI2IC0wLjExOTU1MiAxLjI1NTI5IC0wLjU2MTg5MyAxLjI1NTI5IC0xLjI2NzI1QzEuMjU1MjkgLTEuOTI0NzggMS42MjU5IC0zLjI2Mzc2IDEuODUzMDUgLTMuNzY1ODhDMi4yNTk1MyAtNC42MDI3NCAyLjgyMTQyIC01LjAzMzEzIDMuMjg3NjcgLTUuMDMzMTNDNC4wNzY3MSAtNS4wMzMxMyA0LjIzMjEzIC00LjA1MjggNC4yMzIxMyAtMy45NTcxNkM0LjIzMjEzIC0zLjk0NTIxIDQuMTk2MjYgLTMuNzg5NzkgNC4xODQzMSAtMy43NjU4OEwzLjU5ODUxIC0xLjQyMjY3WiIvPiYjeGE7PHBhdGggaWQ9ImcxLTUwIiBkPSJNMi4yNDc1NyAtMS42MjU5QzIuMzc1MDkgLTEuNzQ1NDUgMi43MDk4NCAtMi4wMDg0NyAyLjgzNzM2IC0yLjEyMDA1QzMuMzMxNTEgLTIuNTc0MzUgMy44MDE3NCAtMy4wMTI3IDMuODAxNzQgLTMuNzM3OThDMy44MDE3NCAtNC42ODY0MyAzLjAwNDczIC01LjMwMDEyIDIuMDA4NDcgLTUuMzAwMTJDMS4wNTIwNSAtNS4zMDAxMiAwLjQyMjQxNiAtNC41NzQ4NCAwLjQyMjQxNiAtMy44NjU1QzAuNDIyNDE2IC0zLjQ3NDk3IDAuNzMzMjUgLTMuNDE5MTggMC44NDQ4MzIgLTMuNDE5MThDMS4wMTIyIC0zLjQxOTE4IDEuMjU5MjggLTMuNTM4NzMgMS4yNTkyOCAtMy44NDE1OUMxLjI1OTI4IC00LjI1NjA0IDAuODYwNzcyIC00LjI1NjA0IDAuNzY1MTMxIC00LjI1NjA0QzAuOTk2MjY0IC00LjgzNzg2IDEuNTMwMjYgLTUuMDM3MTEgMS45MjA4IC01LjAzNzExQzIuNjYyMDIgLTUuMDM3MTEgMy4wNDQ1OCAtNC40MDc0NyAzLjA0NDU4IC0zLjczNzk4QzMuMDQ0NTggLTIuOTA5MDkgMi40NjI3NiAtMi4zMDMzNiAxLjUyMjI5IC0xLjMzODk4TDAuNTE4MDU3IC0wLjMwMjg2NEMwLjQyMjQxNiAtMC4yMTUxOTMgMC40MjI0MTYgLTAuMTk5MjUzIDAuNDIyNDE2IDBIMy41NzA2MUwzLjgwMTc0IC0xLjQyNjY1SDMuNTU0NjdDMy41MzA3NiAtMS4yNjcyNSAzLjQ2NyAtMC44Njg3NDIgMy4zNzEzNiAtMC43MTczMUMzLjMyMzU0IC0wLjY1MzU0OSAyLjcxNzgxIC0wLjY1MzU0OSAyLjU5MDI5IC0wLjY1MzU0OUgxLjE3MTYxTDIuMjQ3NTcgLTEuNjI1OVoiLz4mI3hhOzwvZGVmcz4mI3hhOzxnIHRyYW5zZm9ybT0ibWF0cml4KDEuMjUgMCAwIDEuMjUgMCAwKSIgaWQ9InBhZ2UxIj4mI3hhOzx1c2UgeT0iOTIuMTU0NCIgeGxpbms6aHJlZj0iI2cyLTk0IiB4PSIyMjAuOTQyIi8+JiN4YTs8dXNlIHk9IjkyLjE1NDQiIHhsaW5rOmhyZWY9IiNnMC0yMyIgeD0iMjIwLjI3NCIvPiYjeGE7PHVzZSB5PSI5My45NDc3IiB4bGluazpocmVmPSIjZzEtNTAiIHg9IjIyNi4wMzYiLz4mI3hhOzx1c2UgeT0iOTIuMTU0NCIgeGxpbms6aHJlZj0iI2cyLTQwIiB4PSIyMzAuNzkiLz4mI3hhOzx1c2UgeT0iODguOTk5NiIgeGxpbms6aHJlZj0iI2cyLTEyNiIgeD0iMjM3LjM5MSIvPiYjeGE7PHVzZSB5PSI5Mi4xNTQ0IiB4bGluazpocmVmPSIjZzAtMTAwIiB4PSIyMzUuMzI1Ii8+JiN4YTs8dXNlIHk9IjkyLjE1NDQiIHhsaW5rOmhyZWY9IiNnMi00MSIgeD0iMjQxLjQwOCIvPiYjeGE7PC9nPiYjeGE7PC9zdmc+;" vertex="1" parent="1">
          <mxGeometry x="620" y="240" width="43.04" height="25" as="geometry" />
        </mxCell>
        <mxCell id="8BUV6AUYwXgCQ4tE40Ya-22" value="" style="shape=image;verticalLabelPosition=bottom;labelBackgroundColor=default;verticalAlign=top;aspect=fixed;imageAspect=0;image=data:image/svg+xml,PHN2ZyB4bWxuczp4bGluaz0iaHR0cDovL3d3dy53My5vcmcvMTk5OS94bGluayIgeG1sbnM9Imh0dHA6Ly93d3cudzMub3JnLzIwMDAvc3ZnIiB3aWR0aD0iMTUuODI5N3B0IiB2aWV3Qm94PSIyODIuODIgMTEzLjc0MyAxNS44Mjk3IDEuNDQ5NTYiIHZlcnNpb249IjEuMSIgaGVpZ2h0PSIxLjQ0OTU2cHQiPiYjeGE7PGRlZnM+JiN4YTs8cGF0aCBpZD0iZzAtNTgiIGQ9Ik0yLjE5OTc1IC0wLjU3Mzg0OEMyLjE5OTc1IC0wLjkyMDU0OCAxLjkxMjgzIC0xLjE1OTY1IDEuNjI1OSAtMS4xNTk2NUMxLjI3OTIgLTEuMTU5NjUgMS4wNDAxIC0wLjg3MjcyNyAxLjA0MDEgLTAuNTg1ODAzQzEuMDQwMSAtMC4yMzkxMDMgMS4zMjcwMiAwIDEuNjEzOTUgMEMxLjk2MDY1IDAgMi4xOTk3NSAtMC4yODY5MjQgMi4xOTk3NSAtMC41NzM4NDhaIi8+JiN4YTs8L2RlZnM+JiN4YTs8ZyB0cmFuc2Zvcm09Im1hdHJpeCgxLjI1IDAgMCAxLjI1IDAgMCkiIGlkPSJwYWdlMSI+JiN4YTs8dXNlIHk9IjkyLjE1NDQiIHhsaW5rOmhyZWY9IiNnMC01OCIgeD0iMjI2LjI1NiIvPiYjeGE7PHVzZSB5PSI5Mi4xNTQ0IiB4bGluazpocmVmPSIjZzAtNTgiIHg9IjIzMS40ODgiLz4mI3hhOzx1c2UgeT0iOTIuMTU0NCIgeGxpbms6aHJlZj0iI2cwLTU4IiB4PSIyMzYuNzIiLz4mI3hhOzwvZz4mI3hhOzwvc3ZnPg==;" vertex="1" parent="1">
          <mxGeometry x="641.04" y="303.5" width="32" height="2" as="geometry" />
        </mxCell>
        <mxCell id="8BUV6AUYwXgCQ4tE40Ya-23" value="" style="endArrow=none;html=1;rounded=0;" edge="1" parent="1">
          <mxGeometry width="50" height="50" relative="1" as="geometry">
            <mxPoint x="280" y="360" as="sourcePoint" />
            <mxPoint x="600" y="280" as="targetPoint" />
            <Array as="points">
              <mxPoint x="600" y="360" />
            </Array>
          </mxGeometry>
        </mxCell>
        <mxCell id="8BUV6AUYwXgCQ4tE40Ya-24" value="" style="shape=image;verticalLabelPosition=bottom;labelBackgroundColor=default;verticalAlign=top;aspect=fixed;imageAspect=0;image=data:image/svg+xml,PHN2ZyB4bWxuczp4bGluaz0iaHR0cDovL3d3dy53My5vcmcvMTk5OS94bGluayIgeG1sbnM9Imh0dHA6Ly93d3cudzMub3JnLzIwMDAvc3ZnIiB3aWR0aD0iNzAuNjEwNHB0IiB2aWV3Qm94PSIyNTUuMzEgMTAxLjMyNyA3MC42MTA0IDE3LjYxNzIiIHZlcnNpb249IjEuMSIgaGVpZ2h0PSIxNy42MTcycHQiPiYjeGE7PGRlZnM+JiN4YTs8cGF0aCBpZD0iZzEtMTAwIiBkPSJNNi4wMTM0NSAtNy45OTgwMUM2LjAyNTQgLTguMDQ1ODMgNi4wNDkzMiAtOC4xMTc1NiA2LjA0OTMyIC04LjE3NzMzQzYuMDQ5MzIgLTguMjk2ODkgNS45Mjk3NiAtOC4yOTY4OSA1LjkwNTg1IC04LjI5Njg5QzUuODkzOSAtOC4yOTY4OSA1LjMwODA5IC04LjI0OTA3IDUuMjQ4MzIgLTguMjM3MTFDNS4wNDUwOCAtOC4yMjUxNiA0Ljg2NTc1IC04LjIwMTI1IDQuNjUwNTYgLTguMTg5MjlDNC4zNTE2OCAtOC4xNjUzOCA0LjI2OCAtOC4xNTM0MiA0LjI2OCAtNy45MzgyM0M0LjI2OCAtNy44MTg2OCA0LjM2MzY0IC03LjgxODY4IDQuNTMxMDEgLTcuODE4NjhDNS4xMTY4MSAtNy44MTg2OCA1LjEyODc3IC03LjcxMTA4IDUuMTI4NzcgLTcuNTkxNTNDNS4xMjg3NyAtNy41MTk4IDUuMTA0ODYgLTcuNDI0MTYgNS4wOTI5IC03LjM4ODI5TDQuMzYzNjQgLTQuNDgzMTlDNC4yMzIxMyAtNC43OTQwMiAzLjkwOTM0IC01LjI3MjIzIDMuMjg3NjcgLTUuMjcyMjNDMS45MzY3NCAtNS4yNzIyMyAwLjQ3ODIwNyAtMy41MjY3NyAwLjQ3ODIwNyAtMS43NTc0MUMwLjQ3ODIwNyAtMC41NzM4NDggMS4xNzE2MSAwLjExOTU1MiAxLjk4NDU2IDAuMTE5NTUyQzIuNjQyMDkgMC4xMTk1NTIgMy4yMDM5OSAtMC4zOTQ1MjEgMy41Mzg3MyAtMC43ODkwNDFDMy42NTgyOCAtMC4wODM2ODYyIDQuMjIwMTcgMC4xMTk1NTIgNC41Nzg4MyAwLjExOTU1MlM1LjIyNDQxIC0wLjA5NTY0MTMgNS40Mzk2IC0wLjUyNjAyN0M1LjYzMDg4IC0wLjkzMjUwMyA1Ljc5ODI2IC0xLjY2MTc3IDUuNzk4MjYgLTEuNzA5NTlDNS43OTgyNiAtMS43NjkzNiA1Ljc1MDQ0IC0xLjgxNzE5IDUuNjc4NyAtMS44MTcxOUM1LjU3MTExIC0xLjgxNzE5IDUuNTU5MTUgLTEuNzU3NDEgNS41MTEzMyAtMS41NzgwOEM1LjMzMiAtMC44NzI3MjcgNS4xMDQ4NiAtMC4xMTk1NTIgNC42MTQ2OSAtMC4xMTk1NTJDNC4yNjggLTAuMTE5NTUyIDQuMjQ0MDggLTAuNDMwMzg2IDQuMjQ0MDggLTAuNjY5NDg5QzQuMjQ0MDggLTAuNzE3MzEgNC4yNDQwOCAtMC45NjgzNjkgNC4zMjc3NyAtMS4zMDMxMUw2LjAxMzQ1IC03Ljk5ODAxWk0zLjU5ODUxIC0xLjQyMjY3QzMuNTM4NzMgLTEuMjE5NDMgMy41Mzg3MyAtMS4xOTU1MiAzLjM3MTM2IC0wLjk2ODM2OUMzLjEwODM0IC0wLjYzMzYyNCAyLjU4MjMyIC0wLjExOTU1MiAyLjAyMDQyIC0wLjExOTU1MkMxLjUzMDI2IC0wLjExOTU1MiAxLjI1NTI5IC0wLjU2MTg5MyAxLjI1NTI5IC0xLjI2NzI1QzEuMjU1MjkgLTEuOTI0NzggMS42MjU5IC0zLjI2Mzc2IDEuODUzMDUgLTMuNzY1ODhDMi4yNTk1MyAtNC42MDI3NCAyLjgyMTQyIC01LjAzMzEzIDMuMjg3NjcgLTUuMDMzMTNDNC4wNzY3MSAtNS4wMzMxMyA0LjIzMjEzIC00LjA1MjggNC4yMzIxMyAtMy45NTcxNkM0LjIzMjEzIC0zLjk0NTIxIDQuMTk2MjYgLTMuNzg5NzkgNC4xODQzMSAtMy43NjU4OEwzLjU5ODUxIC0xLjQyMjY3WiIvPiYjeGE7PHBhdGggaWQ9ImcwLTE3IiBkPSJNNy4wMDU3MyAtMy4zNDc0NUM3LjA2NTUgLTMuNTYyNjQgNy4xMDEzNyAtMy43MTgwNiA3LjEwMTM3IC00LjAxNjk0QzcuMTAxMzcgLTUuMTE2ODEgNi4xODA4MiAtNS40MDM3NCA1LjMyMDA1IC01LjQwMzc0QzUuMDY4OTkgLTUuNDAzNzQgNC4xOTYyNiAtNS40MDM3NCAzLjM0NzQ1IC00LjQ5NTE0QzMuMTgwMDcgLTUuMDkyOSAyLjUyMjU0IC01LjQwMzc0IDEuODc2OTYgLTUuNDAzNzRDMS40MzQ2MiAtNS40MDM3NCAxLjA4NzkyIC01LjE1MjY4IDAuODM2ODYyIC00LjcyMjI5QzAuNTM3OTgzIC00LjI0NDA4IDAuMzgyNTY1IC0zLjU5ODUxIDAuMzgyNTY1IC0zLjUzODczQzAuMzgyNTY1IC0zLjM3MTM2IDAuNTYxODkzIC0zLjM3MTM2IDAuNjY5NDg5IC0zLjM3MTM2QzAuODAwOTk2IC0zLjM3MTM2IDAuODQ4ODE3IC0zLjM3MTM2IDAuOTA4NTkzIC0zLjQzMTEzQzAuOTMyNTAzIC0zLjQ1NTA0IDAuOTMyNTAzIC0zLjQ3ODk1IDEuMDA0MjMgLTMuNzc3ODNDMS4yNDMzNCAtNC43MzQyNSAxLjUxODMxIC00Ljk3MzM1IDEuODE3MTkgLTQuOTczMzVDMS45NDg2OSAtNC45NzMzNSAyLjA5MjE1IC00LjkyNTUzIDIuMDkyMTUgLTQuNTMxMDFDMi4wOTIxNSAtNC4zMjc3NyAyLjA0NDMzIC00LjEzNjQ5IDEuOTI0NzggLTMuNjU4MjhDMS44NDExIC0zLjMyMzU0IDEuNzIxNTQgLTIuODQ1MzMgMS42NjE3NyAtMi41ODIzMkwxLjIzMTM4IC0wLjkwODU5M0MxLjE5NTUyIC0wLjc0MTIyIDEuMTM1NzQgLTAuNTE0MDcyIDEuMTM1NzQgLTAuNDMwMzg2QzEuMTM1NzQgLTAuMTc5MzI4IDEuMzI3MDIgMC4wOTU2NDEzIDEuNjk3NjMgMC4wOTU2NDEzQzIuMzE5MyAwLjA5NTY0MTMgMi40NjI3NiAtMC40NTQyOTYgMi41NDY0NSAtMC44MTI5NTFDMi42NjYgLTEuMjU1MjkgMi43NjE2NCAtMS42Mzc4NiAyLjg4MTIgLTIuMTUxOTNDMi45MjkwMiAtMi4zMDczNSAzLjIyNzkgLTMuNTM4NzMgMy4yNTE4MSAtMy41NzQ2QzMuMjYzNzYgLTMuNjQ2MzMgMy41OTg1MSAtNC4xODQzMSAzLjk5MzAzIC00LjUwNzFDNC4zMjc3NyAtNC43NzAxMSA0LjcyMjI5IC00Ljk3MzM1IDUuMjI0NDEgLTQuOTczMzVDNS41MzUyNCAtNC45NzMzNSA1LjgyMjE3IC00Ljg1MzggNS44MjIxNyAtNC4yNjhDNS44MjIxNyAtMy45NjkxMiA1Ljc3NDM1IC0zLjgwMTc0IDUuNzI2NTMgLTMuNTg2NTVMNC4zOTk1IDEuNjg1NjhDNC4zNTE2OCAxLjg3Njk2IDQuMzUxNjggMS45NDg2OSA0LjM1MTY4IDEuOTk2NTFDNC4zNTE2OCAyLjM3OTA4IDQuNjYyNTIgMi41MjI1NCA0LjkxMzU3IDIuNTIyNTRDNS4wNDUwOCAyLjUyMjU0IDUuNTM1MjQgMi41MTA1OSA1LjcxNDU3IDEuNzkzMjhMNy4wMDU3MyAtMy4zNDc0NVoiLz4mI3hhOzxwYXRoIGlkPSJnMC0xMjAiIGQ9Ik02LjQwNzk3IC00Ljc5NDAyQzUuOTc3NTggLTQuNjc0NDcgNS43NjIzOSAtNC4yNjggNS43NjIzOSAtMy45NjkxMkM1Ljc2MjM5IC0zLjcwNjEgNS45NjU2MyAtMy40MTkxOCA2LjM2MDE1IC0zLjQxOTE4QzYuNzc4NTggLTMuNDE5MTggNy4yMjA5MiAtMy43NjU4OCA3LjIyMDkyIC00LjM1MTY4QzcuMjIwOTIgLTQuOTg1MzEgNi41ODczIC01LjQwMzc0IDUuODU4MDMgLTUuNDAzNzRDNS4xNzY1OSAtNS40MDM3NCA0LjczNDI1IC00Ljg4OTY2IDQuNTc4ODMgLTQuNjc0NDdDNC4yNzk5NSAtNS4xNzY1OSAzLjYxMDQ2IC01LjQwMzc0IDIuOTI5MDIgLTUuNDAzNzRDMS40MjI2NyAtNS40MDM3NCAwLjYwOTcxNCAtMy45MzMyNSAwLjYwOTcxNCAtMy41Mzg3M0MwLjYwOTcxNCAtMy4zNzEzNiAwLjc4OTA0MSAtMy4zNzEzNiAwLjg5NjYzOCAtMy4zNzEzNkMxLjA0MDEgLTMuMzcxMzYgMS4xMjM3OSAtMy4zNzEzNiAxLjE3MTYxIC0zLjUyNjc3QzEuNTE4MzEgLTQuNjE0NjkgMi4zNzkwOCAtNC45NzMzNSAyLjg2OTI0IC00Ljk3MzM1QzMuMzIzNTQgLTQuOTczMzUgMy41Mzg3MyAtNC43NTgxNiAzLjUzODczIC00LjM3NTU5QzMuNTM4NzMgLTQuMTQ4NDQgMy4zNzEzNiAtMy40OTA5MSAzLjI2Mzc2IC0zLjA2MDUyTDIuODU3MjkgLTEuNDIyNjdDMi42Nzc5NiAtMC42OTM0IDIuMjQ3NTcgLTAuMzM0NzQ1IDEuODQxMSAtMC4zMzQ3NDVDMS43ODEzMiAtMC4zMzQ3NDUgMS41MDYzNSAtMC4zMzQ3NDUgMS4yNjcyNSAtMC41MTQwNzJDMS42OTc2MyAtMC42MzM2MjQgMS45MTI4MyAtMS4wNDAxIDEuOTEyODMgLTEuMzM4OThDMS45MTI4MyAtMS42MDE5OSAxLjcwOTU5IC0xLjg4ODkyIDEuMzE1MDcgLTEuODg4OTJDMC44OTY2MzggLTEuODg4OTIgMC40NTQyOTYgLTEuNTQyMjIgMC40NTQyOTYgLTAuOTU2NDEzQzAuNDU0Mjk2IC0wLjMyMjc5IDEuMDg3OTIgMC4wOTU2NDEzIDEuODE3MTkgMC4wOTU2NDEzQzIuNDk4NjMgMC4wOTU2NDEzIDIuOTQwOTcgLTAuNDE4NDMxIDMuMDk2MzkgLTAuNjMzNjI0QzMuMzk1MjcgLTAuMTMxNTA3IDQuMDY0NzYgMC4wOTU2NDEzIDQuNzQ2MiAwLjA5NTY0MTNDNi4yNTI1NSAwLjA5NTY0MTMgNy4wNjU1IC0xLjM3NDg0IDcuMDY1NSAtMS43NjkzNkM3LjA2NTUgLTEuOTM2NzQgNi44ODYxOCAtMS45MzY3NCA2Ljc3ODU4IC0xLjkzNjc0QzYuNjM1MTIgLTEuOTM2NzQgNi41NTE0MyAtMS45MzY3NCA2LjUwMzYxIC0xLjc4MTMyQzYuMTU2OTEgLTAuNjkzNCA1LjI5NjE0IC0wLjMzNDc0NSA0LjgwNTk4IC0wLjMzNDc0NUM0LjM1MTY4IC0wLjMzNDc0NSA0LjEzNjQ5IC0wLjU0OTkzOCA0LjEzNjQ5IC0wLjkzMjUwM0M0LjEzNjQ5IC0xLjE4MzU2IDQuMjkxOTEgLTEuODE3MTkgNC4zOTk1IC0yLjI1OTUzQzQuNDgzMTkgLTIuNTcwMzYgNC43NTgxNiAtMy42OTQxNSA0LjgxNzkzIC0zLjg4NTQzQzQuOTk3MjYgLTQuNjAyNzQgNS40MTU2OSAtNC45NzMzNSA1LjgzNDEyIC00Ljk3MzM1QzUuODkzOSAtNC45NzMzNSA2LjE2ODg3IC00Ljk3MzM1IDYuNDA3OTcgLTQuNzk0MDJaIi8+JiN4YTs8cGF0aCBpZD0iZzItNDAiIGQ9Ik0zLjg4NTQzIDIuOTA1MTFDMy44ODU0MyAyLjg2OTI0IDMuODg1NDMgMi44NDUzMyAzLjY4MjE5IDIuNjQyMDlDMi40ODY2NyAxLjQzNDYyIDEuODE3MTkgLTAuNTM3OTgzIDEuODE3MTkgLTIuOTc2ODRDMS44MTcxOSAtNS4yOTYxNCAyLjM3OTA4IC03LjI5MjY1IDMuNzY1ODggLTguNzAzMzZDMy44ODU0MyAtOC44MTA5NiAzLjg4NTQzIC04LjgzNDg3IDMuODg1NDMgLTguODcwNzNDMy44ODU0MyAtOC45NDI0NyAzLjgyNTY1IC04Ljk2NjM4IDMuNzc3ODMgLTguOTY2MzhDMy42MjI0MiAtOC45NjYzOCAyLjY0MjA5IC04LjEwNTYgMi4wNTYyOSAtNi45MzRDMS40NDY1OCAtNS43MjY1MyAxLjE3MTYxIC00LjQ0NzMyIDEuMTcxNjEgLTIuOTc2ODRDMS4xNzE2MSAtMS45MTI4MyAxLjMzODk4IC0wLjQ5MDE2MiAxLjk2MDY1IDAuNzg5MDQxQzIuNjY2IDIuMjIzNjYgMy42NDYzMyAzLjAwMDc1IDMuNzc3ODMgMy4wMDA3NUMzLjgyNTY1IDMuMDAwNzUgMy44ODU0MyAyLjk3Njg0IDMuODg1NDMgMi45MDUxMVoiLz4mI3hhOzxwYXRoIGlkPSJnMi00MSIgZD0iTTMuMzcxMzYgLTIuOTc2ODRDMy4zNzEzNiAtMy44ODU0MyAzLjI1MTgxIC01LjM2Nzg3IDIuNTgyMzIgLTYuNzU0NjdDMS44NzY5NiAtOC4xODkyOSAwLjg5NjYzOCAtOC45NjYzOCAwLjc2NTEzMSAtOC45NjYzOEMwLjcxNzMxIC04Ljk2NjM4IDAuNjU3NTM0IC04Ljk0MjQ3IDAuNjU3NTM0IC04Ljg3MDczQzAuNjU3NTM0IC04LjgzNDg3IDAuNjU3NTM0IC04LjgxMDk2IDAuODYwNzcyIC04LjYwNzcyQzIuMDU2MjkgLTcuNDAwMjUgMi43MjU3OCAtNS40Mjc2NSAyLjcyNTc4IC0yLjk4ODc5QzIuNzI1NzggLTAuNjY5NDg5IDIuMTYzODkgMS4zMjcwMiAwLjc3NzA4NiAyLjczNzczQzAuNjU3NTM0IDIuODQ1MzMgMC42NTc1MzQgMi44NjkyNCAwLjY1NzUzNCAyLjkwNTExQzAuNjU3NTM0IDIuOTc2ODQgMC43MTczMSAzLjAwMDc1IDAuNzY1MTMxIDMuMDAwNzVDMC45MjA1NDggMy4wMDA3NSAxLjkwMDg3IDIuMTM5OTggMi40ODY2NyAwLjk2ODM2OUMzLjA5NjM5IC0wLjI1MTA1OSAzLjM3MTM2IC0xLjU0MjIyIDMuMzcxMzYgLTIuOTc2ODRaIi8+JiN4YTs8cGF0aCBpZD0iZzItNTkiIGQ9Ik0yLjE5OTc1IC00LjU3ODgzQzIuMTk5NzUgLTQuOTAxNjIgMS45MjQ3OCAtNS4xNTI2OCAxLjYyNTkgLTUuMTUyNjhDMS4yNzkyIC01LjE1MjY4IDEuMDQwMSAtNC44Nzc3MSAxLjA0MDEgLTQuNTc4ODNDMS4wNDAxIC00LjIyMDE3IDEuMzM4OTggLTMuOTkzMDMgMS42MTM5NSAtMy45OTMwM0MxLjkzNjc0IC0zLjk5MzAzIDIuMTk5NzUgLTQuMjQ0MDggMi4xOTk3NSAtNC41Nzg4M1pNMS45OTY1MSAtMC4xMTk1NTJDMS45OTY1MSAwLjI5ODg3OSAxLjk5NjUxIDEuMTQ3NyAxLjI2NzI1IDIuMDQ0MzNDMS4xOTU1MiAyLjEzOTk4IDEuMTk1NTIgMi4xNjM4OSAxLjE5NTUyIDIuMTg3OEMxLjE5NTUyIDIuMjQ3NTcgMS4yNTUyOSAyLjMwNzM1IDEuMzE1MDcgMi4zMDczNUMxLjM5ODc1IDIuMzA3MzUgMi4yMzU2MiAxLjQyMjY3IDIuMjM1NjIgMC4wMjM5MTAzQzIuMjM1NjIgLTAuNDE4NDMxIDIuMTk5NzUgLTEuMTU5NjUgMS42MTM5NSAtMS4xNTk2NUMxLjI2NzI1IC0xLjE1OTY1IDEuMDQwMSAtMC44OTY2MzggMS4wNDAxIC0wLjU4NTgwM0MxLjA0MDEgLTAuMjYzMDE0IDEuMjY3MjUgMCAxLjYyNTkgMEMxLjg1MzA1IDAgMS45MzY3NCAtMC4wNzE3MzEgMS45OTY1MSAtMC4xMTk1NTJaIi8+JiN4YTs8cGF0aCBpZD0iZzItNjEiIGQ9Ik04LjA2OTc0IC0zLjg3MzQ3QzguMjM3MTEgLTMuODczNDcgOC40NTIzIC0zLjg3MzQ3IDguNDUyMyAtNC4wODg2N0M4LjQ1MjMgLTQuMzE1ODIgOC4yNDkwNyAtNC4zMTU4MiA4LjA2OTc0IC00LjMxNTgySDEuMDI4MTRDMC44NjA3NzIgLTQuMzE1ODIgMC42NDU1NzkgLTQuMzE1ODIgMC42NDU1NzkgLTQuMTAwNjJDMC42NDU1NzkgLTMuODczNDcgMC44NDg4MTcgLTMuODczNDcgMS4wMjgxNCAtMy44NzM0N0g4LjA2OTc0Wk04LjA2OTc0IC0xLjY0OTgxQzguMjM3MTEgLTEuNjQ5ODEgOC40NTIzIC0xLjY0OTgxIDguNDUyMyAtMS44NjUwMUM4LjQ1MjMgLTIuMDkyMTUgOC4yNDkwNyAtMi4wOTIxNSA4LjA2OTc0IC0yLjA5MjE1SDEuMDI4MTRDMC44NjA3NzIgLTIuMDkyMTUgMC42NDU1NzkgLTIuMDkyMTUgMC42NDU1NzkgLTEuODc2OTZDMC42NDU1NzkgLTEuNjQ5ODEgMC44NDg4MTcgLTEuNjQ5ODEgMS4wMjgxNCAtMS42NDk4MUg4LjA2OTc0WiIvPiYjeGE7PHBhdGggaWQ9ImcyLTEyNiIgZD0iTTQuNjk4MzggLTcuOTM4MjNDNC4zNTE2OCAtNy41OTE1MyA0LjEwMDYyIC03LjM1MjQzIDMuNzE4MDYgLTcuMzUyNDNDMy41Mzg3MyAtNy4zNTI0MyAzLjM3MTM2IC03LjM4ODI5IDMuMDAwNzUgLTcuNjM5MzVDMi43NjE2NCAtNy43ODI4MSAyLjUyMjU0IC03LjkzODIzIDIuMjQ3NTcgLTcuOTM4MjNDMS44MDUyMyAtNy45MzgyMyAxLjU0MjIyIC03LjYzOTM1IDAuOTgwMzI0IC03LjAxNzY4TDEuMTQ3NyAtNi44NTAzMUMxLjQ5NDQgLTcuMTk3MDEgMS43NDU0NSAtNy40MzYxMSAyLjEyODAyIC03LjQzNjExQzIuMzA3MzUgLTcuNDM2MTEgMi40NzQ3MiAtNy40MDAyNSAyLjg0NTMzIC03LjE0OTE5QzMuMDg0NDMgLTcuMDA1NzMgMy4zMjM1NCAtNi44NTAzMSAzLjU5ODUxIC02Ljg1MDMxQzQuMDQwODUgLTYuODUwMzEgNC4zMDM4NiAtNy4xNDkxOSA0Ljg2NTc1IC03Ljc3MDg2TDQuNjk4MzggLTcuOTM4MjNaIi8+JiN4YTs8L2RlZnM+JiN4YTs8ZyB0cmFuc2Zvcm09Im1hdHJpeCgxLjI1IDAgMCAxLjI1IDAgMCkiIGlkPSJwYWdlMSI+JiN4YTs8dXNlIHk9Ijg4Ljk5OTYiIHhsaW5rOmhyZWY9IiNnMi0xMjYiIHg9IjIwNi4zMTQiLz4mI3hhOzx1c2UgeT0iOTIuMTU0NCIgeGxpbms6aHJlZj0iI2cxLTEwMCIgeD0iMjA0LjI0OCIvPiYjeGE7PHVzZSB5PSI5Mi4xNTQ0IiB4bGluazpocmVmPSIjZzItNjEiIHg9IjIxMy42NTIiLz4mI3hhOzx1c2UgeT0iOTIuMTU0NCIgeGxpbms6aHJlZj0iI2cxLTEwMCIgeD0iMjI2LjA0MyIvPiYjeGE7PHVzZSB5PSI5Mi4xNTQ0IiB4bGluazpocmVmPSIjZzItNDAiIHg9IjIzMi4xMDMiLz4mI3hhOzx1c2UgeT0iOTIuMTU0NCIgeGxpbms6aHJlZj0iI2cwLTEyMCIgeD0iMjM2LjYzOCIvPiYjeGE7PHVzZSB5PSI5Mi4xNTQ0IiB4bGluazpocmVmPSIjZzItNTkiIHg9IjI0NC41MTciLz4mI3hhOzx1c2UgeT0iOTEuOTg4NCIgeGxpbms6aHJlZj0iI2cyLTEyNiIgeD0iMjUwLjYzMSIvPiYjeGE7PHVzZSB5PSI5Mi4xNTQ0IiB4bGluazpocmVmPSIjZzAtMTciIHg9IjI0OS43NDkiLz4mI3hhOzx1c2UgeT0iOTIuMTU0NCIgeGxpbms6aHJlZj0iI2cyLTQxIiB4PSIyNTcuMzY1Ii8+JiN4YTs8L2c+JiN4YTs8L3N2Zz4=;" vertex="1" parent="1">
          <mxGeometry x="470" y="267.5" width="98.58" height="25" as="geometry" />
        </mxCell>
        <mxCell id="8BUV6AUYwXgCQ4tE40Ya-25" value="" style="shape=image;verticalLabelPosition=bottom;labelBackgroundColor=default;verticalAlign=top;aspect=fixed;imageAspect=0;image=data:image/svg+xml,PHN2ZyB4bWxuczp4bGluaz0iaHR0cDovL3d3dy53My5vcmcvMTk5OS94bGluayIgeG1sbnM9Imh0dHA6Ly93d3cudzMub3JnLzIwMDAvc3ZnIiB3aWR0aD0iMjUuNjU5MXB0IiB2aWV3Qm94PSIyNzcuODI5IDEwMS4zMjcgMjUuNjU5MSAxNy42MTcyIiB2ZXJzaW9uPSIxLjEiIGhlaWdodD0iMTcuNjE3MnB0Ij4mI3hhOzxkZWZzPiYjeGE7PHBhdGggaWQ9ImcwLTIzIiBkPSJNMi42MzAxNCAtNS4xNTI2OEMyLjYzMDE0IC01LjIwMDUgMi41OTQyNyAtNS4yNzIyMyAyLjQ5ODYzIC01LjI3MjIzQzIuNDE0OTQgLTUuMjcyMjMgMS4yOTExNiAtNS4xNjQ2MyAxLjExMTgzIC01LjE1MjY4QzAuOTgwMzI0IC01LjE0MDcyIDAuODYwNzcyIC01LjEyODc3IDAuODYwNzcyIC00LjkxMzU3QzAuODYwNzcyIC00Ljc5NDAyIDAuOTU2NDEzIC00Ljc5NDAyIDEuMTIzNzkgLTQuNzk0MDJDMS42ODU2OCAtNC43OTQwMiAxLjcyMTU0IC00LjcxMDM0IDEuNzIxNTQgLTQuNTc4ODNDMS43MjE1NCAtNC41MzEwMSAxLjY5NzYzIC00LjM4NzU1IDEuNjg1NjggLTQuMzM5NzNMMC42MzM2MjQgLTAuMTE5NTUyQzAuNjMzNjI0IC0wLjA3MTczMSAwLjY2OTQ4OSAwIDAuNzUzMTc2IDBIMS4wMDQyM0MxLjE3MTYxIDAgMi45ODg3OSAtMC40MzAzODYgNC4zODc1NSAtMS44NjUwMUM1LjkyOTc2IC0zLjQ1NTA0IDYuMTQ0OTYgLTQuOTI1NTMgNi4xNDQ5NiAtNC45NzMzNUM2LjE0NDk2IC01LjE2NDYzIDUuOTg5NTQgLTUuMjcyMjMgNS44MzQxMiAtNS4yNzIyM0M1LjQ4NzQyIC01LjI3MjIzIDUuNDAzNzQgLTQuOTQ5NDQgNS4zNzk4MyAtNC44NjU3NUM0LjY3NDQ3IC0yLjM2NzEyIDMuMDM2NjEgLTAuODg0NjgyIDEuNDQ2NTggLTAuMzU4NjU1TDIuNjMwMTQgLTUuMTUyNjhaIi8+JiN4YTs8cGF0aCBpZD0iZzAtMTAwIiBkPSJNNi4wMTM0NSAtNy45OTgwMUM2LjAyNTQgLTguMDQ1ODMgNi4wNDkzMiAtOC4xMTc1NiA2LjA0OTMyIC04LjE3NzMzQzYuMDQ5MzIgLTguMjk2ODkgNS45Mjk3NiAtOC4yOTY4OSA1LjkwNTg1IC04LjI5Njg5QzUuODkzOSAtOC4yOTY4OSA1LjMwODA5IC04LjI0OTA3IDUuMjQ4MzIgLTguMjM3MTFDNS4wNDUwOCAtOC4yMjUxNiA0Ljg2NTc1IC04LjIwMTI1IDQuNjUwNTYgLTguMTg5MjlDNC4zNTE2OCAtOC4xNjUzOCA0LjI2OCAtOC4xNTM0MiA0LjI2OCAtNy45MzgyM0M0LjI2OCAtNy44MTg2OCA0LjM2MzY0IC03LjgxODY4IDQuNTMxMDEgLTcuODE4NjhDNS4xMTY4MSAtNy44MTg2OCA1LjEyODc3IC03LjcxMTA4IDUuMTI4NzcgLTcuNTkxNTNDNS4xMjg3NyAtNy41MTk4IDUuMTA0ODYgLTcuNDI0MTYgNS4wOTI5IC03LjM4ODI5TDQuMzYzNjQgLTQuNDgzMTlDNC4yMzIxMyAtNC43OTQwMiAzLjkwOTM0IC01LjI3MjIzIDMuMjg3NjcgLTUuMjcyMjNDMS45MzY3NCAtNS4yNzIyMyAwLjQ3ODIwNyAtMy41MjY3NyAwLjQ3ODIwNyAtMS43NTc0MUMwLjQ3ODIwNyAtMC41NzM4NDggMS4xNzE2MSAwLjExOTU1MiAxLjk4NDU2IDAuMTE5NTUyQzIuNjQyMDkgMC4xMTk1NTIgMy4yMDM5OSAtMC4zOTQ1MjEgMy41Mzg3MyAtMC43ODkwNDFDMy42NTgyOCAtMC4wODM2ODYyIDQuMjIwMTcgMC4xMTk1NTIgNC41Nzg4MyAwLjExOTU1MlM1LjIyNDQxIC0wLjA5NTY0MTMgNS40Mzk2IC0wLjUyNjAyN0M1LjYzMDg4IC0wLjkzMjUwMyA1Ljc5ODI2IC0xLjY2MTc3IDUuNzk4MjYgLTEuNzA5NTlDNS43OTgyNiAtMS43NjkzNiA1Ljc1MDQ0IC0xLjgxNzE5IDUuNjc4NyAtMS44MTcxOUM1LjU3MTExIC0xLjgxNzE5IDUuNTU5MTUgLTEuNzU3NDEgNS41MTEzMyAtMS41NzgwOEM1LjMzMiAtMC44NzI3MjcgNS4xMDQ4NiAtMC4xMTk1NTIgNC42MTQ2OSAtMC4xMTk1NTJDNC4yNjggLTAuMTE5NTUyIDQuMjQ0MDggLTAuNDMwMzg2IDQuMjQ0MDggLTAuNjY5NDg5QzQuMjQ0MDggLTAuNzE3MzEgNC4yNDQwOCAtMC45NjgzNjkgNC4zMjc3NyAtMS4zMDMxMUw2LjAxMzQ1IC03Ljk5ODAxWk0zLjU5ODUxIC0xLjQyMjY3QzMuNTM4NzMgLTEuMjE5NDMgMy41Mzg3MyAtMS4xOTU1MiAzLjM3MTM2IC0wLjk2ODM2OUMzLjEwODM0IC0wLjYzMzYyNCAyLjU4MjMyIC0wLjExOTU1MiAyLjAyMDQyIC0wLjExOTU1MkMxLjUzMDI2IC0wLjExOTU1MiAxLjI1NTI5IC0wLjU2MTg5MyAxLjI1NTI5IC0xLjI2NzI1QzEuMjU1MjkgLTEuOTI0NzggMS42MjU5IC0zLjI2Mzc2IDEuODUzMDUgLTMuNzY1ODhDMi4yNTk1MyAtNC42MDI3NCAyLjgyMTQyIC01LjAzMzEzIDMuMjg3NjcgLTUuMDMzMTNDNC4wNzY3MSAtNS4wMzMxMyA0LjIzMjEzIC00LjA1MjggNC4yMzIxMyAtMy45NTcxNkM0LjIzMjEzIC0zLjk0NTIxIDQuMTk2MjYgLTMuNzg5NzkgNC4xODQzMSAtMy43NjU4OEwzLjU5ODUxIC0xLjQyMjY3WiIvPiYjeGE7PHBhdGggaWQ9ImcxLTIyIiBkPSJNNS4wMzMxMyAtNi42NTkwM1YtNy4wMDU3M0gwLjgxMjk1MVYtNi42NTkwM0g1LjAzMzEzWiIvPiYjeGE7PHBhdGggaWQ9ImcxLTQwIiBkPSJNMy44ODU0MyAyLjkwNTExQzMuODg1NDMgMi44NjkyNCAzLjg4NTQzIDIuODQ1MzMgMy42ODIxOSAyLjY0MjA5QzIuNDg2NjcgMS40MzQ2MiAxLjgxNzE5IC0wLjUzNzk4MyAxLjgxNzE5IC0yLjk3Njg0QzEuODE3MTkgLTUuMjk2MTQgMi4zNzkwOCAtNy4yOTI2NSAzLjc2NTg4IC04LjcwMzM2QzMuODg1NDMgLTguODEwOTYgMy44ODU0MyAtOC44MzQ4NyAzLjg4NTQzIC04Ljg3MDczQzMuODg1NDMgLTguOTQyNDcgMy44MjU2NSAtOC45NjYzOCAzLjc3NzgzIC04Ljk2NjM4QzMuNjIyNDIgLTguOTY2MzggMi42NDIwOSAtOC4xMDU2IDIuMDU2MjkgLTYuOTM0QzEuNDQ2NTggLTUuNzI2NTMgMS4xNzE2MSAtNC40NDczMiAxLjE3MTYxIC0yLjk3Njg0QzEuMTcxNjEgLTEuOTEyODMgMS4zMzg5OCAtMC40OTAxNjIgMS45NjA2NSAwLjc4OTA0MUMyLjY2NiAyLjIyMzY2IDMuNjQ2MzMgMy4wMDA3NSAzLjc3NzgzIDMuMDAwNzVDMy44MjU2NSAzLjAwMDc1IDMuODg1NDMgMi45NzY4NCAzLjg4NTQzIDIuOTA1MTFaIi8+JiN4YTs8cGF0aCBpZD0iZzEtNDEiIGQ9Ik0zLjM3MTM2IC0yLjk3Njg0QzMuMzcxMzYgLTMuODg1NDMgMy4yNTE4MSAtNS4zNjc4NyAyLjU4MjMyIC02Ljc1NDY3QzEuODc2OTYgLTguMTg5MjkgMC44OTY2MzggLTguOTY2MzggMC43NjUxMzEgLTguOTY2MzhDMC43MTczMSAtOC45NjYzOCAwLjY1NzUzNCAtOC45NDI0NyAwLjY1NzUzNCAtOC44NzA3M0MwLjY1NzUzNCAtOC44MzQ4NyAwLjY1NzUzNCAtOC44MTA5NiAwLjg2MDc3MiAtOC42MDc3MkMyLjA1NjI5IC03LjQwMDI1IDIuNzI1NzggLTUuNDI3NjUgMi43MjU3OCAtMi45ODg3OUMyLjcyNTc4IC0wLjY2OTQ4OSAyLjE2Mzg5IDEuMzI3MDIgMC43NzcwODYgMi43Mzc3M0MwLjY1NzUzNCAyLjg0NTMzIDAuNjU3NTM0IDIuODY5MjQgMC42NTc1MzQgMi45MDUxMUMwLjY1NzUzNCAyLjk3Njg0IDAuNzE3MzEgMy4wMDA3NSAwLjc2NTEzMSAzLjAwMDc1QzAuOTIwNTQ4IDMuMDAwNzUgMS45MDA4NyAyLjEzOTk4IDIuNDg2NjcgMC45NjgzNjlDMy4wOTYzOSAtMC4yNTEwNTkgMy4zNzEzNiAtMS41NDIyMiAzLjM3MTM2IC0yLjk3Njg0WiIvPiYjeGE7PHBhdGggaWQ9ImcxLTEyNiIgZD0iTTQuNjk4MzggLTcuOTM4MjNDNC4zNTE2OCAtNy41OTE1MyA0LjEwMDYyIC03LjM1MjQzIDMuNzE4MDYgLTcuMzUyNDNDMy41Mzg3MyAtNy4zNTI0MyAzLjM3MTM2IC03LjM4ODI5IDMuMDAwNzUgLTcuNjM5MzVDMi43NjE2NCAtNy43ODI4MSAyLjUyMjU0IC03LjkzODIzIDIuMjQ3NTcgLTcuOTM4MjNDMS44MDUyMyAtNy45MzgyMyAxLjU0MjIyIC03LjYzOTM1IDAuOTgwMzI0IC03LjAxNzY4TDEuMTQ3NyAtNi44NTAzMUMxLjQ5NDQgLTcuMTk3MDEgMS43NDU0NSAtNy40MzYxMSAyLjEyODAyIC03LjQzNjExQzIuMzA3MzUgLTcuNDM2MTEgMi40NzQ3MiAtNy40MDAyNSAyLjg0NTMzIC03LjE0OTE5QzMuMDg0NDMgLTcuMDA1NzMgMy4zMjM1NCAtNi44NTAzMSAzLjU5ODUxIC02Ljg1MDMxQzQuMDQwODUgLTYuODUwMzEgNC4zMDM4NiAtNy4xNDkxOSA0Ljg2NTc1IC03Ljc3MDg2TDQuNjk4MzggLTcuOTM4MjNaIi8+JiN4YTs8L2RlZnM+JiN4YTs8ZyB0cmFuc2Zvcm09Im1hdHJpeCgxLjI1IDAgMCAxLjI1IDAgMCkiIGlkPSJwYWdlMSI+JiN4YTs8dXNlIHk9IjkyLjE1NDQiIHhsaW5rOmhyZWY9IiNnMS0yMiIgeD0iMjIyLjkzMSIvPiYjeGE7PHVzZSB5PSI5Mi4xNTQ0IiB4bGluazpocmVmPSIjZzAtMjMiIHg9IjIyMi4yNjMiLz4mI3hhOzx1c2UgeT0iOTIuMTU0NCIgeGxpbms6aHJlZj0iI2cxLTQwIiB4PSIyMjguODAxIi8+JiN4YTs8dXNlIHk9Ijg4Ljk5OTYiIHhsaW5rOmhyZWY9IiNnMS0xMjYiIHg9IjIzNS40MDIiLz4mI3hhOzx1c2UgeT0iOTIuMTU0NCIgeGxpbms6aHJlZj0iI2cwLTEwMCIgeD0iMjMzLjMzNiIvPiYjeGE7PHVzZSB5PSI5Mi4xNTQ0IiB4bGluazpocmVmPSIjZzEtNDEiIHg9IjIzOS40MTkiLz4mI3hhOzwvZz4mI3hhOzwvc3ZnPg==;" vertex="1" parent="1">
          <mxGeometry x="740" y="267.5" width="36.08" height="25" as="geometry" />
        </mxCell>
      </root>
    </mxGraphModel>
  </diagram>
</mxfile>
